<?xml version="1.0" encoding="UTF-8"?>
<svg version="1.1" xmlns="http://www.w3.org/2000/svg" width="371" height="92">
<path d="M0 0 C1.13344849 -0.02779541 1.13344849 -0.02779541 2.28979492 -0.05615234 C7.87759799 0.00581959 12.29882271 1.32350713 16.9375 4.5 C20.03853182 8.22123818 20.9375 9.61353925 20.9375 14.5 C19.14656809 14.58086147 17.35460372 14.63912702 15.5625 14.6875 C14.06589844 14.73970703 14.06589844 14.73970703 12.5390625 14.79296875 C11.68054687 14.69628906 10.82203125 14.59960938 9.9375 14.5 C9.2775 13.51 8.6175 12.52 7.9375 11.5 C4.31882441 10.2937748 1.01243749 10.39183082 -2.75 10.4375 C-3.45189453 10.44201172 -4.15378906 10.44652344 -4.87695312 10.45117188 C-6.60550538 10.46293073 -8.33401365 10.48086546 -10.0625 10.5 C-10.3925 12.81 -10.7225 15.12 -11.0625 17.5 C-5.44611795 20.67721613 0.04547889 21.72139381 6.3046875 22.87304688 C12.23983396 24.06707045 16.48469658 25.95904086 20.78515625 30.4140625 C23.04197469 34.49928639 22.50724458 38.98788492 21.9375 43.5 C19.78984598 48.42170712 17.00946966 50.41727499 12.34960938 52.65991211 C7.79116208 54.24752518 3.2172951 54.11519554 -1.5625 54.0625 C-3.05330078 54.09827148 -3.05330078 54.09827148 -4.57421875 54.13476562 C-11.31161782 54.12141543 -15.87946177 52.90974575 -21.0625 48.5 C-24.11962176 44.75256042 -24.59597548 41.25855012 -25.0625 36.5 C-21.4325 36.5 -17.8025 36.5 -14.0625 36.5 C-13.69125 37.44875 -13.32 38.3975 -12.9375 39.375 C-11.34436678 42.65478448 -11.34436678 42.65478448 -8.375 43.875 C-1.64542682 45.14473079 3.54125995 44.63208002 9.9375 42.5 C10.10431109 39.58347826 10.10431109 39.58347826 9.9375 36.5 C6.33424931 32.89674931 0.93604428 32.48103405 -3.9375 31.5625 C-8.81030035 30.62829748 -13.40290924 29.18825752 -18.0625 27.5 C-18.0625 26.84 -18.0625 26.18 -18.0625 25.5 C-18.701875 25.21125 -19.34125 24.9225 -20 24.625 C-22.0625 23.5 -22.0625 23.5 -23.0625 21.5 C-23.67874614 16.11224803 -23.82411732 11.85125654 -21.125 7.0625 C-14.3937497 1.43022934 -8.65093936 0.13237182 0 0 Z " fill="#D1D3D4" transform="translate(41.0625,13.5)"/>
<path d="M0 0 C3.96 0 7.92 0 12 0 C13.10557592 2.35351368 14.20948982 4.7077841 15.3125 7.0625 C15.7755957 8.04766602 15.7755957 8.04766602 16.24804688 9.05273438 C17.17397318 11.03129269 18.0884132 13.01479935 19 15 C19.29696777 15.63276855 19.59393555 16.26553711 19.89990234 16.91748047 C21.42162593 20.26777724 22 22.23836331 22 26 C22.66 26 23.32 26 24 26 C24.31453125 26.83402344 24.6290625 27.66804688 24.953125 28.52734375 C27.22823737 34.50979286 29.54268583 40.41748415 32.30078125 46.1953125 C33 48 33 48 33 51 C33.99 51.495 33.99 51.495 35 52 C33.26150372 53.73849628 30.9213363 53.17216296 28.5625 53.1875 C27.57378906 53.20167969 26.58507812 53.21585938 25.56640625 53.23046875 C23 53 23 53 21 51 C19.40124678 47.62485432 19 45.83441243 19 42 C10.75 42 2.5 42 -6 42 C-6.99 44.97 -7.98 47.94 -9 51 C-9.33 51.66 -9.66 52.32 -10 53 C-13.96 53 -17.92 53 -22 53 C-19.69308708 43.77234833 -15.65662192 35.12070181 -11.61328125 26.54296875 C-9.41794196 21.72172727 -7.42325453 16.82590172 -5.44775391 11.91113281 C-3.80158333 7.84049685 -2.02205579 3.90360619 0 0 Z M5 14 C4.66226562 14.88042969 4.32453125 15.76085938 3.9765625 16.66796875 C3.53054688 17.82941406 3.08453125 18.99085937 2.625 20.1875 C2.18414062 21.33605469 1.74328125 22.48460937 1.2890625 23.66796875 C0.21171783 26.45274149 -0.89106259 29.22765648 -2 32 C3.28 32 8.56 32 14 32 C11.82199362 25.91660286 9.62418282 19.90441134 7 14 C6.34 14 5.68 14 5 14 Z " fill="#10B7B6" transform="translate(304,14)"/>
<path d="M0 0 C3.63 0 7.26 0 11 0 C11 17.16 11 34.32 11 52 C7.37 52 3.74 52 0 52 C0 51.34 0 50.68 0 50 C-0.55300781 50.31324219 -1.10601562 50.62648437 -1.67578125 50.94921875 C-7.31648136 53.49938401 -13.96751209 53.61969924 -19.875 51.9375 C-25.07156842 49.90163509 -27.68527622 46.73629791 -30.10546875 41.69921875 C-32.2117538 35.34357261 -32.15147356 27.55221229 -29.3125 21.4375 C-26.74961447 17.16602411 -23.73794443 14.77241975 -19.1875 12.75 C-12.06263827 11.07356195 -7.39690155 11.80154922 -1 15 C-0.67 10.05 -0.34 5.1 0 0 Z M-19 24 C-21.28998741 27.9256927 -21.47114633 31.52410983 -21 36 C-19.24505919 39.10039543 -17.51174333 41.48825667 -15 44 C-11.59197812 44.6273173 -8.41290556 44.57864019 -5 44 C-1.58376143 41.56518038 -1.58376143 41.56518038 0 38 C0.80517353 30.81792304 0.80517353 30.81792304 -1 24 C-1.66 24 -2.32 24 -3 24 C-3 23.34 -3 22.68 -3 22 C-8.76654766 20.07781745 -14.25654212 19.95410946 -19 24 Z " fill="#DCDFDE" transform="translate(185,15)"/>
<path d="M0 0 C3.63 0 7.26 0 11 0 C11 17.16 11 34.32 11 52 C7.37 52 3.74 52 0 52 C0 51.34 0 50.68 0 50 C-0.54914063 50.31582031 -1.09828125 50.63164063 -1.6640625 50.95703125 C-7.48495118 53.55598991 -14.88893851 53.48647442 -21 52 C-21 51.34 -21 50.68 -21 50 C-21.61875 49.9175 -22.2375 49.835 -22.875 49.75 C-25 49 -25 49 -26.25 46.9375 C-26.4975 46.298125 -26.745 45.65875 -27 45 C-27.66 45 -28.32 45 -29 45 C-32.0397392 38.65302454 -31.63699506 31.88102805 -31 25 C-29.97446656 22.10621215 -28.90430548 20.4398914 -27 18 C-26.34 18 -25.68 18 -25 18 C-25 17.34 -25 16.68 -25 16 C-18.41400429 12.58503926 -13.14264331 10.45632491 -5.72265625 12.68359375 C-3.79094632 13.39313219 -1.89150758 14.18935389 0 15 C0 10.05 0 5.1 0 0 Z M-19 25 C-20.2866645 27.573329 -20.16824551 29.50223038 -20.1875 32.375 C-20.20167969 33.33148438 -20.21585938 34.28796875 -20.23046875 35.2734375 C-19.99209647 38.09350283 -19.55451691 39.65531337 -18 42 C-13.74136188 44.83909208 -9.99572221 44.74099229 -5 44 C-1.63014031 41.9368206 -0.36060397 40.46645616 0.5859375 36.6171875 C1.21240124 31.95351298 1.39159423 28.22046041 -1 24 C-1.66 24 -2.32 24 -3 24 C-3 23.34 -3 22.68 -3 22 C-9.5014341 19.8328553 -14.16026763 20.01360907 -19 25 Z " fill="#D2D4D5" transform="translate(231,15)"/>
<path d="M0 0 C3.63 0 7.26 0 11 0 C11.33 4.95 11.66 9.9 12 15 C12.99 14.505 13.98 14.01 15 13.5 C20.53753849 11.15547765 25.00961435 11.35902835 30.6875 13.1875 C36.01091307 16.10031093 39.14841152 19.21443142 41 25 C41.22705078 28.04614258 41.22705078 28.04614258 41.1953125 31.39453125 C41.18886719 32.59658203 41.18242188 33.79863281 41.17578125 35.03710938 C41.15902344 36.28298828 41.14226562 37.52886719 41.125 38.8125 C41.11597656 40.07771484 41.10695312 41.34292969 41.09765625 42.64648438 C41.07412394 45.76451564 41.04124545 48.88216097 41 52 C37.7 52 34.4 52 31 52 C30.93941406 50.48148438 30.87882812 48.96296875 30.81640625 47.3984375 C30.73196519 45.39061682 30.64731899 43.38280475 30.5625 41.375 C30.52318359 40.37597656 30.48386719 39.37695312 30.44335938 38.34765625 C30.23427386 33.49043896 29.97041445 28.77867956 29 24 C28.34 24 27.68 24 27 24 C27 23.34 27 22.68 27 22 C20.26213765 21.72928342 20.26213765 21.72928342 14 24 C13.67 24.66 13.34 25.32 13 26 C12.34 26 11.68 26 11 26 C11 34.58 11 43.16 11 52 C7.37 52 3.74 52 0 52 C0 34.84 0 17.68 0 0 Z " fill="#C6C8C9" transform="translate(67,15)"/>
<path d="M0 0 C3.35908205 2.42015791 4.84326214 4.07361587 5.62109375 8.16796875 C5.96828464 12.89030141 6.08624374 17.62343834 6.24609375 22.35546875 C6.29765625 23.66451172 6.34921875 24.97355469 6.40234375 26.32226562 C6.44617188 27.56427734 6.49 28.80628906 6.53515625 30.0859375 C6.57592285 31.22828857 6.61668945 32.37063965 6.65869141 33.54760742 C6.62109375 36.16796875 6.62109375 36.16796875 5.62109375 37.16796875 C3.93500409 37.24002386 2.24608716 37.25182943 0.55859375 37.23046875 C-0.36050781 37.22144531 -1.27960938 37.21242187 -2.2265625 37.203125 C-2.93683594 37.19152344 -3.64710938 37.17992187 -4.37890625 37.16796875 C-4.70890625 36.17796875 -5.03890625 35.18796875 -5.37890625 34.16796875 C-5.930625 34.64621094 -6.48234375 35.12445313 -7.05078125 35.6171875 C-12.03506602 38.93725638 -19.07376541 38.67425822 -24.81640625 37.54296875 C-28.91926097 35.95941079 -30.37990319 35.08268308 -32.37890625 31.16796875 C-33.05971964 26.28007772 -32.83472958 22.5000411 -30.37890625 18.16796875 C-29.71890625 18.16796875 -29.05890625 18.16796875 -28.37890625 18.16796875 C-28.37890625 17.50796875 -28.37890625 16.84796875 -28.37890625 16.16796875 C-25.31733971 14.39127652 -23.1385441 13.92746057 -19.61328125 13.97265625 C-18.72382812 13.97910156 -17.834375 13.98554687 -16.91796875 13.9921875 C-15.99757812 14.00894531 -15.0771875 14.02570312 -14.12890625 14.04296875 C-13.19304687 14.05199219 -12.2571875 14.06101562 -11.29296875 14.0703125 C-8.98801968 14.09383239 -6.68359465 14.12670022 -4.37890625 14.16796875 C-4.70890625 11.85796875 -5.03890625 9.54796875 -5.37890625 7.16796875 C-7.50383766 7.141033 -9.62886537 7.12160247 -11.75390625 7.10546875 C-12.93726563 7.09386719 -14.120625 7.08226562 -15.33984375 7.0703125 C-18.29812146 6.95330282 -18.29812146 6.95330282 -20.37890625 8.16796875 C-20.70890625 9.15796875 -21.03890625 10.14796875 -21.37890625 11.16796875 C-24.67890625 11.16796875 -27.97890625 11.16796875 -31.37890625 11.16796875 C-30.92552513 6.29412176 -29.95833381 3.56383593 -26.37890625 0.16796875 C-17.98940393 -4.17659495 -8.35623905 -4.69027611 0 0 Z M-20.84765625 23.04296875 C-22.64769505 25.04021361 -22.64769505 25.04021361 -22.12890625 27.41796875 C-21.88140625 27.99546875 -21.63390625 28.57296875 -21.37890625 29.16796875 C-15.31840011 30.24920785 -15.31840011 30.24920785 -9.37890625 29.16796875 C-9.37890625 28.50796875 -9.37890625 27.84796875 -9.37890625 27.16796875 C-8.73953125 26.92046875 -8.10015625 26.67296875 -7.44140625 26.41796875 C-5.18586716 25.36513442 -5.18586716 25.36513442 -4.75 23.08984375 C-4.62753906 22.455625 -4.50507813 21.82140625 -4.37890625 21.16796875 C-6.62784579 21.05973102 -8.878282 20.9822723 -11.12890625 20.91796875 C-12.381875 20.8715625 -13.63484375 20.82515625 -14.92578125 20.77734375 C-18.43106505 20.87573483 -18.43106505 20.87573483 -20.84765625 23.04296875 Z " fill="#D0D2D3" transform="translate(144.37890625,29.83203125)"/>
<path d="M0 0 C3.3 0 6.6 0 10 0 C13.91141228 7.53348722 17.60292686 14.82175048 20 23 C20.66 23 21.32 23 22 23 C22.22042969 22.14341797 22.22042969 22.14341797 22.4453125 21.26953125 C24.51343585 13.79338421 27.62428745 6.96991782 31 0 C34.3 0 37.6 0 41 0 C40.35770696 3.75025878 39.29906831 7.07396058 37.890625 10.60546875 C37.25253906 12.20551758 37.25253906 12.20551758 36.6015625 13.83789062 C35.93253906 15.49594727 35.93253906 15.49594727 35.25 17.1875 C34.81945312 18.27353516 34.38890625 19.35957031 33.9453125 20.47851562 C31.56431691 26.41318278 28.9903258 32.15235883 26.07128906 37.84057617 C24.74436862 40.51528249 23.70949658 43.23686389 22.75 46.0625 C21.09168443 50.90831557 21.09168443 50.90831557 20 52 C18.14712498 52.07226502 16.29166122 52.0838122 14.4375 52.0625 C13.42558594 52.05347656 12.41367187 52.04445312 11.37109375 52.03515625 C10.19740234 52.01775391 10.19740234 52.01775391 9 52 C9.43191634 50.47757149 9.87087562 48.95714081 10.3125 47.4375 C10.67794922 46.16712891 10.67794922 46.16712891 11.05078125 44.87109375 C12 42 12 42 13.80859375 38.59765625 C15.39924699 35.01176492 15.39924699 35.01176492 13.796875 31.5 C13.14029019 30.31867472 12.45704184 29.15183543 11.75 28 C8.97614325 23.27495123 7.47236826 19.44612816 7 14 C6.34 14 5.68 14 5 14 C3.23945126 9.35855331 1.53472968 4.72224516 0 0 Z " fill="#DEE0DF" transform="translate(246,29)"/>
<path d="M0 0 C3.63 0 7.26 0 11 0 C11 17.16 11 34.32 11 52 C7.04 52 3.08 52 -1 52 C-0.67 34.84 -0.34 17.68 0 0 Z " fill="#05C1BE" transform="translate(341,15)"/>
<path d="M0 0 C2.97 0 5.94 0 9 0 C9 16.5 9 33 9 50 C6.03 50 3.06 50 0 50 C0 49.01 0 48.02 0 47 C-2.44496043 45.28288757 -2.44496043 45.28288757 -5 44 C-3.36587557 42.29159719 -2.13093906 41.06546953 0 40 C-0.14238837 37.95809019 -0.28907028 35.91647955 -0.4375 33.875 C-0.51871094 32.73804688 -0.59992188 31.60109375 -0.68359375 30.4296875 C-0.92985285 27.03277783 -0.92985285 27.03277783 -1.66015625 23.8828125 C-2.05768854 20.51064202 -1.25748642 19.10700111 0 16 C0.13760722 13.19006055 0.19011573 10.48998076 0.125 7.6875 C0.11597656 6.94693359 0.10695312 6.20636719 0.09765625 5.44335938 C0.07424213 3.62876533 0.03837615 1.81433929 0 0 Z " fill="#F4F5F3" transform="translate(186,16)"/>
<path d="M0 0 C3.63 0 7.26 0 11 0 C11 17.16 11 34.32 11 52 C7.37 52 3.74 52 0 52 C0 51.34 0 50.68 0 50 C-0.556875 50.33 -1.11375 50.66 -1.6875 51 C-4.30284522 52.1309601 -6.1806646 52.15662974 -9 52 C-9 50.02 -9 48.04 -9 46 C-10.65 45.67 -12.3 45.34 -14 45 C-14 44.67 -14 44.34 -14 44 C-13.39671875 43.98582031 -12.7934375 43.97164062 -12.171875 43.95703125 C-8.19484225 43.7196922 -5.70581507 43.54700668 -2.5 41.0625 C-0.40885011 36.79306897 -0.18273616 32.70545621 0 28 C0.33 28 0.66 28 1 28 C1.495 34.93 1.495 34.93 2 42 C0.35 42.66 -1.3 43.32 -3 44 C-2.34 44.33 -1.68 44.66 -1 45 C-1 45.66 -1 46.32 -1 47 C0.485 47.495 0.485 47.495 2 48 C2 48.66 2 49.32 2 50 C4.64 50.33 7.28 50.66 10 51 C10 34.5 10 18 10 1 C7.03 1 4.06 1 1 1 C1.33 7.27 1.66 13.54 2 20 C1.34 20 0.68 20 0 20 C-0.33 21.32 -0.66 22.64 -1 24 C-1.66 24 -2.32 24 -3 24 C-3 23.34 -3 22.68 -3 22 C-4.72880982 21.94550162 -6.45812712 21.90698312 -8.1875 21.875 C-9.15042969 21.85179688 -10.11335938 21.82859375 -11.10546875 21.8046875 C-14.17546712 22.01183989 -16.28397891 22.56438885 -19 24 C-19.89386164 26.54775306 -19.89386164 26.54775306 -20 29 C-21.35714063 25.33572029 -20.52286834 23.49363912 -19 20 C-19 19.01 -19 18.02 -19 17 C-22.11785113 17.64644661 -22.11785113 17.64644661 -23 20 C-23.99 20 -24.98 20 -26 20 C-26.33 20.66 -26.66 21.32 -27 22 C-27.66 21.67 -28.32 21.34 -29 21 C-25.33494298 15.84601357 -22.22286526 13.38285895 -16 12 C-10.27006425 11.21268058 -6.06386516 12.46806742 -1 15 C-0.67 10.05 -0.34 5.1 0 0 Z " fill="#BCBFBF" transform="translate(185,15)"/>
<path d="M0 0 C1.72964957 1.24618125 3.16061747 2.61870971 4.62109375 4.16796875 C4.29109375 5.15796875 3.96109375 6.14796875 3.62109375 7.16796875 C3.12609375 6.17796875 3.12609375 6.17796875 2.62109375 5.16796875 C2.29109375 5.82796875 1.96109375 6.48796875 1.62109375 7.16796875 C-0.04391068 7.50950812 -1.71069302 7.84246373 -3.37890625 8.16796875 C-4.03890625 8.82796875 -4.69890625 9.48796875 -5.37890625 10.16796875 C-5.37890625 9.17796875 -5.37890625 8.18796875 -5.37890625 7.16796875 C-7.50383766 7.141033 -9.62886537 7.12160247 -11.75390625 7.10546875 C-12.93726563 7.09386719 -14.120625 7.08226562 -15.33984375 7.0703125 C-18.29812146 6.95330282 -18.29812146 6.95330282 -20.37890625 8.16796875 C-20.70890625 9.15796875 -21.03890625 10.14796875 -21.37890625 11.16796875 C-24.67890625 11.16796875 -27.97890625 11.16796875 -31.37890625 11.16796875 C-30.92552513 6.29412176 -29.95833381 3.56383593 -26.37890625 0.16796875 C-17.98940393 -4.17659495 -8.35623905 -4.69027611 0 0 Z " fill="#DDDFDF" transform="translate(144.37890625,29.83203125)"/>
<path d="M0 0 C3.96 0 7.92 0 12 0 C16.93913043 8.95217391 16.93913043 8.95217391 16 14 C14.1875 15.9375 14.1875 15.9375 12 17 C11.01 16.67 10.02 16.34 9 16 C8.67 15.01 8.34 14.02 8 13 C5.98491642 12.26676204 5.98491642 12.26676204 4 12 C3.89042969 12.77085938 3.78085937 13.54171875 3.66796875 14.3359375 C3.50941406 15.33882812 3.35085938 16.34171875 3.1875 17.375 C2.96126953 18.87160156 2.96126953 18.87160156 2.73046875 20.3984375 C2 23 2 23 -1 25 C-1 24.34 -1 23.68 -1 23 C-2.98 23.99 -2.98 23.99 -5 25 C-5 22.36 -5 19.72 -5 17 C-4.34 17 -3.68 17 -3 17 C-3.2784375 16.2265625 -3.2784375 16.2265625 -3.5625 15.4375 C-4.5978117 9.66933482 -2.7945328 4.98155847 0 0 Z " fill="#0FCAC4" transform="translate(304,14)"/>
<path d="M0 0 C3.3 0 6.6 0 10 0 C13.91141228 7.53348722 17.60292686 14.82175048 20 23 C20.66 23 21.32 23 22 23 C22 23.66 22 24.32 22 25 C21.401875 25.144375 20.80375 25.28875 20.1875 25.4375 C18.43849596 25.8872439 16.71322977 26.42892341 15 27 C15 27.99 15 28.98 15 30 C15.66 30.33 16.32 30.66 17 31 C16.34 32.32 15.68 33.64 15 35 C13.84120336 32.81855776 12.69812622 30.63096983 11.5625 28.4375 C11.23701172 27.82841797 10.91152344 27.21933594 10.57617188 26.59179688 C8.39628779 22.34439386 7.43480631 18.75837333 7 14 C6.34 14 5.68 14 5 14 C3.23945126 9.35855331 1.53472968 4.72224516 0 0 Z " fill="#D2D5D5" transform="translate(246,29)"/>
<path d="M0 0 C1.32 0.66 2.64 1.32 4 2 C4 3.65 4 5.3 4 7 C4.66 7 5.32 7 6 7 C6 15.25 6 23.5 6 32 C3.03 32 0.06 32 -3 32 C-3.28439859 27.60568404 -3.52149772 23.21004884 -3.75 18.8125 C-3.83121094 17.56662109 -3.91242188 16.32074219 -3.99609375 15.03710938 C-4.05410156 13.83505859 -4.11210938 12.63300781 -4.171875 11.39453125 C-4.2347168 10.28956299 -4.29755859 9.18459473 -4.36230469 8.04614258 C-3.91613092 4.29485541 -2.56039222 2.70336945 0 0 Z " fill="#F1F2F0" transform="translate(101,34)"/>
<path d="M0 0 C0.33 0 0.66 0 1 0 C1.16729064 3.96907474 1.32788226 7.93835721 1.48217773 11.90795898 C1.53565802 13.25927079 1.59099194 14.61051052 1.64819336 15.96166992 C1.72993571 17.90002989 1.80453323 19.83868704 1.87890625 21.77734375 C1.9260376 22.94515381 1.97316895 24.11296387 2.02172852 25.31616211 C2 28 2 28 1 29 C-0.68608966 29.07205511 -2.37500659 29.08386068 -4.0625 29.0625 C-4.98160156 29.05347656 -5.90070313 29.04445313 -6.84765625 29.03515625 C-7.55792969 29.02355469 -8.26820313 29.01195313 -9 29 C-9.33 28.01 -9.66 27.02 -10 26 C-10.55171875 26.47824219 -11.1034375 26.95648438 -11.671875 27.44921875 C-16.21661365 30.47650272 -22.15780055 30.36993707 -27.4609375 29.6796875 C-29.625 29.1875 -29.625 29.1875 -33 28 C-33.33 27.34 -33.66 26.68 -34 26 C-32.72125 26.04125 -31.4425 26.0825 -30.125 26.125 C-27.98128508 26.24212873 -27.98128508 26.24212873 -26 26 C-25.34 25.34 -24.68 24.68 -24 24 C-23.608125 24.474375 -23.21625 24.94875 -22.8125 25.4375 C-20.59191626 27.35179633 -18.86624291 27.61266988 -16 28 C-16 27.34 -16 26.68 -16 26 C-16.78375 25.896875 -17.5675 25.79375 -18.375 25.6875 C-21 25 -21 25 -23 22 C-20.03 21.67 -17.06 21.34 -14 21 C-14 20.34 -14 19.68 -14 19 C-12.35 18.67 -10.7 18.34 -9 18 C-8.67 17.01 -8.34 16.02 -8 15 C-4.97772938 16.00742354 -4.11390767 16.79000562 -2 19 C-1.67 19 -1.34 19 -1 19 C-0.67 12.73 -0.34 6.46 0 0 Z " fill="#CCCECF" transform="translate(149,38)"/>
<path d="M0 0 C2.04470249 1.66736408 2.92566921 2.52497566 3.34057617 5.17651367 C3.32486572 5.99869385 3.30915527 6.82087402 3.29296875 7.66796875 C3.28330078 8.56064453 3.27363281 9.45332031 3.26367188 10.37304688 C3.23853516 11.30181641 3.21339844 12.23058594 3.1875 13.1875 C3.16719727 14.59805664 3.16719727 14.59805664 3.14648438 16.03710938 C3.11113096 18.35865038 3.06178674 20.67903653 3 23 C2.34 23.33 1.68 23.66 1 24 C0.01 23.34 -0.98 22.68 -2 22 C-2 21.34 -2 20.68 -2 20 C-3.98 20.66 -5.96 21.32 -8 22 C-7.34 20.02 -6.68 18.04 -6 16 C-7.35544922 16.05220703 -7.35544922 16.05220703 -8.73828125 16.10546875 C-9.91777344 16.13253906 -11.09726563 16.15960938 -12.3125 16.1875 C-13.48425781 16.22230469 -14.65601563 16.25710937 -15.86328125 16.29296875 C-19 16 -19 16 -20.73046875 14.61328125 C-21.14941406 14.08089844 -21.56835938 13.54851563 -22 13 C-22.99 12.34 -23.98 11.68 -25 11 C-18.73 11 -12.46 11 -6 11 C-6 8.69 -6 6.38 -6 4 C-5.01 3.34 -4.02 2.68 -3 2 C-2.01 2.33 -1.02 2.66 0 3 C0 2.01 0 1.02 0 0 Z " fill="#ECEEED" transform="translate(146,34)"/>
<path d="M0 0 C1.31538327 4.15771494 0.34433068 6.8879297 -1 11 C-0.2884375 11.6496875 -0.2884375 11.6496875 0.4375 12.3125 C2 14 2 14 3 17 C15.87 17.495 15.87 17.495 29 18 C29 18.33 29 18.66 29 19 C20.75 19 12.5 19 4 19 C3.01 21.97 2.02 24.94 1 28 C0.67 28.66 0.34 29.32 0 30 C-3.96 30 -7.92 30 -12 30 C-9.38481437 19.53925748 -4.62081028 9.70211368 0 0 Z " fill="#0AADAD" transform="translate(294,37)"/>
<path d="M0 0 C1.175625 0.556875 2.35125 1.11375 3.5625 1.6875 C3.8925 2.6775 4.2225 3.6675 4.5625 4.6875 C3.5725 4.6875 2.5825 4.6875 1.5625 4.6875 C1.5625 6.0075 1.5625 7.3275 1.5625 8.6875 C2.5525 9.0175 3.5425 9.3475 4.5625 9.6875 C3.5725 11.1725 3.5725 11.1725 2.5625 12.6875 C2.5625 12.0275 2.5625 11.3675 2.5625 10.6875 C1.9025 10.6875 1.2425 10.6875 0.5625 10.6875 C0.5625 10.0275 0.5625 9.3675 0.5625 8.6875 C-7.98584085 8.03843509 -7.98584085 8.03843509 -15.4375 11.6875 C-15.4375 11.0275 -15.4375 10.3675 -15.4375 9.6875 C-16.0975 9.3575 -16.7575 9.0275 -17.4375 8.6875 C-18.0625 6.625 -18.0625 6.625 -18.4375 4.6875 C-18.89125 5.161875 -19.345 5.63625 -19.8125 6.125 C-21.4375 7.6875 -21.4375 7.6875 -23.4375 8.6875 C-24.09305119 11.21483235 -24.09305119 11.21483235 -24.4375 13.6875 C-24.7675 13.6875 -25.0975 13.6875 -25.4375 13.6875 C-25.7675 17.9775 -26.0975 22.2675 -26.4375 26.6875 C-26.7675 26.6875 -27.0975 26.6875 -27.4375 26.6875 C-28.175541 10.75811503 -28.175541 10.75811503 -23.4375 4.6875 C-22.7775 4.6875 -22.1175 4.6875 -21.4375 4.6875 C-21.4375 4.0275 -21.4375 3.3675 -21.4375 2.6875 C-13.89281001 -1.22456148 -8.32046444 -2.78335821 0 0 Z " fill="#CFD3D4" transform="translate(227.4375,28.3125)"/>
<path d="M0 0 C3.63 0 7.26 0 11 0 C11 17.16 11 34.32 11 52 C7.04 52 3.08 52 -1 52 C-0.67 34.84 -0.34 17.68 0 0 Z M2 2 C1.67 17.84 1.34 33.68 1 50 C3.64 50 6.28 50 9 50 C10.10769731 25.98735697 10.10769731 25.98735697 9 2 C6.69 2 4.38 2 2 2 Z " fill="#199B9A" transform="translate(341,15)"/>
<path d="M0 0 C1.65 0 3.3 0 5 0 C3.02 0.99 3.02 0.99 1 2 C1.33 10.25 1.66 18.5 2 27 C2.66 26.67 3.32 26.34 4 26 C4.28875 26.639375 4.5775 27.27875 4.875 27.9375 C5.82823451 30.15206079 5.82823451 30.15206079 8 31 C8.33 30.01 8.66 29.02 9 28 C9 35.26 9 42.52 9 50 C6.03 50 3.06 50 0 50 C0 33.5 0 17 0 0 Z " fill="#F5F6F6" transform="translate(68,16)"/>
<path d="M0 0 C6.07390209 0.93269658 10.20759972 3.66630716 14.0859375 8.3203125 C16.02589502 12.22676191 16.32235363 15.37841064 16.28125 19.71484375 C16.27480469 20.91689453 16.26835938 22.11894531 16.26171875 23.35742188 C16.24496094 24.60330078 16.22820312 25.84917969 16.2109375 27.1328125 C16.20191406 28.39802734 16.19289063 29.66324219 16.18359375 30.96679688 C16.16006144 34.08482814 16.12718295 37.20247347 16.0859375 40.3203125 C12.7859375 40.3203125 9.4859375 40.3203125 6.0859375 40.3203125 C6.0859375 39.9903125 6.0859375 39.6603125 6.0859375 39.3203125 C9.0559375 39.3203125 12.0259375 39.3203125 15.0859375 39.3203125 C14.5909375 27.4403125 14.5909375 27.4403125 14.0859375 15.3203125 C13.4259375 14.9903125 12.7659375 14.6603125 12.0859375 14.3203125 C12.4159375 12.6703125 12.7459375 11.0203125 13.0859375 9.3203125 C11.7659375 8.9903125 10.4459375 8.6603125 9.0859375 8.3203125 C8.4259375 9.6403125 7.7659375 10.9603125 7.0859375 12.3203125 C6.4259375 12.3203125 5.7659375 12.3203125 5.0859375 12.3203125 C4.7559375 13.3103125 4.4259375 14.3003125 4.0859375 15.3203125 C4.0859375 14.3303125 4.0859375 13.3403125 4.0859375 12.3203125 C3.4259375 12.3203125 2.7659375 12.3203125 2.0859375 12.3203125 C2.0859375 11.6603125 2.0859375 11.0003125 2.0859375 10.3203125 C1.45945312 10.27132812 0.83296875 10.22234375 0.1875 10.171875 C-1.03839844 10.05972656 -1.03839844 10.05972656 -2.2890625 9.9453125 C-3.10117188 9.87570313 -3.91328125 9.80609375 -4.75 9.734375 C-6.9140625 9.3203125 -6.9140625 9.3203125 -8.9140625 7.3203125 C-8.5840625 6.6603125 -8.2540625 6.0003125 -7.9140625 5.3203125 C-8.5740625 4.9903125 -9.2340625 4.6603125 -9.9140625 4.3203125 C-7.04469459 0.49448862 -4.77546711 -0.26628999 0 0 Z " fill="#B9BCBD" transform="translate(91.9140625,26.6796875)"/>
<path d="M0 0 C0.66 0.33 1.32 0.66 2 1 C2.40729228 3.32156597 2.74438677 5.6568787 3 8 C2.34 8 1.68 8 1 8 C1.33 13.28 1.66 18.56 2 24 C1.34 24 0.68 24 0 24 C-0.33 24.99 -0.66 25.98 -1 27 C-2.98 27.33 -4.96 27.66 -7 28 C-8.23915102 24.28254693 -8.18407713 20.80876619 -8.1875 16.9375 C-8.19974609 16.20466797 -8.21199219 15.47183594 -8.22460938 14.71679688 C-8.22986299 12.80973493 -8.12218272 10.90315114 -8 9 C-7.34 8.34 -6.68 7.68 -6 7 C-5.67 6.01 -5.34 5.02 -5 4 C-3.66666667 3.66666667 -2.33333333 3.33333333 -1 3 C-0.67 2.01 -0.34 1.02 0 0 Z " fill="#F6F6F4" transform="translate(209,32)"/>
<path d="M0 0 C2.83439137 -0.10901505 5.66450203 -0.18777904 8.5 -0.25 C9.29148437 -0.28351562 10.08296875 -0.31703125 10.8984375 -0.3515625 C16.72915807 -0.44714808 21.17077797 0.62806674 26 4 C29.10103182 7.72123818 30 9.11353925 30 14 C28.20906809 14.08086147 26.41710372 14.13912702 24.625 14.1875 C23.12839844 14.23970703 23.12839844 14.23970703 21.6015625 14.29296875 C20.74304688 14.19628906 19.88453125 14.09960938 19 14 C18.34 13.01 17.68 12.02 17 11 C13.89188713 10.19458793 13.89188713 10.19458793 10.375 9.8125 C9.18648437 9.65394531 7.99796875 9.49539062 6.7734375 9.33203125 C5.85820313 9.22246094 4.94296875 9.11289062 4 9 C4 8.67 4 8.34 4 8 C7.3 8 10.6 8 14 8 C14 7.34 14 6.68 14 6 C14.66 6 15.32 6 16 6 C16.33 4.68 16.66 3.36 17 2 C11.39 1.67 5.78 1.34 0 1 C0 0.67 0 0.34 0 0 Z " fill="#ABAFB1" transform="translate(32,14)"/>
<path d="M0 0 C2 3.75 2 3.75 2 6 C1.34 6 0.68 6 0 6 C0.33 8.31 0.66 10.62 1 13 C2.65 12.67 4.3 12.34 6 12 C6.33 12.66 6.66 13.32 7 14 C6.06553465 16.03144641 5.06775224 18.03533587 4 20 C8.29 20.33 12.58 20.66 17 21 C17 21.33 17 21.66 17 22 C11.66666667 22 6.33333333 22 1 22 C1 23.32 1 24.64 1 26 C-0.75 26.6875 -0.75 26.6875 -3 27 C-5.25 25.5625 -5.25 25.5625 -7 24 C-5.39545758 15.73509284 -3.63969273 7.62602286 0 0 Z " fill="#08BCB7" transform="translate(299,25)"/>
<path d="M0 0 C0.86689453 -0.00773438 1.73378906 -0.01546875 2.62695312 -0.0234375 C3.45517578 -0.02085938 4.28339844 -0.01828125 5.13671875 -0.015625 C5.89041748 -0.01336914 6.64411621 -0.01111328 7.4206543 -0.00878906 C9.3125 0.25 9.3125 0.25 11.3125 2.25 C9.9375 3.75 9.9375 3.75 8.3125 5.25 C7.6525 5.25 6.9925 5.25 6.3125 5.25 C6.3125 5.91 6.3125 6.57 6.3125 7.25 C-0.1225 7.745 -0.1225 7.745 -6.6875 8.25 C-7.0175 7.59 -7.3475 6.93 -7.6875 6.25 C-8.3475 7.57 -9.0075 8.89 -9.6875 10.25 C-10.6775 9.92 -11.6675 9.59 -12.6875 9.25 C-13.875 5.6875 -13.875 5.6875 -14.6875 2.25 C-9.87745365 -0.24924058 -5.2816641 -0.04776185 0 0 Z " fill="#E2E5E4" transform="translate(39.6875,14.75)"/>
<path d="M0 0 C0.33 0 0.66 0 1 0 C1 17.16 1 34.32 1 52 C-2.63 52 -6.26 52 -10 52 C-10 51.34 -10 50.68 -10 50 C-10.8353125 50.495 -10.8353125 50.495 -11.6875 51 C-14.30284522 52.1309601 -16.1806646 52.15662974 -19 52 C-19 50.02 -19 48.04 -19 46 C-20.65 45.67 -22.3 45.34 -24 45 C-24 44.67 -24 44.34 -24 44 C-23.39671875 43.98582031 -22.7934375 43.97164062 -22.171875 43.95703125 C-18.19484225 43.7196922 -15.70581507 43.54700668 -12.5 41.0625 C-10.40885011 36.79306897 -10.18273616 32.70545621 -10 28 C-9.67 28 -9.34 28 -9 28 C-8.67 32.62 -8.34 37.24 -8 42 C-9.65 42.66 -11.3 43.32 -13 44 C-12.34 44.33 -11.68 44.66 -11 45 C-11 45.66 -11 46.32 -11 47 C-10.01 47.33 -9.02 47.66 -8 48 C-8 48.66 -8 49.32 -8 50 C-5.36 50.33 -2.72 50.66 0 51 C0 34.17 0 17.34 0 0 Z " fill="#737677" transform="translate(195,15)"/>
<path d="M0 0 C3.63 0 7.26 0 11 0 C11.433125 0.94875 11.86625 1.8975 12.3125 2.875 C13.79302201 6.20041937 13.79302201 6.20041937 17 8 C13.6828589 9.4216319 10.55780196 10.39009109 7 11 C7 11.66 7 12.32 7 13 C8.65 12.67 10.3 12.34 12 12 C11.67 12.99 11.34 13.98 11 15 C6.67998734 14.51999859 4.72677809 13.38496591 2 10 C0.05867507 6.21441639 0 4.47251067 0 0 Z " fill="#C1C4C4" transform="translate(16,50)"/>
<path d="M0 0 C3.39914975 1.13304992 4.05254451 2.12518475 6 5 C5.67 5.33 5.34 5.66 5 6 C5.66 6.33 6.32 6.66 7 7 C7.12375 6.38125 7.2475 5.7625 7.375 5.125 C8 3 8 3 10 1 C10 2.32 10 3.64 10 5 C10.66 5.33 11.32 5.66 12 6 C10.68 6 9.36 6 8 6 C7.34 7.98 6.68 9.96 6 12 C5.34 11.67 4.68 11.34 4 11 C1.96672915 11.8499169 1.96672915 11.8499169 0 13 C-0.99 13.495 -0.99 13.495 -2 14 C-2.65213292 16.02463255 -2.65213292 16.02463255 -3 18 C-1.68 18.33 -0.36 18.66 1 19 C0.67 19.66 0.34 20.32 0 21 C-3.875 19.25 -3.875 19.25 -5 17 C-6.03915592 7.91480828 -6.03915592 7.91480828 -3.8828125 3.94140625 C-2.5 2.3125 -2.5 2.3125 0 0 Z " fill="#DADCDA" transform="translate(23,18)"/>
<path d="M0 0 C1.65 0.33 3.3 0.66 5 1 C3.5 7 3.5 7 2 13 C1.34 13 0.68 13 0 13 C-0.2475 13.639375 -0.495 14.27875 -0.75 14.9375 C-2 17 -2 17 -4.0625 17.625 C-4.701875 17.74875 -5.34125 17.8725 -6 18 C-6.33 18.66 -6.66 19.32 -7 20 C-8.58493084 16.83013832 -8.2940042 13.45967739 -8 10 C-7 7.5 -7 7.5 -6 6 C-5.34 6 -4.68 6 -4 6 C-3.67 5.01 -3.34 4.02 -3 3 C-2.01 3.33 -1.02 3.66 0 4 C0 2.68 0 1.36 0 0 Z " fill="#EEEFED" transform="translate(162,31)"/>
<path d="M0 0 C0.66 0 1.32 0 2 0 C1.98839844 0.89203125 1.97679687 1.7840625 1.96484375 2.703125 C1.95582031 3.87359375 1.94679687 5.0440625 1.9375 6.25 C1.92589844 7.41015625 1.91429687 8.5703125 1.90234375 9.765625 C1.88993743 13.16366549 1.88993743 13.16366549 3 17 C7.29 17.66 11.58 18.32 16 19 C16 19.33 16 19.66 16 20 C15.21625 20.12375 14.4325 20.2475 13.625 20.375 C10.85942178 20.79117993 10.85942178 20.79117993 9 23 C8.01 23 7.02 23 6 23 C5.67 24.32 5.34 25.64 5 27 C3.35 27 1.7 27 0 27 C0 26.34 0 25.68 0 25 C-0.61875 24.9175 -1.2375 24.835 -1.875 24.75 C-4 24 -4 24 -5.25 21.9375 C-5.4975 21.298125 -5.745 20.65875 -6 20 C-5.34 20 -4.68 20 -4 20 C-3.67 19.34 -3.34 18.68 -3 18 C-0.9375 16.875 -0.9375 16.875 1 16 C0.67 15.34 0.34 14.68 0 14 C-0.07116382 11.62597499 -0.08409085 9.24999323 -0.0625 6.875 C-0.05347656 5.59367187 -0.04445312 4.31234375 -0.03515625 2.9921875 C-0.02355469 2.00476562 -0.01195312 1.01734375 0 0 Z " fill="#BCBFBF" transform="translate(210,40)"/>
<path d="M0 0 C0.33 0.99 0.66 1.98 1 3 C5.38996669 5.19498334 10.18352709 5.43807816 15 6 C14.34 6.66 13.68 7.32 13 8 C12.63557767 9.66014616 12.30027117 11.32706064 12 13 C11 14 11 14 8.85546875 14.01953125 C1.5789396 13.45488111 1.5789396 13.45488111 -1.625 10.9375 C-2.07875 10.298125 -2.5325 9.65875 -3 9 C-2.34 8.67 -1.68 8.34 -1 8 C-1.020625 7.05125 -1.04125 6.1025 -1.0625 5.125 C-1 2 -1 2 0 0 Z " fill="#F5F5F3" transform="translate(164,54)"/>
<path d="M0 0 C0.28875 0.639375 0.5775 1.27875 0.875 1.9375 C1.82823451 4.15206079 1.82823451 4.15206079 4 5 C4.62485037 14.09504429 4.62485037 14.09504429 2.1875 17.625 C0 19 0 19 -3 19 C-3 17.02 -3 15.04 -3 13 C-3.66 12.67 -4.32 12.34 -5 12 C-4.125 7.25 -4.125 7.25 -3 5 C-2.34 5 -1.68 5 -1 5 C-1.33 4.01 -1.66 3.02 -2 2 C-1.34 1.34 -0.68 0.68 0 0 Z M-4 19 C-3.67 19.66 -3.34 20.32 -3 21 C-3.66 20.67 -4.32 20.34 -5 20 C-4.67 19.67 -4.34 19.34 -4 19 Z " fill="#EFF1EF" transform="translate(58,43)"/>
<path d="M0 0 C0.8971875 1.1446875 0.8971875 1.1446875 1.8125 2.3125 C3.46959332 4.3483575 5.10297674 6.1978279 7 8 C5.68 10.31 4.36 12.62 3 15 C2.01 14.67 1.02 14.34 0 14 C0 13.34 0 12.68 0 12 C-1.32 12.33 -2.64 12.66 -4 13 C-4.33 12.01 -4.66 11.02 -5 10 C-5.66 9.67 -6.32 9.34 -7 9 C-6.8125 6.625 -6.8125 6.625 -6 4 C-3.5 2.8125 -3.5 2.8125 -1 2 C-0.67 1.34 -0.34 0.68 0 0 Z " fill="#DEE2E1" transform="translate(27,27)"/>
<path d="M0 0 C3.3 0 6.6 0 10 0 C9.33501617 4.38889325 7.81242323 7.9811485 6 12 C5.38125 11.195625 4.7625 10.39125 4.125 9.5625 C2.25835959 6.96125481 2.25835959 6.96125481 0 6 C-0.103125 6.556875 -0.20625 7.11375 -0.3125 7.6875 C-1 10 -1 10 -2.625 12.5 C-4.25110972 14.86953149 -4.25110972 14.86953149 -3.6875 17.3125 C-3.460625 17.869375 -3.23375 18.42625 -3 19 C-4.65 19.33 -6.3 19.66 -8 20 C-5.83836487 13.06001352 -3.1063786 6.56882431 0 0 Z " fill="#E0E3E4" transform="translate(277,29)"/>
<path d="M0 0 C2.12990108 0.6770155 2.12990108 0.6770155 4.25 -0.0625 C4.86875 -0.206875 5.4875 -0.35125 6.125 -0.5 C9.50496604 2.87996604 10.25 6.1387273 10.25 10.8125 C10.20875 12.029375 10.1675 13.24625 10.125 14.5 C7.815 14.83 5.505 15.16 3.125 15.5 C3.29 14.9225 3.455 14.345 3.625 13.75 C4.26962031 11.23335631 4.26962031 11.23335631 4.125 7.5 C3.3825 7.21125 2.64 6.9225 1.875 6.625 C-0.44239797 5.67697356 -2.65417115 4.65154089 -4.875 3.5 C-4.545 2.51 -4.215 1.52 -3.875 0.5 C-1.875 -0.5 -1.875 -0.5 0 0 Z " fill="#08BFBE" transform="translate(322.875,48.5)"/>
<path d="M0 0 C3.37895391 -0.28527753 6.63000704 -0.43413758 10 0 C12.57011048 2.64570197 12.94472502 4.17087525 13.1875 7.8125 C13.125625 8.534375 13.06375 9.25625 13 10 C10.25138797 10.78531772 8.21643937 11.03091991 5.375 10.625 C1.63455583 8.06574872 1.07687066 4.25495238 0 0 Z " fill="#E4E7E6" transform="translate(246,29)"/>
<path d="M0 0 C0.98484375 0.01804687 1.9696875 0.03609375 2.984375 0.0546875 C4.10585937 0.08949219 4.10585937 0.08949219 5.25 0.125 C4.25 3.125 4.25 3.125 2.25 5.125 C2.25 5.785 2.25 6.445 2.25 7.125 C1.59 7.125 0.93 7.125 0.25 7.125 C0.25 7.785 0.25 8.445 0.25 9.125 C-0.9565625 9.4653125 -0.9565625 9.4653125 -2.1875 9.8125 C-3.033125 10.245625 -3.87875 10.67875 -4.75 11.125 C-5.64386164 13.67275306 -5.64386164 13.67275306 -5.75 16.125 C-7.10714063 12.46072029 -6.27286834 10.61863912 -4.75 7.125 C-4.75 6.135 -4.75 5.145 -4.75 4.125 C-7.86785113 4.77144661 -7.86785113 4.77144661 -8.75 7.125 C-9.74 7.125 -10.73 7.125 -11.75 7.125 C-12.08 7.785 -12.41 8.445 -12.75 9.125 C-13.41 8.795 -14.07 8.465 -14.75 8.125 C-10.21652063 2.3322208 -7.6891235 -0.18307437 0 0 Z " fill="#EBEDEC" transform="translate(170.75,27.875)"/>
<path d="M0 0 C1.79068573 2.6860286 2.66055791 4.6626589 3.625 7.6875 C4.01558594 8.89986328 4.01558594 8.89986328 4.4140625 10.13671875 C4.60742188 10.75160156 4.80078125 11.36648437 5 12 C4.01 12.495 4.01 12.495 3 13 C1.68 11.68 0.36 10.36 -1 9 C-2.93798263 11.77260299 -2.93798263 11.77260299 -4 14 C-7.44216672 11.3401439 -7.99504674 8.09711714 -9 4 C-9.66 4 -10.32 4 -11 4 C-11.12375 4.94875 -11.2475 5.8975 -11.375 6.875 C-12 10 -12 10 -14 12 C-13.67 8.37 -13.34 4.74 -13 1 C-10.0625 1.8125 -10.0625 1.8125 -7 3 C-6.67 3.99 -6.34 4.98 -6 6 C-3.49034386 5.29660434 -3.49034386 5.29660434 -1 4 C-0.11306697 1.95894361 -0.11306697 1.95894361 0 0 Z " fill="#18A7A6" transform="translate(320,24)"/>
<path d="M0 0 C-0.33 1.98 -0.66 3.96 -1 6 C0.32 5.67 1.64 5.34 3 5 C3 5.66 3 6.32 3 7 C1.75539217 7.67667998 0.50403104 8.34094719 -0.75 9 C-1.44609375 9.37125 -2.1421875 9.7425 -2.859375 10.125 C-5 11 -5 11 -9 11 C-9 10.34 -9 9.68 -9 9 C-9.66 8.34 -10.32 7.68 -11 7 C-10.34 5.68 -9.68 4.36 -9 3 C-9.99 2.67 -10.98 2.34 -12 2 C-10.75579353 1.4654744 -9.50429064 0.94791389 -8.25 0.4375 C-7.55390625 0.14746094 -6.8578125 -0.14257812 -6.140625 -0.44140625 C-3.69987216 -1.07831803 -2.3596345 -0.80248831 0 0 Z M-2 6 C-2.33 6.66 -2.66 7.32 -3 8 C-2.34 8 -1.68 8 -1 8 C-1.33 7.34 -1.66 6.68 -2 6 Z " fill="#DDDFDF" transform="translate(56,56)"/>
<path d="M0 0 C3 2 3 2 3.51171875 3.9453125 C3.67447917 5.96354167 3.83723958 7.98177083 4 10 C3.34 10 2.68 10 2 10 C1.67 10.99 1.34 11.98 1 13 C-0.98 13.33 -2.96 13.66 -5 14 C-6.28317892 10.15046324 -6.06643637 7.05261865 -6 3 C-4.68 3.33 -3.36 3.66 -2 4 C-1.34 2.68 -0.68 1.36 0 0 Z " fill="#E7EAE9" transform="translate(207,46)"/>
<path d="M0 0 C1.31538327 4.15771494 0.34433068 6.8879297 -1 11 C-0.2884375 11.6496875 -0.2884375 11.6496875 0.4375 12.3125 C2 14 2 14 3 17 C15.87 17.495 15.87 17.495 29 18 C29 18.33 29 18.66 29 19 C20.75 19 12.5 19 4 19 C3.34 20.32 2.68 21.64 2 23 C2 21.68 2 20.36 2 19 C1.01 18.67 0.02 18.34 -1 18 C-1 17.34 -1 16.68 -1 16 C-2.65 16 -4.3 16 -6 16 C-5.23757784 12.38944909 -3.87526626 9.14165375 -2.4375 5.75 C-1.98246094 4.67234375 -1.52742188 3.5946875 -1.05859375 2.484375 C-0.70925781 1.66453125 -0.35992187 0.8446875 0 0 Z " fill="#0E8A8C" transform="translate(294,37)"/>
<path d="M0 0 C0.99 0 1.98 0 3 0 C4.8125 2.25 4.8125 2.25 6 5 C5.25 7.125 5.25 7.125 4 9 C3.67 9.99 3.34 10.98 3 12 C2.01 12 1.02 12 0 12 C0 14.31 0 16.62 0 19 C-1.98 18.67 -3.96 18.34 -6 18 C-6.33 17.01 -6.66 16.02 -7 15 C-5.68 14.34 -4.36 13.68 -3 13 C-3.2475 12.46375 -3.495 11.9275 -3.75 11.375 C-4.13211982 7.74486174 -2.03611558 5.89992219 0 3 C0 2.01 0 1.02 0 0 Z " fill="#F5F6F4" transform="translate(276,34)"/>
<path d="M0 0 C5.03985731 0.44469329 7.37634988 2.71343362 11 6 C10.67 6.99 10.34 7.98 10 9 C9.67 8.34 9.34 7.68 9 7 C8.67 7.66 8.34 8.32 8 9 C6.33499557 9.34153937 4.66821323 9.67449498 3 10 C2.34 10.66 1.68 11.32 1 12 C1 11.01 1 10.02 1 9 C-2.96 8.67 -6.92 8.34 -11 8 C-11 7.67 -11 7.34 -11 7 C-8.03 7 -5.06 7 -2 7 C-1.67 5.68 -1.34 4.36 -1 3 C-0.34 2.67 0.32 2.34 1 2 C0.67 1.34 0.34 0.68 0 0 Z " fill="#BEC2C2" transform="translate(138,28)"/>
<path d="M0 0 C0.33 0 0.66 0 1 0 C1 12.54 1 25.08 1 38 C-2.96 38 -6.92 38 -11 38 C-10.67 36.68 -10.34 35.36 -10 34 C-9.67 34.33 -9.34 34.66 -9 35 C-7.65252916 35.23075082 -6.29622435 35.41153063 -4.9375 35.5625 C-3.638125 35.706875 -2.33875 35.85125 -1 36 C-1.00523682 35.40687012 -1.01047363 34.81374023 -1.01586914 34.20263672 C-1.10341746 22.7504305 -1.09047353 11.41102662 0 0 Z " fill="#17898D" transform="translate(351,29)"/>
<path d="M0 0 C1.125 5.75 1.125 5.75 0 8 C-5.15171623 8.09038099 -9.91913204 7.84681133 -15 7 C-12.02325581 2.53488372 -12.02325581 2.53488372 -10 1 C-6.60130263 0.33239873 -3.46100022 0 0 0 Z " fill="#F5F5F4" transform="translate(47,59)"/>
<path d="M0 0 C1.65 0 3.3 0 5 0 C5 16.5 5 33 5 50 C2.69 49.67 0.38 49.34 -2 49 C-2 47.68 -2 46.36 -2 45 C-1.360625 44.855625 -0.72125 44.71125 -0.0625 44.5625 C1.97545146 44.18992819 1.97545146 44.18992819 3 43 C3.16041193 39.89914779 3.25963402 36.81812421 3.31640625 33.71484375 C3.33718735 32.78402481 3.35796844 31.85320587 3.37937927 30.8941803 C3.44497931 27.90869818 3.50380802 24.92312516 3.5625 21.9375 C3.6056753 19.91861024 3.64928925 17.8997298 3.69335938 15.88085938 C3.80067129 10.92066703 3.90190888 5.96038291 4 1 C2.68 0.67 1.36 0.34 0 0 Z " fill="#F8FCFD" transform="translate(236,16)"/>
<path d="M0 0 C0.6875 2.0625 0.6875 2.0625 1 4 C1.66 4 2.32 4 3 4 C3 4.66 3 5.32 3 6 C2.401875 6.144375 1.80375 6.28875 1.1875 6.4375 C-0.56150404 6.8872439 -2.28677023 7.42892341 -4 8 C-4 8.99 -4 9.98 -4 11 C-3.34 11.33 -2.68 11.66 -2 12 C-2.66 13.32 -3.32 14.64 -4 16 C-4.67154933 14.71086513 -5.33708859 13.41859796 -6 12.125 C-6.37125 11.40570313 -6.7425 10.68640625 -7.125 9.9453125 C-8 8 -8 8 -8 6 C-7.34 6 -6.68 6 -6 6 C-6.33 4.02 -6.66 2.04 -7 0 C-3.98968256 -0.93423645 -3.13349732 -1.04449911 0 0 Z " fill="#C7C8C9" transform="translate(265,48)"/>
<path d="M0 0 C3.64780666 4.1689219 6 9.44803736 6 15 C6.66 15.33 7.32 15.66 8 16 C7 17 7 17 4.49609375 17.09765625 C3.48675781 17.08605469 2.47742188 17.07445313 1.4375 17.0625 C0.42558594 17.05347656 -0.58632813 17.04445313 -1.62890625 17.03515625 C-2.41136719 17.02355469 -3.19382812 17.01195313 -4 17 C-4.66 15.68 -5.32 14.36 -6 13 C-2.535 12.505 -2.535 12.505 1 12 C1.08159574 7.83861737 0.98248524 4.0527516 0 0 Z " fill="#0DA09E" transform="translate(331,50)"/>
<path d="M0 0 C1.32 0 2.64 0 4 0 C4 1.32 4 2.64 4 4 C4.66 4 5.32 4 6 4 C7.6875 5.1875 7.6875 5.1875 9 7 C9 9.5625 9 9.5625 8 12 C5.4375 13.3125 5.4375 13.3125 3 14 C2.80664062 13.37351562 2.61328125 12.74703125 2.4140625 12.1015625 C2.15367187 11.28429688 1.89328125 10.46703125 1.625 9.625 C1.36976563 8.81289063 1.11453125 8.00078125 0.8515625 7.1640625 C0.10145717 4.83540815 0.10145717 4.83540815 -2 3 C-1.34 3 -0.68 3 0 3 C0 2.01 0 1.02 0 0 Z " fill="#09CBC3" transform="translate(311,17)"/>
<path d="M0 0 C0.78503906 0.00386719 1.57007813 0.00773438 2.37890625 0.01171875 C4.4375 0.3125 4.4375 0.3125 6.4375 2.3125 C5.0625 3.8125 5.0625 3.8125 3.4375 5.3125 C2.7775 5.3125 2.1175 5.3125 1.4375 5.3125 C1.4375 5.9725 1.4375 6.6325 1.4375 7.3125 C-1.2025 7.3125 -3.8425 7.3125 -6.5625 7.3125 C-7.25 5.5 -7.25 5.5 -7.5625 3.3125 C-5.34106268 0.30702598 -3.65308639 -0.07823744 0 0 Z " fill="#F7F8F6" transform="translate(44.5625,14.6875)"/>
<path d="M0 0 C1.32 0 2.64 0 4 0 C4 1.32 4 2.64 4 4 C4.99 4.66 5.98 5.32 7 6 C2.8803623 7.29243536 -0.66831683 8.26252625 -5 8 C-5.33 7.01 -5.66 6.02 -6 5 C-6.66 4.67 -7.32 4.34 -8 4 C-3.25 1 -3.25 1 -1 1 C-0.67 0.67 -0.34 0.34 0 0 Z " fill="#D2D6D5" transform="translate(221,60)"/>
<path d="M0 0 C0.33 0.66 0.66 1.32 1 2 C3.01669827 3.13350534 3.01669827 3.13350534 5 4 C4.01 4.495 4.01 4.495 3 5 C2.67 5.99 2.34 6.98 2 8 C-1.3 8 -4.6 8 -8 8 C-7.75 5.125 -7.75 5.125 -7 2 C-4.45285085 0.13209062 -3.19131 0 0 0 Z " fill="#E5E7E9" transform="translate(121,33)"/>
<path d="M0 0 C3.73487777 0.4979837 5.81237635 0.87491756 9 3 C9 3.66 9 4.32 9 5 C8.01 5 7.02 5 6 5 C6 6.32 6 7.64 6 9 C6.99 9.33 7.98 9.66 9 10 C8.01 11.485 8.01 11.485 7 13 C7 12.34 7 11.68 7 11 C6.34 11 5.68 11 5 11 C5 10.34 5 9.68 5 9 C2.03 8.67 -0.94 8.34 -4 8 C-4 7.67 -4 7.34 -4 7 C-2.35 7 -0.7 7 1 7 C0.67 4.69 0.34 2.38 0 0 Z " fill="#B6B9BB" transform="translate(223,28)"/>
<path d="M0 0 C0 0.66 0 1.32 0 2 C0.66 2 1.32 2 2 2 C1.67 2.99 1.34 3.98 1 5 C-3.55871658 6.01304813 -7.70164892 6.09124012 -12.328125 5.5625 C-13.12734375 5.47226562 -13.9265625 5.38203125 -14.75 5.2890625 C-15.575 5.19367187 -16.4 5.09828125 -17.25 5 C-18.09046875 4.90460937 -18.9309375 4.80921875 -19.796875 4.7109375 C-21.86481004 4.47594488 -23.93243631 4.23823779 -26 4 C-26 3.67 -26 3.34 -26 3 C-24.68644531 2.95101562 -23.37289063 2.90203125 -22.01953125 2.8515625 C-20.28383405 2.77650532 -18.54815797 2.70095877 -16.8125 2.625 C-15.94818359 2.5940625 -15.08386719 2.563125 -14.19335938 2.53125 C-9.28589279 2.30561935 -4.59560446 0 0 0 Z " fill="#12C5C2" transform="translate(327,44)"/>
<path d="M0 0 C5.61 0 11.22 0 17 0 C17 0.99 17 1.98 17 3 C14.58513057 5.41486943 13.87292211 5.2961925 10.5625 5.3125 C9.38880859 5.33763672 9.38880859 5.33763672 8.19140625 5.36328125 C5.48366196 4.91440385 4.77501785 4.0321235 3 2 C2.01 1.34 1.02 0.68 0 0 Z " fill="#F5F6F5" transform="translate(121,45)"/>
<path d="M0 0 C0.88945313 0.00644531 1.77890625 0.01289062 2.6953125 0.01953125 C3.61570313 0.03628906 4.53609375 0.05304687 5.484375 0.0703125 C6.42023438 0.07933594 7.35609375 0.08835938 8.3203125 0.09765625 C10.62526157 0.12117614 12.9296866 0.15404397 15.234375 0.1953125 C15.234375 0.5253125 15.234375 0.8553125 15.234375 1.1953125 C7.314375 1.6903125 7.314375 1.6903125 -0.765625 2.1953125 C-0.105625 2.8553125 0.554375 3.5153125 1.234375 4.1953125 C0.244375 4.5253125 -0.745625 4.8553125 -1.765625 5.1953125 C-2.095625 5.8553125 -2.425625 6.5153125 -2.765625 7.1953125 C-3.755625 7.6903125 -3.755625 7.6903125 -4.765625 8.1953125 C-4.765625 6.8753125 -4.765625 5.5553125 -4.765625 4.1953125 C-7.075625 5.5153125 -9.385625 6.8353125 -11.765625 8.1953125 C-11.435625 6.8753125 -11.105625 5.5553125 -10.765625 4.1953125 C-10.105625 4.1953125 -9.445625 4.1953125 -8.765625 4.1953125 C-8.765625 3.5353125 -8.765625 2.8753125 -8.765625 2.1953125 C-5.70405846 0.41862027 -3.52526285 -0.04519568 0 0 Z " fill="#CACECF" transform="translate(124.765625,43.8046875)"/>
<path d="M0 0 C6.11774896 -0.49940808 9.02495953 0.75099398 14 4 C14 4.66 14 5.32 14 6 C11.6568787 5.74438677 9.32156597 5.40729228 7 5 C6.67 4.34 6.34 3.68 6 3 C5.46375 3.350625 4.9275 3.70125 4.375 4.0625 C1.26725237 5.28924249 -0.79431703 4.72856431 -4 4 C-4 3.34 -4 2.68 -4 2 C-2.68 2.33 -1.36 2.66 0 3 C0 2.01 0 1.02 0 0 Z " fill="#F6F7F6" transform="translate(119,60)"/>
<path d="M0 0 C0.66 0 1.32 0 2 0 C1.98839844 0.89203125 1.97679687 1.7840625 1.96484375 2.703125 C1.95582031 3.87359375 1.94679687 5.0440625 1.9375 6.25 C1.92589844 7.41015625 1.91429687 8.5703125 1.90234375 9.765625 C1.98142662 13.48867145 1.98142662 13.48867145 3 17 C3.99 17.33 4.98 17.66 6 18 C4.25 19.125 4.25 19.125 2 20 C-0.25 19.125 -0.25 19.125 -2 18 C-1.67 17.34 -1.34 16.68 -1 16 C-0.34 16 0.32 16 1 16 C0.67 15.34 0.34 14.68 0 14 C-0.07116382 11.62597499 -0.08409085 9.24999323 -0.0625 6.875 C-0.05347656 5.59367187 -0.04445312 4.31234375 -0.03515625 2.9921875 C-0.02355469 2.00476562 -0.01195312 1.01734375 0 0 Z M-4 18 C-3.34 18.33 -2.68 18.66 -2 19 C-1.375 22.0625 -1.375 22.0625 -1 25 C-2.9375 24.1875 -2.9375 24.1875 -5 23 C-5.33 22.01 -5.66 21.02 -6 20 C-5.34 20 -4.68 20 -4 20 C-4 19.34 -4 18.68 -4 18 Z " fill="#CBCECF" transform="translate(210,40)"/>
<path d="M0 0 C0.433125 0.61875 0.86625 1.2375 1.3125 1.875 C2.99740483 4.2197245 2.99740483 4.2197245 6 6 C2.6828589 7.4216319 -0.44219804 8.39009109 -4 9 C-4 9.66 -4 10.32 -4 11 C-2.35 10.67 -0.7 10.34 1 10 C0.67 10.99 0.34 11.98 0 13 C-4.31392226 12.5206753 -6.16569547 11.2542015 -9 8 C-8.67 7.34 -8.34 6.68 -8 6 C-7.01 6.33 -6.02 6.66 -5 7 C-2.40494247 5.54982079 -1.22409548 4.65361183 -0.25 1.8125 C-0.1675 1.214375 -0.085 0.61625 0 0 Z " fill="#B1B4B7" transform="translate(27,52)"/>
<path d="M0 0 C1.2065625 0.0309375 1.2065625 0.0309375 2.4375 0.0625 C1.7775 0.7225 1.1175 1.3825 0.4375 2.0625 C0.07307767 3.72264616 -0.26222883 5.38956064 -0.5625 7.0625 C-0.8925 7.3925 -1.2225 7.7225 -1.5625 8.0625 C-3.21119317 8.02469927 -4.85844032 7.90779698 -6.5 7.75 C-7.84384766 7.63205078 -7.84384766 7.63205078 -9.21484375 7.51171875 C-11.5625 7.0625 -11.5625 7.0625 -13.5625 5.0625 C-10.27553767 4.26296862 -8.85226808 3.96591064 -5.5625 5.0625 C-5.253125 4.423125 -4.94375 3.78375 -4.625 3.125 C-3.05351796 0.07447605 -3.05351796 0.07447605 0 0 Z " fill="#DEE2E2" transform="translate(176.5625,59.9375)"/>
<path d="M0 0 C-0.59861742 2.35171131 -1.26924352 4.6859378 -2 7 C-2.99 7.495 -2.99 7.495 -4 8 C-4 7.34 -4 6.68 -4 6 C-5.98 6.99 -5.98 6.99 -8 8 C-8 5.36 -8 2.72 -8 0 C-4.71303767 -0.79953138 -3.28976808 -1.09658936 0 0 Z " fill="#0DC5C1" transform="translate(307,31)"/>
<path d="M0 0 C2 3 2 3 1.875 5.0625 C1 7 1 7 -0.8125 8.25 C-3 9 -3 9 -7 9 C-6.8125 6.625 -6.8125 6.625 -6 4 C-3.5 2.8125 -3.5 2.8125 -1 2 C-0.67 1.34 -0.34 0.68 0 0 Z " fill="#F4F6F4" transform="translate(27,27)"/>
<path d="M0 0 C3 1.6875 3 1.6875 6 4 C6.375 6.75 6.375 6.75 6 9 C2.71823412 9 0.89111788 8.52164099 -2 7 C-3 5.0625 -3 5.0625 -3 3 C-1.5625 1.25 -1.5625 1.25 0 0 Z " fill="#08C6C2" transform="translate(319,32)"/>
<path d="M0 0 C1.85776765 3.13498292 2.20140476 5.37471432 2 9 C2.66 9.33 3.32 9.66 4 10 C2.02 10.33 0.04 10.66 -2 11 C-2 10.34 -2 9.68 -2 9 C-2.66 8.34 -3.32 7.68 -4 7 C-3.34 5.68 -2.68 4.36 -2 3 C-2.99 2.67 -3.98 2.34 -5 2 C-3.35 1.34 -1.7 0.68 0 0 Z " fill="#C0C4C4" transform="translate(49,56)"/>
<path d="M0 0 C1.79068573 2.6860286 2.66055791 4.6626589 3.625 7.6875 C3.88539063 8.49574219 4.14578125 9.30398437 4.4140625 10.13671875 C4.60742188 10.75160156 4.80078125 11.36648437 5 12 C4.01 12.495 4.01 12.495 3 13 C2.401875 12.34 1.80375 11.68 1.1875 11 C-0.87501834 8.6626154 -0.87501834 8.6626154 -4 9 C-3.625 7.0625 -3.625 7.0625 -3 5 C-2.34 4.67 -1.68 4.34 -1 4 C-0.34786708 1.97536745 -0.34786708 1.97536745 0 0 Z " fill="#11ADA6" transform="translate(320,24)"/>
<path d="M0 0 C0.66 0.66 1.32 1.32 2 2 C1.34 3.65 0.68 5.3 0 7 C-3.96 7 -7.92 7 -12 7 C-11.67 5.68 -11.34 4.36 -11 3 C-10.67 3.66 -10.34 4.32 -10 5 C-6.64566891 4.05066101 -3.30753495 3.10251165 0 2 C0 1.34 0 0.68 0 0 Z " fill="#128082" transform="translate(294,60)"/>
<path d="M0 0 C1.0625 2.375 1.0625 2.375 2 5 C1.67 5.66 1.34 6.32 1 7 C-1.31 7 -3.62 7 -6 7 C-5.34 5.68 -4.68 4.36 -4 3 C-4.99 2.67 -5.98 2.34 -7 2 C-4 0 -4 0 0 0 Z " fill="#F7F8F7" transform="translate(223,28)"/>
<path d="M0 0 C2.40072955 2.88087546 4.47291037 5.56404834 6 9 C5 10 5 10 1.4375 10.0625 C0.303125 10.041875 -0.83125 10.02125 -2 10 C-1.34 8.68 -0.68 7.36 0 6 C-0.66 5.34 -1.32 4.68 -2 4 C-1.34 2.68 -0.68 1.36 0 0 Z " fill="#F4F6F3" transform="translate(260,70)"/>
<path d="M0 0 C1.32 0 2.64 0 4 0 C4.33 0.66 4.66 1.32 5 2 C4.06553465 4.03144641 3.06775224 6.03533587 2 8 C6.29 8.33 10.58 8.66 15 9 C15 9.33 15 9.66 15 10 C10.05 10 5.1 10 0 10 C0 6.7 0 3.4 0 0 Z " fill="#0B878A" transform="translate(301,37)"/>
<path d="M0 0 C0.33 0 0.66 0 1 0 C1 2.31 1 4.62 1 7 C1.66 7 2.32 7 3 7 C3.33 6.34 3.66 5.68 4 5 C4.99 5 5.98 5 7 5 C8 8 8 8 7 11 C5.68 10.67 4.36 10.34 3 10 C2.67 10.66 2.34 11.32 2 12 C-0.13586678 8.79619983 -0.23132175 7.98060033 -0.125 4.3125 C-0.10695313 3.50425781 -0.08890625 2.69601563 -0.0703125 1.86328125 C-0.04710938 1.24839844 -0.02390625 0.63351563 0 0 Z " fill="#D0D2D2" transform="translate(112,52)"/>
<path d="M0 0 C0.61875 0.474375 1.2375 0.94875 1.875 1.4375 C3.90705546 3.02417441 3.90705546 3.02417441 6 4 C6 4.99 6 5.98 6 7 C3.03 7 0.06 7 -3 7 C-2.25 2.25 -2.25 2.25 0 0 Z " fill="#F6F7F6" transform="translate(55,20)"/>
<path d="M0 0 C1 2 1 2 0.22265625 4.6015625 C-0.16019531 5.59929688 -0.54304688 6.59703125 -0.9375 7.625 C-1.31777344 8.62789062 -1.69804687 9.63078125 -2.08984375 10.6640625 C-2.39019531 11.43492188 -2.69054687 12.20578125 -3 13 C-3.66 12.67 -4.32 12.34 -5 12 C-5.40729228 9.67843403 -5.74438677 7.3431213 -6 5 C-5.01 4.34 -4.02 3.68 -3 3 C-2.67 3.33 -2.34 3.66 -2 4 C-1.67 3.34 -1.34 2.68 -1 2 C-1.66 1.67 -2.32 1.34 -3 1 C-2.01 0.67 -1.02 0.34 0 0 Z " fill="#C0C3C5" transform="translate(281,41)"/>
<path d="M0 0 C0.66 0 1.32 0 2 0 C4.84763523 2.84763523 5 5.03616548 5 9 C3.02 9 1.04 9 -1 9 C-0.835 8.071875 -0.67 7.14375 -0.5 6.1875 C0.07748388 3.04378647 0.07748388 3.04378647 0 0 Z " fill="#F7F8F7" transform="translate(45,37)"/>
<path d="M0 0 C3.96 0 7.92 0 12 0 C12 0.33 12 0.66 12 1 C8.37 1 4.74 1 1 1 C1 2.32 1 3.64 1 5 C1.66 5.33 2.32 5.66 3 6 C1.37660195 7.70884005 -0.29319053 9.37446717 -2 11 C-2.66 11 -3.32 11 -4 11 C-3.52269162 9.5410574 -3.04308958 8.08286504 -2.5625 6.625 C-2.29566406 5.81289063 -2.02882813 5.00078125 -1.75390625 4.1640625 C-1 2 -1 2 0 0 Z " fill="#0F8180" transform="translate(304,14)"/>
<path d="M0 0 C2 3 2 3 2 6 C2.66 6.33 3.32 6.66 4 7 C3 8 3 8 0.49609375 8.09765625 C-1.01791016 8.08025391 -1.01791016 8.08025391 -2.5625 8.0625 C-3.57441406 8.05347656 -4.58632813 8.04445313 -5.62890625 8.03515625 C-6.41136719 8.02355469 -7.19382812 8.01195313 -8 8 C-8.66 6.68 -9.32 5.36 -10 4 C-9.01 4.33 -8.02 4.66 -7 5 C-4.66700175 5.03954234 -2.33291811 5.04401732 0 5 C0 3.35 0 1.7 0 0 Z " fill="#116D72" transform="translate(335,59)"/>
<path d="M0 0 C1.98 0 3.96 0 6 0 C6.33 0.66 6.66 1.32 7 2 C6.34 2 5.68 2 5 2 C4.67 2.99 4.34 3.98 4 5 C2.35 5.33 0.7 5.66 -1 6 C-1.66 5.01 -2.32 4.02 -3 3 C-2.34 3 -1.68 3 -1 3 C-0.67 2.01 -0.34 1.02 0 0 Z " fill="#F5F7F5" transform="translate(226,59)"/>
<path d="M0 0 C0.12375 0.639375 0.2475 1.27875 0.375 1.9375 C0.58125 2.618125 0.7875 3.29875 1 4 C1.66 4.33 2.32 4.66 3 5 C1.68 5 0.36 5 -1 5 C-1.66 6.98 -2.32 8.96 -3 11 C-3.66 10.67 -4.32 10.34 -5 10 C-5.99 10.495 -5.99 10.495 -7 11 C-7.33 9.35 -7.66 7.7 -8 6 C-5.50907189 4.75453595 -4.58919267 5.2232422 -2 6 C-1.855625 5.38125 -1.71125 4.7625 -1.5625 4.125 C-1 2 -1 2 0 0 Z " fill="#C6C8C9" transform="translate(32,19)"/>
<path d="M0 0 C1.25 1.5625 1.25 1.5625 2 4 C1.11154118 5.88633375 0.02161954 7.56357664 -1.10546875 9.31640625 C-2.22403392 11.04454815 -2.22403392 11.04454815 -1.75 13.4375 C-1.5025 13.953125 -1.255 14.46875 -1 15 C-2.65 15.33 -4.3 15.66 -6 16 C-4.25192871 10.53262809 -2.34205919 5.24175152 0 0 Z " fill="#9AA0A4" transform="translate(275,33)"/>
<path d="M0 0 C3.3 0 6.6 0 10 0 C9.67 1.32 9.34 2.64 9 4 C8.67 3.34 8.34 2.68 8 2 C6.35 2 4.7 2 3 2 C3.66 2.66 4.32 3.32 5 4 C3.35 4.66 1.7 5.32 0 6 C-1.125 2.25 -1.125 2.25 0 0 Z " fill="#C7CCCF" transform="translate(277,29)"/>
<path d="M0 0 C0 4 0 4 -1 7 C-1.99 6.67 -2.98 6.34 -4 6 C-5.1875 2.9375 -5.1875 2.9375 -6 0 C-3.50907189 -1.24546405 -2.58919267 -0.7767578 0 0 Z " fill="#F8F8F7" transform="translate(31,18)"/>
<path d="M0 0 C1.32 0.66 2.64 1.32 4 2 C3.01 3.32 2.02 4.64 1 6 C5.64586892 5.51515724 5.64586892 5.51515724 10 4 C9.67 4.99 9.34 5.98 9 7 C5.37 7 1.74 7 -2 7 C-1.34 4.69 -0.68 2.38 0 0 Z " fill="#969C9F" transform="translate(257,74)"/>
<path d="M0 0 C0.33 0 0.66 0 1 0 C1 4.95 1 9.9 1 15 C0.01 15.495 0.01 15.495 -1 16 C-1.99 15.01 -2.98 14.02 -4 13 C-3.34 12.01 -2.68 11.02 -2 10 C-1.34 10 -0.68 10 0 10 C0 6.7 0 3.4 0 0 Z " fill="#F7F7F6" transform="translate(148,42)"/>
<path d="M0 0 C2.475 0.99 2.475 0.99 5 2 C5.33 4.31 5.66 6.62 6 9 C5.01 9 4.02 9 3 9 C0.87491756 5.81237635 0.4979837 3.73487777 0 0 Z " fill="#12AAA5" transform="translate(322,54)"/>
<path d="M0 0 C0.33 0 0.66 0 1 0 C1.33 4.62 1.66 9.24 2 14 C-0.31 14.66 -2.62 15.32 -5 16 C-4.360625 15.21625 -3.72125 14.4325 -3.0625 13.625 C-0.21991345 9.44649822 -0.19460806 4.92358402 0 0 Z " fill="#6B7179" transform="translate(185,43)"/>
<path d="M0 0 C2.97 0 5.94 0 9 0 C8.34 1.65 7.68 3.3 7 5 C4.69 4.34 2.38 3.68 0 3 C0 2.01 0 1.02 0 0 Z " fill="#F5F7F7" transform="translate(17,51)"/>
<path d="M0 0 C2.31 0 4.62 0 7 0 C5.70700306 2.88437779 4.34058637 4.87219421 2 7 C0.4375 5.1875 0.4375 5.1875 -1 3 C-0.67 2.01 -0.34 1.02 0 0 Z " fill="#F4F5F3" transform="translate(208,59)"/>
<path d="M0 0 C0.66 0 1.32 0 2 0 C1.98839844 0.89203125 1.97679687 1.7840625 1.96484375 2.703125 C1.95582031 3.87359375 1.94679687 5.0440625 1.9375 6.25 C1.92589844 7.41015625 1.91429687 8.5703125 1.90234375 9.765625 C1.98245385 12.41887145 2.06503546 14.53028234 3 17 C3.66 17.33 4.32 17.66 5 18 C3.35 17.67 1.7 17.34 0 17 C0 11.39 0 5.78 0 0 Z " fill="#7E8387" transform="translate(210,40)"/>
<path d="M0 0 C0.625 1.8125 0.625 1.8125 1 4 C0.01 5.485 0.01 5.485 -1 7 C-1.4603764 10.19806665 -1.4603764 10.19806665 -1.625 13.6875 C-1.69976562 14.86699219 -1.77453125 16.04648437 -1.8515625 17.26171875 C-1.92503906 18.61716797 -1.92503906 18.61716797 -2 20 C-2.33 20 -2.66 20 -3 20 C-3.08139142 17.60347472 -3.14067009 15.20974564 -3.1875 12.8125 C-3.22520508 11.80219727 -3.22520508 11.80219727 -3.26367188 10.77148438 C-3.32923478 6.29135252 -2.66743649 3.60559001 0 0 Z " fill="#8C9199" transform="translate(203,35)"/>
<path d="M0 0 C0.99 0.66 1.98 1.32 3 2 C3 3.32 3 4.64 3 6 C1.35 6 -0.3 6 -2 6 C-2 5.34 -2 4.68 -2 4 C-2.66 3.67 -3.32 3.34 -4 3 C-2.68 2.01 -1.36 1.02 0 0 Z " fill="#F7F7F4" transform="translate(217,61)"/>
<path d="M0 0 C0.33 0 0.66 0 1 0 C1 1.98 1 3.96 1 6 C-0.98 6 -2.96 6 -5 6 C-5 4.68 -5 3.36 -5 2 C-4.360625 1.855625 -3.72125 1.71125 -3.0625 1.5625 C-1.02454854 1.18992819 -1.02454854 1.18992819 0 0 Z " fill="#F5F6F3" transform="translate(239,59)"/>
<path d="M0 0 C0.33 1.32 0.66 2.64 1 4 C0.34 4 -0.32 4 -1 4 C-1 4.99 -1 5.98 -1 7 C-0.34 7 0.32 7 1 7 C0.67 7.66 0.34 8.32 0 9 C-0.99 9.33 -1.98 9.66 -3 10 C-3.36923077 3.47692308 -3.36923077 3.47692308 -1.5 1.0625 C-1.005 0.711875 -0.51 0.36125 0 0 Z " fill="#F2F5F6" transform="translate(116,49)"/>
<path d="M0 0 C2.31 0.33 4.62 0.66 7 1 C6.67 2.65 6.34 4.3 6 6 C3.5625 5.25 3.5625 5.25 1 4 C0.1875 1.875 0.1875 1.875 0 0 Z " fill="#D0D2D2" transform="translate(47,37)"/>
<path d="M0 0 C0.99 0.33 1.98 0.66 3 1 C1.68 3.31 0.36 5.62 -1 8 C-1.66 8 -2.32 8 -3 8 C-2.74438677 5.6568787 -2.40729228 3.32156597 -2 1 C-1.34 0.67 -0.68 0.34 0 0 Z " fill="#F5F6F3" transform="translate(31,34)"/>
<path d="M0 0 C1.98 0.495 1.98 0.495 4 1 C4 1.66 4 2.32 4 3 C3.34 3 2.68 3 2 3 C1.87625 3.94875 1.7525 4.8975 1.625 5.875 C1 9 1 9 -1 11 C-0.67 7.37 -0.34 3.74 0 0 Z " fill="#12938E" transform="translate(307,25)"/>
<path d="M0 0 C0 0.66 0 1.32 0 2 C-0.66 2.66 -1.32 3.32 -2 4 C-2.33 4.66 -2.66 5.32 -3 6 C-3.99 6 -4.98 6 -6 6 C-6.33 6.66 -6.66 7.32 -7 8 C-7.66 7.67 -8.32 7.34 -9 7 C-3.34042553 0 -3.34042553 0 0 0 Z " fill="#9B9DA1" transform="translate(165,29)"/>
<path d="M0 0 C2.475 0.495 2.475 0.495 5 1 C4.38722388 3.96175123 3.74627478 5.38058783 2 8 C2 6.68 2 5.36 2 4 C1.34 4 0.68 4 0 4 C0 2.68 0 1.36 0 0 Z " fill="#F8F8F6" transform="translate(162,31)"/>
<path d="M0 0 C3.63 0.33 7.26 0.66 11 1 C11 1.33 11 1.66 11 2 C9.906875 2.103125 8.81375 2.20625 7.6875 2.3125 C4.14440371 2.97307727 3.06756277 3.2027092 1 6 C0 1.125 0 1.125 0 0 Z " fill="#D3D4D4" transform="translate(33,58)"/>
<path d="M0 0 C1.32 0.33 2.64 0.66 4 1 C4 2.65 4 4.3 4 6 C1.03 5.505 1.03 5.505 -2 5 C-1.34 3.35 -0.68 1.7 0 0 Z " fill="#0DBEBB" transform="translate(292,55)"/>
<path d="M0 0 C1.32 0 2.64 0 4 0 C4 0.99 4 1.98 4 3 C5.98 3 7.96 3 10 3 C10 3.33 10 3.66 10 4 C6.7 4 3.4 4 0 4 C0 2.68 0 1.36 0 0 Z " fill="#90979C" transform="translate(113,37)"/>
<path d="M0 0 C0.33 0 0.66 0 1 0 C1 2.64 1 5.28 1 8 C-1.97 8 -4.94 8 -8 8 C-8 7.67 -8 7.34 -8 7 C-4.535 6.505 -4.535 6.505 -1 6 C-0.67 4.02 -0.34 2.04 0 0 Z " fill="#EAEDF1" transform="translate(194,58)"/>
<path d="M0 0 C1.65 0.33 3.3 0.66 5 1 C3.625 2.5 3.625 2.5 2 4 C1.34 4 0.68 4 0 4 C-0.33 5.65 -0.66 7.3 -1 9 C-2.0326802 6.21176345 -2.04509293 5.1322726 -1.0625 2.25 C-0.711875 1.5075 -0.36125 0.765 0 0 Z " fill="#ABAFB3" transform="translate(166,35)"/>
<path d="M0 0 C0.66 0.33 1.32 0.66 2 1 C-0.46153846 5.8 -0.46153846 5.8 -3.1875 6.8125 C-3.785625 6.874375 -4.38375 6.93625 -5 7 C-5 6.01 -5 5.02 -5 4 C-4.34 4 -3.68 4 -3 4 C-3 3.34 -3 2.68 -3 2 C-2.01 1.34 -1.02 0.68 0 0 Z " fill="#B0B3B3" transform="translate(209,29)"/>
<path d="M0 0 C0.99 0.33 1.98 0.66 3 1 C2.67 2.65 2.34 4.3 2 6 C3.32 6.33 4.64 6.66 6 7 C5.67 7.66 5.34 8.32 5 9 C3.0625 8.4375 3.0625 8.4375 1 7 C0.25 3.375 0.25 3.375 0 0 Z " fill="#A2A8AB" transform="translate(18,30)"/>
<path d="M0 0 C1.99097846 2.98646769 2.94124926 5.59687262 4 9 C3.01 9 2.02 9 1 9 C1 8.01 1 7.02 1 6 C0.34 6 -0.32 6 -1 6 C-0.67 4.02 -0.34 2.04 0 0 Z " fill="#158F8F" transform="translate(316,15)"/>
<path d="M0 0 C2.64 0 5.28 0 8 0 C7.67 0.66 7.34 1.32 7 2 C4.4375 2.625 4.4375 2.625 2 3 C1.67 4.98 1.34 6.96 1 9 C0.67 9 0.34 9 0 9 C0 6.03 0 3.06 0 0 Z " fill="#F7FBFD" transform="translate(186,16)"/>
<path d="M0 0 C0.66 0 1.32 0 2 0 C5.07692308 5.41538462 5.07692308 5.41538462 4.6875 8.375 C4.460625 8.91125 4.23375 9.4475 4 10 C3.34 9.67 2.68 9.34 2 9 C2.33 7.35 2.66 5.7 3 4 C2.01 3.67 1.02 3.34 0 3 C0 2.01 0 1.02 0 0 Z " fill="#AFB5B8" transform="translate(102,32)"/>
<path d="M0 0 C2 3.75 2 3.75 2 6 C1.34 6 0.68 6 0 6 C0.33 6.99 0.66 7.98 1 9 C0.01 9.495 0.01 9.495 -1 10 C-2.23076923 4.58461538 -2.23076923 4.58461538 -1.0625 1.625 C-0.5365625 0.820625 -0.5365625 0.820625 0 0 Z " fill="#119491" transform="translate(299,25)"/>
<path d="M0 0 C0.103125 0.639375 0.20625 1.27875 0.3125 1.9375 C0.539375 2.618125 0.76625 3.29875 1 4 C1.99 4.33 2.98 4.66 4 5 C4 7.31 4 9.62 4 12 C0.46209597 8.30827405 0.40884117 4.90609405 0 0 Z " fill="#B7BABC" transform="translate(154,49)"/>
<path d="M0 0 C3.3 0 6.6 0 10 0 C10.33 0.66 10.66 1.32 11 2 C8.03 2 5.06 2 2 2 C1.67 2.99 1.34 3.98 1 5 C0.67 3.35 0.34 1.7 0 0 Z " fill="#A8AFB5" transform="translate(246,29)"/>
<path d="M0 0 C0.66 1.32 1.32 2.64 2 4 C1.34 4 0.68 4 0 4 C-0.33 3.01 -0.66 2.02 -1 1 C-0.67 0.67 -0.34 0.34 0 0 Z M-3 2 C-1.515 2.99 -1.515 2.99 0 4 C-0.33 4.99 -0.66 5.98 -1 7 C-1.99 6.34 -2.98 5.68 -4 5 C-3.67 4.01 -3.34 3.02 -3 2 Z " fill="#F4F6F3" transform="translate(209,52)"/>
<path d="M0 0 C2 2 2 2 2.125 4.625 C2.08375 5.40875 2.0425 6.1925 2 7 C0.68 7 -0.64 7 -2 7 C-1.125 2.25 -1.125 2.25 0 0 Z " fill="#01BABB" transform="translate(331,56)"/>
<path d="M0 0 C0.66 0.33 1.32 0.66 2 1 C0.37660195 2.70884005 -1.29319053 4.37446717 -3 6 C-3.66 6 -4.32 6 -5 6 C-3.63016497 2.83884224 -3.0109362 2.0072908 0 0 Z " fill="#A0A5A9" transform="translate(120,29)"/>
</svg>
