<?xml version="1.0" encoding="UTF-8"?>
<svg version="1.1" xmlns="http://www.w3.org/2000/svg" width="276" height="235">
<path d="M0 0 C0 0.66 0 1.32 0 2 C0.58265625 2.268125 1.1653125 2.53625 1.765625 2.8125 C12.74608974 8.64827147 20.1505219 20.43941528 26 31 C26.36867187 31.64324219 26.73734375 32.28648438 27.1171875 32.94921875 C34.19031474 46.02627958 36.32005643 60.87249393 36.265625 75.52734375 C36.26753845 76.67868301 36.2694519 77.83002228 36.27142334 79.01625061 C36.27277503 81.42888612 36.26915022 83.84152915 36.26074219 86.25415039 C36.24995917 89.95149879 36.26070749 93.64836894 36.2734375 97.34570312 C36.27211707 99.69791774 36.2695571 102.05013205 36.265625 104.40234375 C36.26967346 105.50650131 36.27372192 106.61065887 36.27789307 107.74827576 C36.26843658 109.28621544 36.26843658 109.28621544 36.25878906 110.85522461 C36.25719788 111.75470322 36.25560669 112.65418182 36.25396729 113.58091736 C35.98450932 116.14755146 35.29630975 117.78843638 34 120 C33.34 120 32.68 120 32 120 C32 120.66 32 121.32 32 122 C27.47149462 123.76722161 23.83577293 124.09200044 19 124 C19.02094727 124.6391333 19.04189453 125.2782666 19.06347656 125.93676758 C19.84002951 153.19230163 19.84002951 153.19230163 11.375 162.1875 C8.35831382 165 8.35831382 165 6 165 C6 165.66 6 166.32 6 167 C-4.12138899 173.02196579 -20.37278567 171.31564923 -31.7902832 171.26074219 C-34.43138649 171.25002481 -37.07180779 171.26070585 -39.71289062 171.2734375 C-53.44837001 171.28623396 -67.72160013 171.1203176 -80.8125 166.5 C-81.46541016 166.28730469 -82.11832031 166.07460937 -82.79101562 165.85546875 C-85.99934525 164.78929601 -88.99835032 163.54588425 -92 162 C-96.58934507 161.10762735 -99.13393794 163.15561376 -102.8046875 165.59375 C-105.69976657 167.44824905 -108.72409832 168.90293757 -111.81640625 170.3984375 C-114.46257797 171.72964045 -117.05650567 173.11391682 -119.65234375 174.5390625 C-120.48918701 174.99385986 -121.32603027 175.44865723 -122.18823242 175.91723633 C-123.87214421 176.83437689 -125.55090614 177.76104854 -127.22387695 178.69799805 C-131.58034321 181.05435094 -134.90185588 182.83665862 -140 182 C-142.35378126 179.64621874 -142.33207751 179.13314036 -142.40625 175.91796875 C-142.24945118 168.12702737 -139.68870454 160.72814434 -137.5 153.3125 C-136.85157753 151.09959514 -136.20732485 148.88580607 -135.57409668 146.66850281 C-135.18262637 145.29899813 -134.7825557 143.93191001 -134.37219238 142.56794739 C-132.70649428 136.76365236 -131.95924446 132.03525528 -134.7578125 126.5625 C-135.53535365 125.36742442 -136.32502385 124.18017543 -137.125 123 C-149.42013549 103.74416489 -153.95554762 80.96125829 -150.3125 58.3125 C-149.91157011 56.53303037 -149.47030464 54.76240475 -149 53 C-148.69320312 51.7934375 -148.38640625 50.586875 -148.0703125 49.34375 C-143.60498641 32.93660108 -135.02076042 19.00271123 -123 7 C-122.01 6.67 -121.02 6.34 -120 6 C-120 5.34 -120 4.68 -120 4 C-85.62538198 -25.37955634 -36.53809396 -24.35872931 0 0 Z M-68.7890625 -5.984375 C-85.63733816 -5.17380504 -102.78220789 4.87073622 -115 16 C-115 16.66 -115 17.32 -115 18 C-115.66 18 -116.32 18 -117 18 C-123.21364004 24.45647195 -127.79781142 32.14233615 -132 40 C-132.60328125 41.12341797 -132.60328125 41.12341797 -133.21875 42.26953125 C-136.43499825 48.83603809 -137.64605663 55.85945788 -139 63 C-139.28037109 64.28003906 -139.28037109 64.28003906 -139.56640625 65.5859375 C-143.0703091 85.09415339 -134.54610858 104.52562822 -125 121 C-124.32130859 121.94746094 -124.32130859 121.94746094 -123.62890625 122.9140625 C-120.29070568 127.60371451 -120.70927873 131.85708294 -121.30859375 137.3203125 C-122.20883651 142.11143499 -123.57578928 146.66864317 -125.18334961 151.26733398 C-126.7852226 155.89648043 -127.52673881 160.15445082 -128 165 C-121.85407482 162.87418341 -116.3868039 160.16457023 -110.75 156.9375 C-109.18266917 156.05011416 -107.61497348 155.16337237 -106.046875 154.27734375 C-105.36463867 153.88796631 -104.68240234 153.49858887 -103.97949219 153.09741211 C-103.32625977 152.73526611 -102.67302734 152.37312012 -102 152 C-100.99743164 151.42862305 -100.99743164 151.42862305 -99.97460938 150.84570312 C-93.51985002 148.08120184 -84.04088594 152.70875069 -77.7734375 154.74023438 C-67.42137767 157.98936219 -57.25749821 159.31083794 -46.42578125 159.30078125 C-45.37649948 159.30506638 -44.32721771 159.3093515 -43.24613953 159.31376648 C-41.04878455 159.31946141 -38.85141074 159.3200462 -36.65405273 159.31567383 C-33.31005722 159.31249768 -29.96693455 159.33609031 -26.62304688 159.36132812 C-24.47395944 159.36360015 -22.32486965 159.36430506 -20.17578125 159.36328125 C-18.6942028 159.37709587 -18.6942028 159.37709587 -17.18269348 159.39118958 C-9.65289258 159.34137934 -2.98880827 158.48007495 2.9375 153.5625 C6.42575563 149.22860664 7.24036919 146.46831301 7.23828125 140.87890625 C7.25439453 139.69619141 7.27050781 138.51347656 7.28710938 137.29492188 C7.30400953 134.8105989 7.30925504 132.32616878 7.30273438 129.84179688 C7.45559577 120.78352622 7.45559577 120.78352622 10.25 116.76171875 C12.76709964 115.14920179 14.82022288 114.048359 17.6875 113.25 C20.92017061 112.3229242 20.92017061 112.3229242 24 111 C24.09893328 105.5190965 24.17149865 100.03871355 24.21972656 94.55712891 C24.23983261 92.69277899 24.2671218 90.82849206 24.30175781 88.96435547 C24.35032121 86.28337052 24.37297838 83.60321977 24.390625 80.921875 C24.41127014 80.08944275 24.43191528 79.2570105 24.45318604 78.39935303 C24.46252438 73.57539912 24.46252438 73.57539912 22.10058594 69.44238281 C20.14989843 67.81131432 20.14989843 67.81131432 18 68 C18 67.34 18 66.68 18 66 C17.175 65.505 16.35 65.01 15.5 64.5 C13 62 13 62 12.66796875 59.515625 C12.68577443 56.99434069 12.78429956 54.51171175 13 52 C15.64 52.33 18.28 52.66 21 53 C19.72705588 47.13395856 17.88139871 42.19310754 15.125 36.875 C14.78597656 36.19824219 14.44695312 35.52148438 14.09765625 34.82421875 C11.98981276 30.6806633 9.77944551 26.7330628 7 23 C6.34 23 5.68 23 5 23 C5 22.34 5 21.68 5 21 C4.34 21 3.68 21 3 21 C3 20.34 3 19.68 3 19 C2.34 19 1.68 19 1 19 C1 18.34 1 17.68 1 17 C0.34 17 -0.32 17 -1 17 C-1.33 16.01 -1.66 15.02 -2 14 C-2.66 14 -3.32 14 -4 14 C-4 13.34 -4 12.68 -4 12 C-21.87727121 -4.61957374 -45.8861288 -6.11268275 -68.7890625 -5.984375 Z " fill="#05879B" transform="translate(203,37)"/>
<path d="M0 0 C0.98502502 -0.0066568 1.97005005 -0.0133136 2.98492432 -0.02017212 C5.06252181 -0.03026193 7.14015147 -0.03499028 9.21777344 -0.03466797 C12.36709115 -0.0390299 15.51499326 -0.07535846 18.6640625 -0.11328125 C31.34530782 -0.18507507 43.21178453 -0.2457877 52.84765625 9.19140625 C61.25211312 19.24379584 61.3879506 28.88051076 60.640625 41.3359375 C59.1997224 41.10635973 57.76285485 40.85137396 56.328125 40.5859375 C55.52761719 40.44671875 54.72710937 40.3075 53.90234375 40.1640625 C51.00303223 39.10248384 50.16608808 37.99619629 48.640625 35.3359375 C47.91015625 32.8984375 47.91015625 32.8984375 47.453125 30.3359375 C47.29457031 29.4903125 47.13601562 28.6446875 46.97265625 27.7734375 C46.640625 25.3359375 46.640625 25.3359375 46.640625 21.3359375 C45.980625 21.3359375 45.320625 21.3359375 44.640625 21.3359375 C44.125 20.5728125 43.609375 19.8096875 43.078125 19.0234375 C38.94982433 14.47172138 33.20133927 13.24648445 27.16577148 12.94775391 C25.6145387 12.92830667 24.0630266 12.92544592 22.51171875 12.9375 C21.67778091 12.93462982 20.84384308 12.93175964 19.9846344 12.92880249 C18.23592442 12.92677645 16.487191 12.93220315 14.73852539 12.94482422 C12.08102238 12.96091995 9.42503513 12.94491553 6.76757812 12.92578125 C5.05728835 12.92776354 3.34699952 12.93160694 1.63671875 12.9375 C0.85316513 12.93142731 0.06961151 12.92535461 -0.73768616 12.9190979 C-7.45597037 13.003676 -12.9806252 14.31917136 -18.234375 18.7734375 C-21.77100424 23.03819629 -22.623423 25.76881025 -22.546875 31.3359375 C-22.54042969 32.3671875 -22.53398438 33.3984375 -22.52734375 34.4609375 C-22.38387292 36.91662432 -22.0639791 38.99101505 -21.359375 41.3359375 C-20.699375 41.3359375 -20.039375 41.3359375 -19.359375 41.3359375 C-19.359375 41.9959375 -19.359375 42.6559375 -19.359375 43.3359375 C-16.81853165 43.73763896 -14.27694633 44.13287862 -11.734375 44.5234375 C-10.88568848 44.65435791 -10.03700195 44.78527832 -9.16259766 44.92016602 C-2.76006417 45.8839824 3.65207945 46.72057693 10.078125 47.5078125 C11.76874759 47.71826383 13.45933979 47.9289595 15.14990234 48.13989258 C17.69345346 48.45723825 20.23710909 48.77010125 22.78302002 49.06796265 C35.97030444 50.61276625 47.13395762 52.23510341 56.640625 62.3359375 C62.86917906 70.36749405 63.55161317 78.43727335 62.640625 88.3359375 C61.71441375 91.6349683 60.40177377 94.40667985 58.640625 97.3359375 C58.28226562 97.95597656 57.92390625 98.57601562 57.5546875 99.21484375 C56.515625 100.8984375 56.515625 100.8984375 54.640625 103.3359375 C53.980625 103.3359375 53.320625 103.3359375 52.640625 103.3359375 C52.640625 103.9959375 52.640625 104.6559375 52.640625 105.3359375 C51.18258331 106.14896075 49.72418185 106.96133881 48.265625 107.7734375 C47.45351562 108.22589844 46.64140625 108.67835938 45.8046875 109.14453125 C42.27666749 111.08685274 40.27162531 111.47308952 36.21630859 111.51293945 C35.08107758 111.52577469 33.94584656 111.53860992 32.7762146 111.55183411 C31.54295441 111.55922104 30.30969421 111.56660797 29.0390625 111.57421875 C27.14071152 111.58632637 27.14071152 111.58632637 25.20401001 111.59867859 C22.5189446 111.61253277 19.8340025 111.62354412 17.14892578 111.63110352 C13.72593244 111.64212651 10.30359666 111.67647498 6.88083458 111.71627522 C3.60030966 111.74888108 0.31972474 111.75323363 -2.9609375 111.76171875 C-4.18205231 111.77922684 -5.40316711 111.79673492 -6.6612854 111.81477356 C-13.74639971 111.79681395 -18.31996876 111.10292074 -24.359375 107.3359375 C-25.225625 106.7996875 -26.091875 106.2634375 -26.984375 105.7109375 C-34.78312872 97.91218378 -37.42940934 89.01922317 -37.484375 78.2734375 C-37.45276348 76.62738034 -37.41473525 74.98136714 -37.359375 73.3359375 C-30.734375 73.2109375 -30.734375 73.2109375 -27.359375 74.3359375 C-27.359375 74.9959375 -27.359375 75.6559375 -27.359375 76.3359375 C-26.699375 76.3359375 -26.039375 76.3359375 -25.359375 76.3359375 C-24.1783959 79.56394705 -23.35193589 82.4053692 -22.984375 85.8359375 C-22.1112064 90.72568164 -20.0183064 93.83253092 -16.359375 97.1484375 C-12.97968076 99.15513096 -9.78211025 99.4624964 -5.90136719 99.49707031 C-4.58915192 99.51148163 -4.58915192 99.51148163 -3.25042725 99.52618408 C-1.84255951 99.5325589 -1.84255951 99.5325589 -0.40625 99.5390625 C0.56793884 99.54476257 1.54212769 99.55046265 2.5458374 99.55633545 C4.60688189 99.56577484 6.66794141 99.57231522 8.72900391 99.57617188 C11.86518051 99.58585891 15.00069638 99.616885 18.13671875 99.6484375 C20.14322529 99.65496996 22.1497365 99.66021948 24.15625 99.6640625 C25.55197235 99.6825827 25.55197235 99.6825827 26.97589111 99.70147705 C34.18897248 99.67708364 39.94691692 98.73685123 45.515625 93.7734375 C48.93589519 89.07347439 50.10280691 83.47591565 49.26171875 77.76171875 C48.31247439 74.38435714 48.31247439 74.38435714 46.640625 71.3359375 C37.14052749 66.88286397 25.55588728 66.82580417 15.265625 65.8359375 C-20.746241 62.34968239 -20.746241 62.34968239 -29.359375 53.3359375 C-36.17421958 43.5977334 -37.36388284 33.95029175 -35.359375 22.3359375 C-33.07417774 14.93388551 -27.46890057 7.97121144 -20.859375 3.9609375 C-13.74525429 0.65795289 -7.75608098 0.01845135 0 0 Z " fill="#06B2B3" transform="translate(133.359375,55.6640625)"/>
<path d="M0 0 C0 0.66 0 1.32 0 2 C0.58265625 2.268125 1.1653125 2.53625 1.765625 2.8125 C12.74608974 8.64827147 20.1505219 20.43941528 26 31 C26.36867187 31.64324219 26.73734375 32.28648438 27.1171875 32.94921875 C34.19031474 46.02627958 36.32005643 60.87249393 36.265625 75.52734375 C36.26753845 76.67868301 36.2694519 77.83002228 36.27142334 79.01625061 C36.27277503 81.42888612 36.26915022 83.84152915 36.26074219 86.25415039 C36.24995917 89.95149879 36.26070749 93.64836894 36.2734375 97.34570312 C36.27211707 99.69791774 36.2695571 102.05013205 36.265625 104.40234375 C36.26967346 105.50650131 36.27372192 106.61065887 36.27789307 107.74827576 C36.26843658 109.28621544 36.26843658 109.28621544 36.25878906 110.85522461 C36.25719788 111.75470322 36.25560669 112.65418182 36.25396729 113.58091736 C35.98450932 116.14755146 35.29630975 117.78843638 34 120 C33.34 120 32.68 120 32 120 C32 120.66 32 121.32 32 122 C29.125 122.125 29.125 122.125 26 122 C25.34 121.34 24.68 120.68 24 120 C24.27734375 117.43359375 24.27734375 117.43359375 24.9375 114.4375 C25.32942073 112.63278716 25.69307389 110.8210949 26 109 C25.67 108.67 25.34 108.34 25 108 C24.85388124 106.2770791 24.77260616 104.54857945 24.71875 102.8203125 C24.66267578 101.20769531 24.66267578 101.20769531 24.60546875 99.5625 C24.57066406 98.428125 24.53585938 97.29375 24.5 96.125 C24.29566256 89.69215461 24.07616416 83.26107653 23.62890625 76.83984375 C23.57033447 75.96706787 23.5117627 75.09429199 23.45141602 74.19506836 C23.14244099 71.67249844 23.14244099 71.67249844 20.4375 69.4375 C19.633125 68.963125 18.82875 68.48875 18 68 C18 67.34 18 66.68 18 66 C17.38125 65.71125 16.7625 65.4225 16.125 65.125 C14 64 14 64 12 62 C11.76953125 60.125 11.76953125 60.125 11.8125 58 C11.82216797 56.948125 11.82216797 56.948125 11.83203125 55.875 C12 54 12 54 13 52 C15.31 52 17.62 52 20 52 C18.24308969 43.59914149 14.2488 36.75489563 9.9609375 29.44140625 C8 26 8 26 7 23 C6.34 23 5.68 23 5 23 C5 22.34 5 21.68 5 21 C4.34 21 3.68 21 3 21 C3 20.34 3 19.68 3 19 C2.34 19 1.68 19 1 19 C1 18.34 1 17.68 1 17 C0.34 17 -0.32 17 -1 17 C-2.625 15.625 -2.625 15.625 -4 14 C-4 13.34 -4 12.68 -4 12 C-4.56976563 11.72671875 -5.13953125 11.4534375 -5.7265625 11.171875 C-8.03691407 9.98097213 -10.1810806 8.64272699 -12.375 7.25 C-29.76504009 -3.26131312 -46.24743207 -5.36278278 -66 -5 C-67.38058594 -4.99226563 -67.38058594 -4.99226563 -68.7890625 -4.984375 C-84.67338334 -4.22018087 -101.96054287 4.83187787 -113 16 C-113.66 16 -114.32 16 -115 16 C-115 16.66 -115 17.32 -115 18 C-115.66 18 -116.32 18 -117 18 C-117.25910156 18.56589844 -117.51820312 19.13179687 -117.78515625 19.71484375 C-119.120718 22.22707405 -120.67882623 24.32728237 -122.4375 26.5625 C-123.03433594 27.32691406 -123.63117188 28.09132812 -124.24609375 28.87890625 C-125.76131474 30.711345 -127.20809838 32.43770137 -129 34 C-129.66 34 -130.32 34 -131 34 C-131 34.99 -131 35.98 -131 37 C-131.66 37 -132.32 37 -133 37 C-133 37.99 -133 38.98 -133 40 C-133.66 40 -134.32 40 -135 40 C-135.99 44.95 -135.99 44.95 -137 50 C-141.455 50.99 -141.455 50.99 -146 52 C-144.23300971 44.42718447 -144.23300971 44.42718447 -142.875 41.9375 C-141.76096496 39.86150531 -141.76096496 39.86150531 -142.15234375 36.76171875 C-141.7896923 27.80701754 -133.76512009 19.42749809 -128.1875 12.75 C-127.71981201 12.18909668 -127.25212402 11.62819336 -126.77026367 11.05029297 C-124.55226607 8.48191662 -123.27850472 7.09283491 -120 6 C-120 5.34 -120 4.68 -120 4 C-85.62538198 -25.37955634 -36.53809396 -24.35872931 0 0 Z " fill="#0CBDB9" transform="translate(203,37)"/>
<path d="M0 0 C0.33 0 0.66 0 1 0 C1.33 6.6 1.66 13.2 2 20 C2.33 20 2.66 20 3 20 C3.19539882 24.68957179 3.1821256 28.85439525 1.8125 33.375 C1.544375 34.57125 1.27625 35.7675 1 37 C2.2106557 39.05004839 2.2106557 39.05004839 4 40 C1.04335481 41.4783226 -1.74229737 41.06032783 -5 41 C-4.9685791 41.95869995 -4.9685791 41.95869995 -4.93652344 42.93676758 C-4.15997049 70.19230163 -4.15997049 70.19230163 -12.625 79.1875 C-15.64168618 82 -15.64168618 82 -18 82 C-18 82.66 -18 83.32 -18 84 C-28.27670329 90.10454426 -44.87271157 88.34380055 -56.44946289 88.31567383 C-59.22254913 88.31245937 -61.99461871 88.336272 -64.76757812 88.36132812 C-66.54687367 88.36359676 -68.32617205 88.36430665 -70.10546875 88.36328125 C-70.9262944 88.372491 -71.74712006 88.38170074 -72.59281921 88.39118958 C-77.32359957 88.35286246 -80.02499596 87.79522504 -84 85 C-86.82927297 84.71340983 -86.82927297 84.71340983 -89.6875 84.9375 C-92.57421875 85.08984375 -92.57421875 85.08984375 -95 85 C-95.66 84.34 -96.32 83.68 -97 83 C-97.99 82.34 -98.98 81.68 -100 81 C-99.505 80.01 -99.505 80.01 -99 79 C-98.01 79 -97.02 79 -96 79 C-95.67 78.01 -95.34 77.02 -95 76 C-94.24324478 75.99413376 -93.48648956 75.98826752 -92.70680237 75.98222351 C-85.542627 75.92409612 -78.37879149 75.85190658 -71.214921 75.76428509 C-67.53270763 75.71973405 -63.85060101 75.68044545 -60.16821289 75.65356445 C-56.6083109 75.6273776 -53.04882313 75.58686971 -49.48917961 75.53681374 C-47.48373205 75.51223744 -45.47812371 75.50214022 -43.47254944 75.49235535 C-35.56057657 75.36611805 -27.97122809 75.1566172 -21.5625 70.0625 C-18.4483557 65.95182953 -17.75520321 63.05939193 -17.7265625 57.87890625 C-17.7059375 56.69619141 -17.6853125 55.51347656 -17.6640625 54.29492188 C-17.63806244 51.81061605 -17.61980826 49.32621685 -17.609375 46.84179688 C-17.58617187 45.65779297 -17.56296875 44.47378906 -17.5390625 43.25390625 C-17.53084473 42.17439697 -17.52262695 41.0948877 -17.51416016 39.98266602 C-16.87768294 36.2904333 -15.60346847 34.65280534 -13 32 C-8.48802894 29.66045945 -5.10280044 28.85046674 0 28 C0 18.76 0 9.52 0 0 Z " fill="#059AA8" transform="translate(227,120)"/>
<path d="M0 0 C4.61587794 4.27200164 6.66914208 9.15986323 7.39453125 15.38671875 C7.61232189 22.8480646 6.85912089 28.58125812 3 35 C2.64164062 35.62003906 2.28328125 36.24007812 1.9140625 36.87890625 C0.875 38.5625 0.875 38.5625 -1 41 C-1.66 41 -2.32 41 -3 41 C-3 41.66 -3 42.32 -3 43 C-4.45804169 43.81302325 -5.91644315 44.62540131 -7.375 45.4375 C-8.18710938 45.88996094 -8.99921875 46.34242188 -9.8359375 46.80859375 C-13.36395751 48.75091524 -15.36899969 49.13715202 -19.42431641 49.17700195 C-20.55954742 49.18983719 -21.69477844 49.20267242 -22.8644104 49.21589661 C-24.09767059 49.22328354 -25.33093079 49.23067047 -26.6015625 49.23828125 C-28.49991348 49.25038887 -28.49991348 49.25038887 -30.43661499 49.26274109 C-33.1216804 49.27659527 -35.8066225 49.28760662 -38.49169922 49.29516602 C-41.91469256 49.30618901 -45.33702834 49.34053748 -48.75979042 49.38033772 C-52.04031534 49.41294358 -55.32090026 49.41729613 -58.6015625 49.42578125 C-59.82267731 49.44328934 -61.04379211 49.46079742 -62.3019104 49.47883606 C-69.38702471 49.46087645 -73.96059376 48.76698324 -80 45 C-80.86625 44.46375 -81.7325 43.9275 -82.625 43.375 C-90.42375372 35.57624628 -93.07003434 26.68328567 -93.125 15.9375 C-93.09338848 14.29144284 -93.05536025 12.64542964 -93 11 C-86.375 10.875 -86.375 10.875 -83 12 C-83 12.66 -83 13.32 -83 14 C-82.34 14 -81.68 14 -81 14 C-79.8190209 17.22800955 -78.99256089 20.0694317 -78.625 23.5 C-77.7518314 28.38974414 -75.6589314 31.49659342 -72 34.8125 C-68.62030576 36.81919346 -65.42273525 37.1265589 -61.54199219 37.16113281 C-60.66718201 37.17074036 -59.79237183 37.1803479 -58.89105225 37.19024658 C-57.95247375 37.19449646 -57.01389526 37.19874634 -56.046875 37.203125 C-55.07268616 37.20882507 -54.09849731 37.21452515 -53.0947876 37.22039795 C-51.03374311 37.22983734 -48.97268359 37.23637772 -46.91162109 37.24023438 C-43.77544449 37.24992141 -40.63992862 37.2809475 -37.50390625 37.3125 C-35.49739971 37.31903246 -33.4908885 37.32428198 -31.484375 37.328125 C-30.08865265 37.3466452 -30.08865265 37.3466452 -28.66473389 37.36553955 C-21.40408735 37.34098529 -15.57236442 36.46052249 -10.125 31.25 C-7.80842545 27.70700362 -6.90017569 25.09170766 -6 21 C-5.67 21 -5.34 21 -5 21 C-5 22.98 -5 24.96 -5 27 C-4.34 27 -3.68 27 -3 27 C-2.505 26.34 -2.01 25.68 -1.5 25 C-1.005 24.34 -0.51 23.68 0 23 C0.66 23 1.32 23 2 23 C1.01 21.515 1.01 21.515 0 20 C-0.3125 16.9375 -0.3125 16.9375 0 14 C0.99 13.34 1.98 12.68 3 12 C2.65555119 9.52733235 2.65555119 9.52733235 2 7 C1.01 6.505 1.01 6.505 0 6 C0 4.02 0 2.04 0 0 Z " fill="#06A2A8" transform="translate(189,118)"/>
<path d="M0 0 C0.88522339 -0.01283524 1.77044678 -0.02567047 2.68249512 -0.03889465 C3.63869751 -0.04628159 4.5948999 -0.05366852 5.58007812 -0.0612793 C6.57076294 -0.06935104 7.56144775 -0.07742279 8.58215332 -0.08573914 C10.68365736 -0.09957786 12.78518386 -0.11030096 14.88671875 -0.11816406 C18.07141079 -0.13528347 21.25503906 -0.1791607 24.43945312 -0.22338867 C26.48632053 -0.23352436 28.53319673 -0.24203771 30.58007812 -0.2487793 C31.52008667 -0.26628738 32.46009521 -0.28379547 33.42858887 -0.30183411 C42.89667566 -0.2714098 51.92191711 2.27822312 58.81835938 9.0324707 C67.22281625 19.0848603 67.35865373 28.72157521 66.61132812 41.17700195 C65.17042553 40.94742418 63.73355797 40.69243842 62.29882812 40.42700195 C61.49832031 40.2877832 60.6978125 40.14856445 59.87304688 40.00512695 C56.97373535 38.9435483 56.13679121 37.83726075 54.61132812 35.17700195 C53.88085938 32.73950195 53.88085938 32.73950195 53.42382812 30.17700195 C53.26527344 29.33137695 53.10671875 28.48575195 52.94335938 27.61450195 C52.61132812 25.17700195 52.61132812 25.17700195 52.61132812 21.17700195 C51.95132813 21.17700195 51.29132813 21.17700195 50.61132812 21.17700195 C50.09570312 20.41387695 49.58007812 19.65075195 49.04882812 18.86450195 C45.30570678 14.73747073 40.63481008 13.47492583 35.13583374 12.93307495 C32.50056368 12.86524389 29.88337936 12.89087822 27.24804688 12.9543457 C25.81643974 12.96782799 25.81643974 12.96782799 24.35591125 12.98158264 C21.33649587 13.01136613 18.31791243 13.06117147 15.29882812 13.11450195 C12.26195372 13.16238548 9.22528188 13.20567322 6.18818665 13.23670959 C4.30604224 13.25642037 2.42396868 13.28599644 0.54216003 13.3266449 C-0.73518257 13.3413961 -0.73518257 13.3413961 -2.03833008 13.35644531 C-3.15677055 13.37668007 -3.15677055 13.37668007 -4.29780579 13.39732361 C-6.69792912 13.14441447 -8.30731959 12.36790824 -10.38867188 11.17700195 C-11.37867187 12.66200195 -11.37867187 12.66200195 -12.38867188 14.17700195 C-14.38867188 13.17700195 -14.38867188 13.17700195 -15.07617188 11.42700195 C-15.47795297 8.5341781 -15.50913917 6.90814099 -14.38867188 4.17700195 C-9.6944446 1.74295818 -5.28617168 0.06694347 0 0 Z " fill="#09BEB9" transform="translate(127.388671875,55.822998046875)"/>
<path d="M0 0 C-7.28571429 3.42857143 -7.28571429 3.42857143 -12 3 C-12 3.66 -12 4.32 -12 5 C-12.99 5 -13.98 5 -15 5 C-15.33 6.65 -15.66 8.3 -16 10 C-16.66 10 -17.32 10 -18 10 C-17.505 11.485 -17.505 11.485 -17 13 C-16.01 13 -15.02 13 -14 13 C-13.67 12.01 -13.34 11.02 -13 10 C-10.69 10.66 -8.38 11.32 -6 12 C-6 12.33 -6 12.66 -6 13 C-6.87398437 13.22042969 -6.87398437 13.22042969 -7.765625 13.4453125 C-19.15913464 16.56240476 -31.31768627 22.09652223 -39.65234375 30.70703125 C-41 32 -41 32 -43 32 C-43 32.66 -43 33.32 -43 34 C-43.66 34 -44.32 34 -45 34 C-45.25910156 34.56589844 -45.51820312 35.13179687 -45.78515625 35.71484375 C-47.120718 38.22707405 -48.67882623 40.32728237 -50.4375 42.5625 C-51.03433594 43.32691406 -51.63117188 44.09132812 -52.24609375 44.87890625 C-53.76131474 46.711345 -55.20809838 48.43770137 -57 50 C-57.66 50 -58.32 50 -59 50 C-59 50.99 -59 51.98 -59 53 C-59.66 53 -60.32 53 -61 53 C-61 53.99 -61 54.98 -61 56 C-61.66 56 -62.32 56 -63 56 C-63.66 59.3 -64.32 62.6 -65 66 C-69.455 66.99 -69.455 66.99 -74 68 C-72.23300971 60.42718447 -72.23300971 60.42718447 -70.875 57.9375 C-69.76096496 55.86150531 -69.76096496 55.86150531 -70.15234375 52.76171875 C-69.7896923 43.80701754 -61.76512009 35.42749809 -56.1875 28.75 C-55.71981201 28.18909668 -55.25212402 27.62819336 -54.77026367 27.05029297 C-52.55226607 24.48191662 -51.27850472 23.09283491 -48 22 C-48 21.34 -48 20.68 -48 20 C-38.10670414 11.5443237 -13.6050227 -5.01932876 0 0 Z " fill="#05B1B2" transform="translate(131,21)"/>
<path d="M0 0 C0 3.52407935 -1.26696219 5.50054369 -2.8515625 8.57421875 C-11.45361073 26.74385124 -12.32990516 46.81928797 -5.6875 65.73828125 C-4.81501309 67.96659298 -3.9180178 70.1855861 -2.98828125 72.390625 C-2 75 -2 75 -2 78 C-3.175625 78.4640625 -3.175625 78.4640625 -4.375 78.9375 C-6.92330128 79.92875038 -6.92330128 79.92875038 -9 81 C-9.495 78.525 -9.495 78.525 -10 76 C-11.3921875 75.7215625 -11.3921875 75.7215625 -12.8125 75.4375 C-16 74 -16 74 -17.75 70.875 C-18.19976819 69.59448352 -18.61565456 68.3016499 -19 67 C-19.29003906 66.04867187 -19.29003906 66.04867187 -19.5859375 65.078125 C-24.44921903 47.45753974 -22.65609505 28.63399091 -17.5625 11.375 C-17.35729736 10.66255127 -17.15209473 9.95010254 -16.94067383 9.21606445 C-16.31640625 7.2109375 -16.31640625 7.2109375 -15 4 C-14.01 3.67 -13.02 3.34 -12 3 C-12.65690619 6.78239671 -13.720131 10.21841526 -15.0625 13.8125 C-15.42472656 14.78832031 -15.78695312 15.76414062 -16.16015625 16.76953125 C-16.43730469 17.50558594 -16.71445312 18.24164063 -17 19 C-16.2575 18.67 -15.515 18.34 -14.75 18 C-12 17 -12 17 -8 17 C-8 14.69 -8 12.38 -8 10 C-7.34 10 -6.68 10 -6 10 C-6 9.01 -6 8.02 -6 7 C-5.34 7 -4.68 7 -4 7 C-4 6.01 -4 5.02 -4 4 C-3.34 4 -2.68 4 -2 4 C-2 3.01 -2 2.02 -2 1 C-1.34 0.67 -0.68 0.34 0 0 Z " fill="#079FA8" transform="translate(74,70)"/>
<path d="M0 0 C1.98 0.99 3.96 1.98 6 3 C6 3.66 6 4.32 6 5 C6.58265625 5.268125 7.1653125 5.53625 7.765625 5.8125 C18.74608974 11.64827147 26.1505219 23.43941528 32 34 C32.36867187 34.64324219 32.73734375 35.28648438 33.1171875 35.94921875 C38.16827928 45.28786518 40.57693942 55.44463865 41 66 C38 64 38 64 37.26953125 61.5390625 C37.11871094 60.57742187 36.96789062 59.61578125 36.8125 58.625 C36.57466797 57.19027344 36.57466797 57.19027344 36.33203125 55.7265625 C36 53 36 53 36 49 C35.34 49 34.68 49 34 49 C33.67 49.99 33.34 50.98 33 52 C30.9375 52.6875 30.9375 52.6875 29 53 C29 54.65 29 56.3 29 58 C26.69 58 24.38 58 22 58 C22.33 59.32 22.66 60.64 23 62 C22.34 62 21.68 62 21 62 C21 63.32 21 64.64 21 66 C22.32 66 23.64 66 25 66 C25.66 66.99 26.32 67.98 27 69 C28.32 69 29.64 69 31 69 C31 70.65 31 72.3 31 74 C27.47967572 74 26.5614657 73.29648649 24 71 C24 70.34 24 69.68 24 69 C23.38125 68.71125 22.7625 68.4225 22.125 68.125 C20 67 20 67 18 65 C17.76953125 63.125 17.76953125 63.125 17.8125 61 C17.81894531 60.29875 17.82539063 59.5975 17.83203125 58.875 C18 57 18 57 19 55 C21.31 55 23.62 55 26 55 C24.24308969 46.59914149 20.2488 39.75489563 15.9609375 32.44140625 C14 29 14 29 13 26 C12.34 26 11.68 26 11 26 C11 25.34 11 24.68 11 24 C10.34 24 9.68 24 9 24 C9 23.34 9 22.68 9 22 C8.34 22 7.68 22 7 22 C7 21.34 7 20.68 7 20 C6.34 20 5.68 20 5 20 C3.375 18.625 3.375 18.625 2 17 C2 16.34 2 15.68 2 15 C1.071875 14.566875 1.071875 14.566875 0.125 14.125 C-2 13 -2 13 -4 11 C-1.36 11 1.28 11 4 11 C4 11.66 4 12.32 4 13 C4.99 12.67 5.98 12.34 7 12 C7 10.02 7 8.04 7 6 C6.360625 5.896875 5.72125 5.79375 5.0625 5.6875 C4.381875 5.460625 3.70125 5.23375 3 5 C2.67 4.01 2.34 3.02 2 2 C1.34 2 0.68 2 0 2 C0 1.34 0 0.68 0 0 Z " fill="#09C7C1" transform="translate(197,34)"/>
<path d="M0 0 C-7.28571429 3.42857143 -7.28571429 3.42857143 -12 3 C-12 3.66 -12 4.32 -12 5 C-12.99 5 -13.98 5 -15 5 C-15.33 6.65 -15.66 8.3 -16 10 C-16.66 10 -17.32 10 -18 10 C-17.505 11.485 -17.505 11.485 -17 13 C-16.01 13 -15.02 13 -14 13 C-13.67 12.01 -13.34 11.02 -13 10 C-10.69 10.66 -8.38 11.32 -6 12 C-6 12.33 -6 12.66 -6 13 C-6.87398437 13.22042969 -6.87398437 13.22042969 -7.765625 13.4453125 C-19.15913464 16.56240476 -31.31768627 22.09652223 -39.65234375 30.70703125 C-41 32 -41 32 -43 32 C-43.33 32.66 -43.66 33.32 -44 34 C-44.88229454 28.26508549 -42.50103025 25.23061188 -39.3125 20.7578125 C-38.879375 20.17773438 -38.44625 19.59765625 -38 19 C-36.35 19.33 -34.7 19.66 -33 20 C-32.67 19.01 -32.34 18.02 -32 17 C-30.35 16.67 -28.7 16.34 -27 16 C-27 15.01 -27 14.02 -27 13 C-30.96 13.99 -34.92 14.98 -39 16 C-38.67 16.66 -38.34 17.32 -38 18 C-38.66 18.66 -39.32 19.32 -40 20 C-40.66 20.99 -41.32 21.98 -42 23 C-45.625 23.1875 -45.625 23.1875 -49 23 C-49 23.99 -49 24.98 -49 26 C-50.32 25.67 -51.64 25.34 -53 25 C-51.625 23.5 -51.625 23.5 -50 22 C-49.34 22 -48.68 22 -48 22 C-48 21.34 -48 20.68 -48 20 C-38.10670414 11.5443237 -13.6050227 -5.01932876 0 0 Z " fill="#0BBEB8" transform="translate(131,21)"/>
<path d="M0 0 C5.42050568 0.3387816 9.17701926 3.4014604 13 7 C19.06962922 14.59037148 21.32247231 20.68952261 21.125 30.3125 C21.11597656 31.14845703 21.10695312 31.98441406 21.09765625 32.84570312 C21.07420989 34.89725969 21.03834266 36.94866777 21 39 C19.5590974 38.77042223 18.12222985 38.51543646 16.6875 38.25 C15.88699219 38.11078125 15.08648437 37.9715625 14.26171875 37.828125 C11.36240723 36.76654634 10.52546308 35.66025879 9 33 C8.26953125 30.5625 8.26953125 30.5625 7.8125 28 C7.65394531 27.154375 7.49539062 26.30875 7.33203125 25.4375 C7 23 7 23 7 19 C6.34 19 5.68 19 5 19 C3.61061923 17.03852126 2.2739589 15.03833424 1 13 C2.3921875 13.061875 2.3921875 13.061875 3.8125 13.125 C7.15809719 13.27136339 7.15809719 13.27136339 10 11 C10.33 10.01 10.66 9.02 11 8 C9.35 7.67 7.7 7.34 6 7 C6 6.34 6 5.68 6 5 C4.35 5.33 2.7 5.66 1 6 C1.33 4.68 1.66 3.36 2 2 C1.34 2 0.68 2 0 2 C0 1.34 0 0.68 0 0 Z " fill="#0EB2AF" transform="translate(173,58)"/>
<path d="M0 0 C0.33 0 0.66 0 1 0 C1.33 6.6 1.66 13.2 2 20 C2.33 20 2.66 20 3 20 C3.19539882 24.68957179 3.1821256 28.85439525 1.8125 33.375 C1.544375 34.57125 1.27625 35.7675 1 37 C2.2106557 39.05004839 2.2106557 39.05004839 4 40 C1.04335481 41.4783226 -1.74229737 41.06032783 -5 41 C-4.98428955 41.64960693 -4.9685791 42.29921387 -4.95239258 42.96850586 C-4.88940663 45.95807931 -4.85080979 48.94751249 -4.8125 51.9375 C-4.78736328 52.95908203 -4.76222656 53.98066406 -4.73632812 55.03320312 C-4.67340488 61.59819504 -5.4487325 66.9339085 -8 73 C-8.33 73 -8.66 73 -9 73 C-8.855625 71.741875 -8.71125 70.48375 -8.5625 69.1875 C-7.71450676 60.8165953 -7.40541101 52.4014962 -7 44 C-8.485 44.495 -8.485 44.495 -10 45 C-10.66 44.34 -11.32 43.68 -12 43 C-12 42.01 -12 41.02 -12 40 C-12.33 40.99 -12.66 41.98 -13 43 C-13.66 43 -14.32 43 -15 43 C-15 51.25 -15 59.5 -15 68 C-15.66 68 -16.32 68 -17 68 C-18.70680947 69.62553283 -20.37660195 71.29115995 -22 73 C-22.66 72.67 -23.32 72.34 -24 72 C-23.38125 71.4225 -22.7625 70.845 -22.125 70.25 C-18.35233705 66.2554157 -17.75675232 63.3395919 -17.7265625 57.87890625 C-17.7059375 56.69619141 -17.6853125 55.51347656 -17.6640625 54.29492188 C-17.63806244 51.81061605 -17.61980826 49.32621685 -17.609375 46.84179688 C-17.58617187 45.65779297 -17.56296875 44.47378906 -17.5390625 43.25390625 C-17.53084473 42.17439697 -17.52262695 41.0948877 -17.51416016 39.98266602 C-16.87768294 36.2904333 -15.60346847 34.65280534 -13 32 C-8.48802894 29.66045945 -5.10280044 28.85046674 0 28 C0 18.76 0 9.52 0 0 Z " fill="#14B1B4" transform="translate(227,120)"/>
<path d="M0 0 C1.5 1.375 1.5 1.375 3 3 C3 3.66 3 4.32 3 5 C3.99 5 4.98 5 6 5 C6.45159577 29.21055084 6.45159577 29.21055084 4 35 C1.0625 36.9375 1.0625 36.9375 -2 38 C-2.495 38.680625 -2.99 39.36125 -3.5 40.0625 C-5.57496906 42.74266836 -7.79590909 43.14557576 -11 44 C-11.33 43.34 -11.66 42.68 -12 42 C-12.99 41.67 -13.98 41.34 -15 41 C-14.34 39.35 -13.68 37.7 -13 36 C-12.34 36 -11.68 36 -11 36 C-11 35.34 -11 34.68 -11 34 C-7.53846154 31 -7.53846154 31 -5 31 C-4.67 30.01 -4.34 29.02 -4 28 C-3.67 28 -3.34 28 -3 28 C-2.98018066 27.29391602 -2.96036133 26.58783203 -2.93994141 25.86035156 C-2.84459585 22.65653006 -2.73495487 19.45335199 -2.625 16.25 C-2.5940625 15.13882813 -2.563125 14.02765625 -2.53125 12.8828125 C-2.49257812 11.81289062 -2.45390625 10.74296875 -2.4140625 9.640625 C-2.3826416 8.65610352 -2.3512207 7.67158203 -2.31884766 6.65722656 C-1.99897742 3.99147799 -1.35631379 2.29383595 0 0 Z " fill="#03ACB2" transform="translate(214,159)"/>
<path d="M0 0 C6.625 -0.125 6.625 -0.125 10 1 C10 1.66 10 2.32 10 3 C10.66 3 11.32 3 12 3 C13.1781036 6.22014983 14.02211281 9.15755379 14.5 12.5625 C14.95665009 15.70196939 15.69496559 18.1289243 17 21 C16.34 21.33 15.68 21.66 15 22 C15 20.68 15 19.36 15 18 C13.35 17.67 11.7 17.34 10 17 C9.34 18.32 8.68 19.64 8 21 C8 20.34 8 19.68 8 19 C7.34 19 6.68 19 6 19 C6 19.99 6 20.98 6 22 C6.66 22.33 7.32 22.66 8 23 C8.33 22.67 8.66 22.34 9 22 C9.66 21.67 10.32 21.34 11 21 C11.33 21.99 11.66 22.98 12 24 C13.29355827 25.37195574 14.62298702 26.71182656 16 28 C15.34 28 14.68 28 14 28 C15.15720671 31.47162014 15.9425679 32.13156927 19 34 C21.64934822 34.71433121 21.64934822 34.71433121 24 35 C23.01 35.66 22.02 36.32 21 37 C14.92106518 35.75658151 10.03861729 32.66839609 6.29296875 27.765625 C0.48918168 18.67161315 -0.35718543 10.61634463 0 0 Z " fill="#08939D" transform="translate(96,129)"/>
<path d="M0 0 C0.66 0 1.32 0 2 0 C2.19335938 0.97582031 2.38671875 1.95164062 2.5859375 2.95703125 C2.97652344 4.86548828 2.97652344 4.86548828 3.375 6.8125 C3.63023437 8.07707031 3.88546875 9.34164062 4.1484375 10.64453125 C4.82777181 14.10239018 4.82777181 14.10239018 7 17 C6.7578125 19.69921875 6.7578125 19.69921875 6.125 22.6875 C5.92132813 23.68136719 5.71765625 24.67523438 5.5078125 25.69921875 C5.34023437 26.45847656 5.17265625 27.21773437 5 28 C4.01 28 3.02 28 2 28 C2.33 29.98 2.66 31.96 3 34 C1.68 33.67 0.36 33.34 -1 33 C-1 30.69 -1 28.38 -1 26 C-1.99 25.67 -2.98 25.34 -4 25 C-3.67 23.35 -3.34 21.7 -3 20 C-4.32 20.33 -5.64 20.66 -7 21 C-7.66 19.68 -8.32 18.36 -9 17 C-10.32 17 -11.64 17 -13 17 C-12.67 14.36 -12.34 11.72 -12 9 C-9.69 9 -7.38 9 -5 9 C-5 7.35 -5 5.7 -5 4 C-4.360625 3.71125 -3.72125 3.4225 -3.0625 3.125 C-0.84793921 2.17176549 -0.84793921 2.17176549 0 0 Z " fill="#06C4BF" transform="translate(231,83)"/>
<path d="M0 0 C5.9188892 4.26403682 8.58263529 9.69667897 12 16 C12.39445313 16.69480469 12.78890625 17.38960937 13.1953125 18.10546875 C18.21875231 27.38103282 20.57987056 37.51777053 21 48 C18 46 18 46 17.26953125 43.5390625 C17.11871094 42.57742187 16.96789062 41.61578125 16.8125 40.625 C16.57466797 39.19027344 16.57466797 39.19027344 16.33203125 37.7265625 C16 35 16 35 16 31 C15.34 31 14.68 31 14 31 C13.505 32.485 13.505 32.485 13 34 C10.9375 34.6875 10.9375 34.6875 9 35 C9 36.65 9 38.3 9 40 C6.69 40 4.38 40 2 40 C2.33 41.32 2.66 42.64 3 44 C2.34 44 1.68 44 1 44 C1 45.32 1 46.64 1 48 C2.32 48 3.64 48 5 48 C5.66 48.99 6.32 49.98 7 51 C8.32 51 9.64 51 11 51 C11 52.65 11 54.3 11 56 C7.47967572 56 6.5614657 55.29648649 4 53 C4 52.34 4 51.68 4 51 C3.071875 50.566875 3.071875 50.566875 2.125 50.125 C0 49 0 49 -2 47 C-2.23046875 45.125 -2.23046875 45.125 -2.1875 43 C-2.18105469 42.29875 -2.17460937 41.5975 -2.16796875 40.875 C-2 39 -2 39 -1 37 C1.31 37 3.62 37 6 37 C5.773125 35.989375 5.54625 34.97875 5.3125 33.9375 C4.93298375 29.1555952 5.85970146 27.19498514 8 23 C8.99 23 9.98 23 11 23 C10.22969878 19.51190809 10.22969878 19.51190809 9 16 C8.01 15.67 7.02 15.34 6 15 C6 14.34 6 13.68 6 13 C5.34 12.67 4.68 12.34 4 12 C4.66 11.01 5.32 10.02 6 9 C5.34 9 4.68 9 4 9 C3.67 8.34 3.34 7.68 3 7 C2.01 6.67 1.02 6.34 0 6 C0 4.02 0 2.04 0 0 Z " fill="#0BBAB6" transform="translate(217,52)"/>
<path d="M0 0 C0.66 0.33 1.32 0.66 2 1 C2.37890625 3.58203125 2.37890625 3.58203125 2.5625 6.8125 C2.77284009 10.33676973 3.0052684 13.6047591 4 17 C4.66 17 5.32 17 6 17 C6 17.66 6 18.32 6 19 C9.63 19.66 13.26 20.32 17 21 C17 21.33 17 21.66 17 22 C15.02 22 13.04 22 11 22 C11.20625 22.86625 11.4125 23.7325 11.625 24.625 C12.04253799 28.38284192 11.17661529 30.47015413 10 34 C10.66 34.99 11.32 35.98 12 37 C4.43780823 35.14803467 -1.38774134 32.64165248 -6 26 C-5.01621713 23.80540745 -4.22103594 22.20335306 -2.4375 20.5625 C0.90381653 16.93063421 0.10583544 11.32439203 0.0625 6.6875 C0.04896484 4.80611328 0.04896484 4.80611328 0.03515625 2.88671875 C0.02355469 1.93410156 0.01195313 0.98148437 0 0 Z " fill="#07ABAE" transform="translate(108,80)"/>
<path d="M0 0 C0.66 0.33 1.32 0.66 2 1 C3 4 3 4 3 7 C3.99 6.67 4.98 6.34 6 6 C5.67 5.34 5.34 4.68 5 4 C6.65 4 8.3 4 10 4 C11.125 7.75 11.125 7.75 10 10 C11.32 10.66 12.64 11.32 14 12 C13.625 14.4375 13.625 14.4375 13 17 C12.34 17.33 11.68 17.66 11 18 C11.33 20.97 11.66 23.94 12 27 C11.01 27.66 10.02 28.32 9 29 C8.34 29.99 7.68 30.98 7 32 C6.34 31.67 5.68 31.34 5 31 C4.71243703 28.3496774 4.53226891 25.78315241 4.4375 23.125 C4.25588398 17.48239019 4.25588398 17.48239019 3 12 C2.34 12 1.68 12 1 12 C1 11.34 1 10.68 1 10 C-0.98 9.34 -2.96 8.68 -5 8 C-5 7.34 -5 6.68 -5 6 C-5.66 5.67 -6.32 5.34 -7 5 C-4 5 -4 5 -2 6 C-1.34 4.02 -0.68 2.04 0 0 Z " fill="#06BAB9" transform="translate(179,114)"/>
<path d="M0 0 C0.33 0.99 0.66 1.98 1 3 C-0.98 3.66 -2.96 4.32 -5 5 C-5 5.99 -5 6.98 -5 8 C-7.475 7.505 -7.475 7.505 -10 7 C-15.20984543 13.2148951 -15.20984543 13.2148951 -17 21 C-18.98 21.33 -20.96 21.66 -23 22 C-23.33 23.65 -23.66 25.3 -24 27 C-25.65 26.67 -27.3 26.34 -29 26 C-29 25.01 -29 24.02 -29 23 C-29.66 22.67 -30.32 22.34 -31 22 C-30.01 21.34 -29.02 20.68 -28 20 C-26.7811879 16.44327821 -26.7811879 16.44327821 -26 13 C-24.68 13 -23.36 13 -22 13 C-22 12.01 -22 11.02 -22 10 C-20.865625 9.87625 -19.73125 9.7525 -18.5625 9.625 C-17.386875 9.41875 -16.21125 9.2125 -15 9 C-14.67 8.34 -14.34 7.68 -14 7 C-14.66 6.67 -15.32 6.34 -16 6 C-14.68 5.67 -13.36 5.34 -12 5 C-12 4.01 -12 3.02 -12 2 C-7.82262526 0.40861915 -4.46839215 -0.21278058 0 0 Z " fill="#07C2BF" transform="translate(104,34)"/>
<path d="M0 0 C3 5.75 3 5.75 3 8 C3.99 8.33 4.98 8.66 6 9 C5.67 8.01 5.34 7.02 5 6 C5.99 5.67 6.98 5.34 8 5 C7.67 7.31 7.34 9.62 7 12 C5.3745692 11.85904936 3.74965949 11.71207913 2.125 11.5625 C1.22007813 11.48128906 0.31515625 11.40007812 -0.6171875 11.31640625 C-3 11 -3 11 -5 10 C-5 10.99 -5 11.98 -5 13 C-8.82367701 13.21849583 -11.62176024 12.87679987 -15 11 C-16 9.0625 -16 9.0625 -16 7 C-12.13331109 2.41281005 -6.04236934 -0.75529617 0 0 Z " fill="#048FA2" transform="translate(110,186)"/>
<path d="M0 0 C1.13615308 3.77650882 0.62179534 5.39601036 -1 9 C-1.35858516 10.32676508 -1.7018576 11.65835921 -2 13 C-0.35 13.33 1.3 13.66 3 14 C2.67 12.68 2.34 11.36 2 10 C4.375 8.4375 4.375 8.4375 7 7 C7.66 7.33 8.32 7.66 9 8 C7.36020701 11.87587433 5.42307589 15.48927285 2 18 C-1.29565618 19.0497585 -4.53869957 19.74570767 -7.94140625 20.359375 C-10.65297782 20.92731592 -12.61969683 21.62652433 -15 23 C-11.79100767 14.28538359 -6.20982635 6.81566306 0 0 Z " fill="#08BBBA" transform="translate(77,47)"/>
<path d="M0 0 C0.33 0 0.66 0 1 0 C1.33 6.6 1.66 13.2 2 20 C2.33 20 2.66 20 3 20 C3.19539882 24.68957179 3.1821256 28.85439525 1.8125 33.375 C1.544375 34.57125 1.27625 35.7675 1 37 C2.2106557 39.05004839 2.2106557 39.05004839 4 40 C2 41 2 41 -5 41 C-5 48.59 -5 56.18 -5 64 C-5.33 64 -5.66 64 -6 64 C-6.08678303 60.04180389 -6.14031733 56.08385066 -6.1875 52.125 C-6.22520508 50.43310547 -6.22520508 50.43310547 -6.26367188 48.70703125 C-6.27333984 47.63066406 -6.28300781 46.55429688 -6.29296875 45.4453125 C-6.3086792 44.45031738 -6.32438965 43.45532227 -6.34057617 42.43017578 C-6.22818604 41.62821777 -6.1157959 40.82625977 -6 40 C-5.01 39.34 -4.02 38.68 -3 38 C-4.65 37.34 -6.3 36.68 -8 36 C-7.01 34.68 -6.02 33.36 -5 32 C-6.32 32 -7.64 32 -9 32 C-10.78969026 34.42672567 -10.78969026 34.42672567 -12 37 C-12.33 36.34 -12.66 35.68 -13 35 C-13.66 34.67 -14.32 34.34 -15 34 C-10.09091834 29.09091834 -7.82880383 29.56576077 0 28 C0 18.76 0 9.52 0 0 Z " fill="#0E9A9B" transform="translate(227,120)"/>
<path d="M0 0 C4.31392226 0.4793247 6.16569547 1.7457985 9 5 C8.01 5 7.02 5 6 5 C6 6.32 6 7.64 6 9 C6 9.99 6 10.98 6 12 C6.66 12.33 7.32 12.66 8 13 C8 13.66 8 14.32 8 15 C9.65 14.67 11.3 14.34 13 14 C13 14.99 13 15.98 13 17 C13.99 17 14.98 17 16 17 C15.505 18.485 15.505 18.485 15 20 C13.91203125 19.46890625 12.8240625 18.9378125 11.703125 18.390625 C0.43408726 12.94778269 -10.3416441 7.84389039 -23 7 C-23 6.67 -23 6.34 -23 6 C-19.04 6 -15.08 6 -11 6 C-11 6.66 -11 7.32 -11 8 C-7.7 8 -4.4 8 -1 8 C-1 7.34 -1 6.68 -1 6 C-1.99 5.67 -2.98 5.34 -4 5 C-3.01 4.34 -2.02 3.68 -1 3 C-0.67 2.01 -0.34 1.02 0 0 Z " fill="#0FB5AF" transform="translate(178,25)"/>
<path d="M0 0 C0.9075 0.639375 1.815 1.27875 2.75 1.9375 C6.97385195 4.61802143 9.92043641 5.12652517 14.86035156 5.11352539 C15.82104553 5.11344986 16.7817395 5.11337433 17.77154541 5.11329651 C18.80084167 5.10813522 19.83013794 5.10297394 20.890625 5.09765625 C21.95037537 5.0962413 23.01012573 5.09482635 24.10198975 5.09336853 C27.48468862 5.08777382 30.86732115 5.07522225 34.25 5.0625 C36.54426988 5.05748432 38.83854079 5.05292153 41.1328125 5.04882812 C46.75523094 5.03780611 52.37761073 5.02107321 58 5 C57.67 5.99 57.34 6.98 57 8 C56.05492584 8.0154612 56.05492584 8.0154612 55.09075928 8.03123474 C48.53712715 8.13935941 41.98363085 8.25395274 35.43017578 8.37231445 C32.98391561 8.41564412 30.53762558 8.45732061 28.09130859 8.49731445 C24.57640582 8.55506438 21.06165309 8.61874562 17.546875 8.68359375 C15.9044986 8.70866249 15.9044986 8.70866249 14.22894287 8.73423767 C12.69780853 8.7641555 12.69780853 8.7641555 11.13574219 8.79467773 C9.79005157 8.81799416 9.79005157 8.81799416 8.41717529 8.84178162 C6.15246468 8.99002029 4.17439556 9.36909805 2 10 C2 8.02 2 6.04 2 4 C1.34 4 0.68 4 0 4 C0 2.68 0 1.36 0 0 Z " fill="#0F9DA3" transform="translate(113,150)"/>
<path d="M0 0 C1.98 0.99 3.96 1.98 6 3 C6 3.66 6 4.32 6 5 C6.57492188 5.26039062 7.14984375 5.52078125 7.7421875 5.7890625 C10.16814677 7.09018252 12.05058526 8.56876055 14.125 10.375 C14.80820313 10.96023437 15.49140625 11.54546875 16.1953125 12.1484375 C18.00654755 14.00671761 18.98652635 15.6282627 20 18 C16.0507432 17.44894091 12.65079826 16.61064629 9 15 C8.5875 15.515625 8.175 16.03125 7.75 16.5625 C7.1725 17.036875 6.595 17.51125 6 18 C3.8125 17.6875 3.8125 17.6875 2 17 C2 16.34 2 15.68 2 15 C1.071875 14.566875 1.071875 14.566875 0.125 14.125 C-2 13 -2 13 -4 11 C-1.36 11 1.28 11 4 11 C4 11.66 4 12.32 4 13 C4.99 12.67 5.98 12.34 7 12 C7 10.02 7 8.04 7 6 C6.360625 5.896875 5.72125 5.79375 5.0625 5.6875 C4.381875 5.460625 3.70125 5.23375 3 5 C2.67 4.01 2.34 3.02 2 2 C1.34 2 0.68 2 0 2 C0 1.34 0 0.68 0 0 Z " fill="#0DC9C4" transform="translate(197,34)"/>
<path d="M0 0 C0.99 0.33 1.98 0.66 3 1 C1.88121617 2.17262904 0.75476949 3.33795138 -0.375 4.5 C-1.00148438 5.1496875 -1.62796875 5.799375 -2.2734375 6.46875 C-4 8 -4 8 -6 8 C-6 8.66 -6 9.32 -6 10 C-17.10484342 16.58615402 -35.06174452 14.24095911 -47.5 14.125 C-49.40233898 14.11493815 -51.30468317 14.10581803 -53.20703125 14.09765625 C-57.80481981 14.07592419 -62.40234983 14.04157586 -67 14 C-67 13.34 -67 12.68 -67 12 C-65.03377686 11.96241577 -65.03377686 11.96241577 -63.02783203 11.92407227 C-58.12621665 11.82931319 -53.22472058 11.72926472 -48.32324219 11.62768555 C-46.20901294 11.584594 -44.09475463 11.54290294 -41.98046875 11.50268555 C-38.92699456 11.44435267 -35.87366321 11.38084592 -32.8203125 11.31640625 C-31.42125168 11.29133751 -31.42125168 11.29133751 -29.993927 11.26576233 C-25.49376981 11.16605252 -21.00109287 10.99239152 -16.51123047 10.66772461 C-15.31770462 10.5849955 -15.31770462 10.5849955 -14.10006714 10.50059509 C-11.56916795 9.89730214 -10.69540419 8.92106155 -9 7 C-8.38125 6.71125 -7.7625 6.4225 -7.125 6.125 C-4.2122561 4.58295911 -2.25211171 2.37722903 0 0 Z " fill="#19747D" transform="translate(215,194)"/>
<path d="M0 0 C6.625 -0.125 6.625 -0.125 10 1 C11.13648789 3.44782008 11.02919724 4.8540138 10.5 7.5 C8.33413758 11.10977069 5.73979533 12.13010233 2 14 C2 13.01 2 12.02 2 11 C1.34 11 0.68 11 0 11 C0 7.37 0 3.74 0 0 Z " fill="#0B989E" transform="translate(96,129)"/>
<path d="M0 0 C1.1875 1.6875 1.1875 1.6875 2 4 C0.75 6.5 0.75 6.5 -1 9 C-1.68096422 10.32608822 -2.35330586 11.65686601 -3 13 C-4.98 13 -6.96 13 -9 13 C-9.12117188 13.64066406 -9.24234375 14.28132813 -9.3671875 14.94140625 C-10.35679227 20.04928933 -11.48510951 25.02250269 -13 30 C-13.33 30 -13.66 30 -14 30 C-13.61308328 17.30913172 -11.07643158 9.96465287 -2 1 C-1.34 0.67 -0.68 0.34 0 0 Z " fill="#0BB3B0" transform="translate(111,61)"/>
<path d="M0 0 C0.33 0.66 0.66 1.32 1 2 C4.02934491 2.65772428 4.02934491 2.65772428 7 3 C7 3.66 7 4.32 7 5 C7.61875 5.144375 8.2375 5.28875 8.875 5.4375 C11 6 11 6 13 7 C13 7.66 13 8.32 13 9 C13.66 9 14.32 9 15 9 C17.4294516 12.6441774 17.16179575 14.71241272 17 19 C15 16 15 16 14.1875 12.9375 C13.31638506 9.85190034 13.31638506 9.85190034 10.7734375 8.8828125 C2.1715778 6.14475575 -7.04094489 5.60362428 -16 5 C-11.92175696 2.28117131 -8.42482708 2.57433223 -3.6171875 2.34375 C-2.75351563 2.2303125 -1.88984375 2.116875 -1 2 C-0.67 1.34 -0.34 0.68 0 0 Z " fill="#10A1A6" transform="translate(167,117)"/>
<path d="M0 0 C0 0.66 0 1.32 0 2 C-0.66 2 -1.32 2 -2 2 C-2.66 3.32 -3.32 4.64 -4 6 C-6.97 5.505 -6.97 5.505 -10 5 C-10.66 6.32 -11.32 7.64 -12 9 C-12.66 9 -13.32 9 -14 9 C-15.62514468 10.45833358 -15.62514468 10.45833358 -17 12 C-18.32 11.34 -19.64 10.68 -21 10 C-20.34 10 -19.68 10 -19 10 C-19.33 8.68 -19.66 7.36 -20 6 C-19.34 6 -18.68 6 -18 6 C-17.34 5.67 -16.68 5.34 -16 5 C-16 4.34 -16 3.68 -16 3 C-15.01 3 -14.02 3 -13 3 C-13 2.34 -13 1.68 -13 1 C-11.58622218 0.63447197 -10.16879424 0.28304505 -8.75 -0.0625 C-7.96109375 -0.25972656 -7.1721875 -0.45695312 -6.359375 -0.66015625 C-3.89605178 -1.01497267 -2.34395868 -0.76877544 0 0 Z " fill="#07CDC7" transform="translate(132,23)"/>
<path d="M0 0 C1.32 0.33 2.64 0.66 4 1 C4 2.32 4 3.64 4 5 C3.67 5.33 3.34 5.66 3 6 C3.06446804 8.03074313 3.13267836 10.06193467 3.2578125 12.08984375 C3.17273438 12.72019531 3.08765625 13.35054687 3 14 C2.01 14.66 1.02 15.32 0 16 C0 16.99 0 17.98 0 19 C0.66 19.33 1.32 19.66 2 20 C1.67 20.99 1.34 21.98 1 23 C0.01 23 -0.98 23 -2 23 C-4.31929006 18.07150861 -4.6551597 14.24626184 -3.125 9 C-2.75375 8.01 -2.3825 7.02 -2 6 C-1.62875 4.88625 -1.2575 3.7725 -0.875 2.625 C-0.58625 1.75875 -0.2975 0.8925 0 0 Z " fill="#07BEBC" transform="translate(102,73)"/>
<path d="M0 0 C0.66 0 1.32 0 2 0 C2.33 0.99 2.66 1.98 3 3 C3.66 2.01 4.32 1.02 5 0 C5.99 0 6.98 0 8 0 C8 2 8 4 8 6 C9.32 6 10.64 6 12 6 C12.33 8.64 12.66 11.28 13 14 C12.01 14 11.02 14 10 14 C9.34 16.31 8.68 18.62 8 21 C6.875 19.4375 6.875 19.4375 6 17 C6.875 13.25 6.875 13.25 8 10 C6.35 9.67 4.7 9.34 3 9 C2.896875 8.401875 2.79375 7.80375 2.6875 7.1875 C1.91123545 4.71756736 0.92911079 3.67748765 -1 2 C-0.67 1.34 -0.34 0.68 0 0 Z " fill="#05CBC4" transform="translate(215,61)"/>
<path d="M0 0 C14.85 0 29.7 0 45 0 C45 0.66 45 1.32 45 2 C45.66 2.33 46.32 2.66 47 3 C31.82 2.67 16.64 2.34 1 2 C0.67 1.34 0.34 0.68 0 0 Z " fill="#1DAFAB" transform="translate(125,66)"/>
<path d="M0 0 C0.33 1.32 0.66 2.64 1 4 C-1.31 4 -3.62 4 -6 4 C-5.67 5.32 -5.34 6.64 -5 8 C-5.66 8 -6.32 8 -7 8 C-7 9.32 -7 10.64 -7 12 C-5.68 12 -4.36 12 -3 12 C-2.01 13.485 -2.01 13.485 -1 15 C0.32 15 1.64 15 3 15 C3 16.65 3 18.3 3 20 C-0.52032428 20 -1.4385343 19.29648649 -4 17 C-4 16.34 -4 15.68 -4 15 C-4.928125 14.566875 -4.928125 14.566875 -5.875 14.125 C-8 13 -8 13 -10 11 C-10.23046875 9.125 -10.23046875 9.125 -10.1875 7 C-10.18105469 6.29875 -10.17460937 5.5975 -10.16796875 4.875 C-10 3 -10 3 -9 1 C-6.69 1 -4.38 1 -2 1 C-2 1.66 -2 2.32 -2 3 C-1.34 3 -0.68 3 0 3 C0 2.01 0 1.02 0 0 Z " fill="#18AAA8" transform="translate(225,88)"/>
<path d="M0 0 C0.66 0 1.32 0 2 0 C2 0.66 2 1.32 2 2 C2.66 2 3.32 2 4 2 C4.99 3.485 4.99 3.485 6 5 C6.99 5.33 7.98 5.66 9 6 C9.33 7.98 9.66 9.96 10 12 C8.68 12.33 7.36 12.66 6 13 C6 12.34 6 11.68 6 11 C5.4225 11.20625 4.845 11.4125 4.25 11.625 C1.48032433 12.08661261 0.35438733 11.42944945 -2 10 C-1.67 9.34 -1.34 8.68 -1 8 C-1.99 7.67 -2.98 7.34 -4 7 C-3.34 7 -2.68 7 -2 7 C-1.34 4.69 -0.68 2.38 0 0 Z " fill="#08CDC5" transform="translate(195,34)"/>
<path d="M0 0 C7.39571072 0.16983887 12.98387122 1.57673628 19 6 C21.5625 8.8125 21.5625 8.8125 23 11 C22.01 11.66 21.02 12.32 20 13 C20 13.66 20 14.32 20 15 C17.03 14.505 17.03 14.505 14 14 C14.2475 13.443125 14.495 12.88625 14.75 12.3125 C15.28865916 9.77128715 15.28865916 9.77128715 13.0625 7.375 C12.381875 6.59125 11.70125 5.8075 11 5 C11 4.34 11 3.68 11 3 C10.37351563 3.01160156 9.74703125 3.02320312 9.1015625 3.03515625 C8.28429687 3.04417969 7.46703125 3.05320312 6.625 3.0625 C5.81289062 3.07410156 5.00078125 3.08570312 4.1640625 3.09765625 C2 3 2 3 0 2 C0 1.34 0 0.68 0 0 Z " fill="#0AADAC" transform="translate(166,107)"/>
<path d="M0 0 C5.30462144 0.33153884 9.2456412 3.46112316 13 7 C14.23828125 9.19921875 14.23828125 9.19921875 15 11 C14.401875 11.28875 13.80375 11.5775 13.1875 11.875 C9.36322376 13.66893173 9.36322376 13.66893173 7.3125 17.125 C7.209375 17.74375 7.10625 18.3625 7 19 C6.34 19 5.68 19 5 19 C3.61061923 17.03852126 2.2739589 15.03833424 1 13 C2.3921875 13.061875 2.3921875 13.061875 3.8125 13.125 C7.15809719 13.27136339 7.15809719 13.27136339 10 11 C10.33 10.01 10.66 9.02 11 8 C9.35 7.67 7.7 7.34 6 7 C6 6.34 6 5.68 6 5 C4.35 5.33 2.7 5.66 1 6 C1.33 4.68 1.66 3.36 2 2 C1.34 2 0.68 2 0 2 C0 1.34 0 0.68 0 0 Z " fill="#12A6A3" transform="translate(173,58)"/>
<path d="M0 0 C0.66 0 1.32 0 2 0 C1.33021417 4.15267212 0.02897242 7.96661322 -1.37890625 11.9140625 C-2.14268568 14.11646845 -2.14268568 14.11646845 -2 17 C-2.66 17 -3.32 17 -4 17 C-4.06058594 17.69867188 -4.12117188 18.39734375 -4.18359375 19.1171875 C-4.26738281 20.02726562 -4.35117187 20.93734375 -4.4375 21.875 C-4.51871094 22.77992187 -4.59992187 23.68484375 -4.68359375 24.6171875 C-5 27 -5 27 -6 29 C-6.15004973 30.3734635 -6.24838006 31.7528526 -6.31640625 33.1328125 C-6.37924805 34.34130859 -6.37924805 34.34130859 -6.44335938 35.57421875 C-6.48267578 36.41597656 -6.52199219 37.25773437 -6.5625 38.125 C-6.62727539 39.39923828 -6.62727539 39.39923828 -6.69335938 40.69921875 C-6.79954236 42.79928223 -6.90028497 44.89961948 -7 47 C-7.33 47 -7.66 47 -8 47 C-8.30795632 30.4901196 -6.45132501 16.61320265 -1 1 C-0.67 0.67 -0.34 0.34 0 0 Z " fill="#12727B" transform="translate(60,73)"/>
<path d="M0 0 C0.28875 0.78375 0.5775 1.5675 0.875 2.375 C1.84912254 5.09671632 1.84912254 5.09671632 4 7 C2 8 2 8 -5 8 C-5 15.59 -5 23.18 -5 31 C-5.33 31 -5.66 31 -6 31 C-6.08678303 27.04180389 -6.14031733 23.08385066 -6.1875 19.125 C-6.21263672 17.99707031 -6.23777344 16.86914062 -6.26367188 15.70703125 C-6.27333984 14.63066406 -6.28300781 13.55429688 -6.29296875 12.4453125 C-6.3086792 11.45031738 -6.32438965 10.45532227 -6.34057617 9.43017578 C-6.22818604 8.62821777 -6.1157959 7.82625977 -6 7 C-5.01 6.34 -4.02 5.68 -3 5 C-5.475 4.01 -5.475 4.01 -8 3 C-5.53387212 -0.1151089 -3.89156016 -0.31553191 0 0 Z " fill="#078486" transform="translate(227,153)"/>
<path d="M0 0 C4.03017508 2.89060833 6.31648632 5.69289614 8.75 10 C9.34296875 11.03125 9.9359375 12.0625 10.546875 13.125 C11.74252107 15.49057933 12.52776068 17.4151111 13 20 C12.01 20 11.02 20 10 20 C9.71125 19.360625 9.4225 18.72125 9.125 18.0625 C8.17176549 15.84793921 8.17176549 15.84793921 6 15 C6 14.34 6 13.68 6 13 C5.34 12.67 4.68 12.34 4 12 C4.66 11.01 5.32 10.02 6 9 C5.34 9 4.68 9 4 9 C3.67 8.34 3.34 7.68 3 7 C2.01 6.67 1.02 6.34 0 6 C0 4.02 0 2.04 0 0 Z " fill="#13A19E" transform="translate(217,52)"/>
<path d="M0 0 C3.68748309 -0.02925502 7.37493592 -0.04688418 11.0625 -0.0625 C12.10083984 -0.07087891 13.13917969 -0.07925781 14.20898438 -0.08789062 C19.58723069 -0.10496442 24.70333211 0.04584848 30 1 C27.00873681 2.72206188 24.89314287 3.24179923 21.453125 3.1953125 C20.18662109 3.18564453 20.18662109 3.18564453 18.89453125 3.17578125 C18.02183594 3.15902344 17.14914063 3.14226563 16.25 3.125 C15.36183594 3.11597656 14.47367188 3.10695313 13.55859375 3.09765625 C11.37211942 3.07414577 9.18619906 3.04128499 7 3 C7 2.67 7 2.34 7 2 C4.69 1.67 2.38 1.34 0 1 C0 0.67 0 0.34 0 0 Z " fill="#129A97" transform="translate(134,19)"/>
<path d="M0 0 C0.66 0.99 1.32 1.98 2 3 C0.02 3.66 -1.96 4.32 -4 5 C-3.67 5.66 -3.34 6.32 -3 7 C-3.66 7.66 -4.32 8.32 -5 9 C-5.99 10.485 -5.99 10.485 -7 12 C-10.625 12.1875 -10.625 12.1875 -14 12 C-14 12.99 -14 13.98 -14 15 C-15.32 14.67 -16.64 14.34 -18 14 C-16.625 12.5 -16.625 12.5 -15 11 C-14.34 11 -13.68 11 -13 11 C-13 10.34 -13 9.68 -13 9 C-10.86229382 7.37322909 -8.7324466 5.86020356 -6.5 4.375 C-5.87996094 3.95476563 -5.25992188 3.53453125 -4.62109375 3.1015625 C-3.08482736 2.06162833 -1.54292476 1.03002944 0 0 Z " fill="#0F9596" transform="translate(96,32)"/>
<path d="M0 0 C0.66 0 1.32 0 2 0 C3.1781036 3.22014983 4.02211281 6.15755379 4.5 9.5625 C4.95665009 12.70196939 5.69496559 15.1289243 7 18 C6.34 18.33 5.68 18.66 5 19 C5 17.68 5 16.36 5 15 C3.35 14.67 1.7 14.34 0 14 C-2.05459372 8.40693931 -2.05459372 5.59306069 0 0 Z " fill="#0A9DA5" transform="translate(106,132)"/>
<path d="M0 0 C1.98 0.66 3.96 1.32 6 2 C6 3.32 6 4.64 6 6 C7.65 6.33 9.3 6.66 11 7 C11 15 11 15 9 18 C6 12 3 6 0 0 Z " fill="#119B98" transform="translate(212,64)"/>
<path d="M0 0 C16.5 0 33 0 50 0 C49.67 0.99 49.34 1.98 49 3 C24.745 2.505 24.745 2.505 0 2 C0 1.34 0 0.68 0 0 Z " fill="#10686D" transform="translate(121,155)"/>
<path d="M0 0 C0.33 0.33 0.66 0.66 1 1 C4.15158451 1.23693296 7.29544912 1.39590076 10.453125 1.51757812 C14.11943226 1.7065998 15.87465937 1.91643958 19 4 C8.42300905 4.23049133 -1.55092369 3.85466965 -12 2 C-7.77928009 -0.39964525 -4.78915699 -0.23553231 0 0 Z " fill="#1A969E" transform="translate(132,116)"/>
<path d="M0 0 C2 3 2 3 1.625 5.1875 C1.41875 5.785625 1.2125 6.38375 1 7 C0.34 7 -0.32 7 -1 7 C-1 7.66 -1 8.32 -1 9 C-3.875 9.125 -3.875 9.125 -7 9 C-7.66 8.34 -8.32 7.68 -9 7 C-6.71973999 3.57960999 -6.6132423 3.87593753 -3 3 C-1.26973898 1.52109931 -1.26973898 1.52109931 0 0 Z " fill="#0BA7A5" transform="translate(236,150)"/>
<path d="M0 0 C0 0.66 0 1.32 0 2 C-0.9590625 2.1546875 -0.9590625 2.1546875 -1.9375 2.3125 C-2.618125 2.539375 -3.29875 2.76625 -4 3 C-4.33 3.99 -4.66 4.98 -5 6 C-15.56 5.67 -26.12 5.34 -37 5 C-37 4.67 -37 4.34 -37 4 C-36.17274414 3.98018066 -35.34548828 3.96036133 -34.49316406 3.93994141 C-30.74512194 3.84468788 -26.99763683 3.73500891 -23.25 3.625 C-21.94804687 3.5940625 -20.64609375 3.563125 -19.3046875 3.53125 C-17.42910156 3.47324219 -17.42910156 3.47324219 -15.515625 3.4140625 C-14.36352539 3.3826416 -13.21142578 3.3512207 -12.02441406 3.31884766 C-9.10126044 3.01067534 -7.4994001 2.45535557 -5 1 C-2 0 -2 0 0 0 Z " fill="#0E919C" transform="translate(203,193)"/>
<path d="M0 0 C2.2477975 2.05233685 3.0022242 3.00667261 4 6 C3.87935448 12.86751424 3.26698251 19.50131681 1 26 C0.34 26 -0.32 26 -1 26 C-1 23.36 -1 20.72 -1 18 C-0.34 18 0.32 18 1 18 C1.33 13.38 1.66 8.76 2 4 C1.34 4 0.68 4 0 4 C0 2.68 0 1.36 0 0 Z " fill="#11737F" transform="translate(79,159)"/>
<path d="M0 0 C0 3.51197579 -1.24535987 5.47327689 -2.84375 8.52734375 C-5.01916185 13.17949139 -6.46661737 18.10622566 -8 23 C-10 19.25 -10 19.25 -10 17 C-9.34 17 -8.68 17 -8 17 C-8 14.69 -8 12.38 -8 10 C-7.34 10 -6.68 10 -6 10 C-6 9.01 -6 8.02 -6 7 C-5.34 7 -4.68 7 -4 7 C-4 6.01 -4 5.02 -4 4 C-3.34 4 -2.68 4 -2 4 C-2 3.01 -2 2.02 -2 1 C-1.34 0.67 -0.68 0.34 0 0 Z " fill="#15858B" transform="translate(74,70)"/>
<path d="M0 0 C0.66 0.33 1.32 0.66 2 1 C2.75 3.4375 2.75 3.4375 3 6 C2.34 6.66 1.68 7.32 1 8 C0.67 7.67 0.34 7.34 0 7 C-1.65 8.65 -3.3 10.3 -5 12 C-5.875 8.8125 -5.875 8.8125 -6 5 C-4.21974097 2.78700108 -2.39362281 1.61203169 0 0 Z " fill="#0ECAC3" transform="translate(186,68)"/>
<path d="M0 0 C0.99 0.495 0.99 0.495 2 1 C2.37890625 3.58203125 2.37890625 3.58203125 2.5625 6.8125 C2.77284009 10.33676973 3.0052684 13.6047591 4 17 C4.66 17 5.32 17 6 17 C5.67 17.66 5.34 18.32 5 19 C3.35 18.67 1.7 18.34 0 18 C0 12.06 0 6.12 0 0 Z " fill="#12888B" transform="translate(108,80)"/>
<path d="M0 0 C1.75 1.4375 1.75 1.4375 3 3 C2.34 4.98 1.68 6.96 1 9 C1.66 9 2.32 9 3 9 C2.34 10.32 1.68 11.64 1 13 C0.15885829 11.56705502 -0.67265687 10.12845595 -1.5 8.6875 C-2.19609375 7.48673828 -2.19609375 7.48673828 -2.90625 6.26171875 C-4 4 -4 4 -4 1 C-2.1875 0.3125 -2.1875 0.3125 0 0 Z " fill="#0B8293" transform="translate(63,144)"/>
<path d="M0 0 C7.00004889 0.28688725 11.91026866 1.50404312 18 5 C17.67 5.66 17.34 6.32 17 7 C15.35 7 13.7 7 12 7 C11.67 5.68 11.34 4.36 11 3 C10.37351563 3.01160156 9.74703125 3.02320312 9.1015625 3.03515625 C8.28429687 3.04417969 7.46703125 3.05320312 6.625 3.0625 C5.81289062 3.07410156 5.00078125 3.08570312 4.1640625 3.09765625 C2 3 2 3 0 2 C0 1.34 0 0.68 0 0 Z " fill="#159598" transform="translate(166,107)"/>
<path d="M0 0 C6.75 1.875 6.75 1.875 9 3 C9 3.66 9 4.32 9 5 C10.65 4.67 12.3 4.34 14 4 C14 4.99 14 5.98 14 7 C14.99 7 15.98 7 17 7 C16.67 7.99 16.34 8.98 16 10 C13.51461247 8.90834363 11.03732829 7.80263115 8.5625 6.6875 C7.85544922 6.37876953 7.14839844 6.07003906 6.41992188 5.75195312 C4.57535177 4.91351217 2.78293652 3.9625796 1 3 C0.67 2.01 0.34 1.02 0 0 Z " fill="#18A8A6" transform="translate(177,35)"/>
<path d="M0 0 C0 0.99 0 1.98 0 3 C1.12148437 2.83951172 1.12148437 2.83951172 2.265625 2.67578125 C3.74289063 2.49595703 3.74289063 2.49595703 5.25 2.3125 C6.71179688 2.12107422 6.71179688 2.12107422 8.203125 1.92578125 C11.48272731 2.0128098 12.63310671 2.80780598 15 5 C-1.8929385 4.22095672 -1.8929385 4.22095672 -9 2 C-5.86501708 0.14223235 -3.62528568 -0.20140476 0 0 Z " fill="#0F6277" transform="translate(132,202)"/>
<path d="M0 0 C0 0.66 0 1.32 0 2 C0.66 2 1.32 2 2 2 C4.4294516 5.6441774 4.16179575 7.71241272 4 12 C2 9 2 9 1.1875 5.9375 C0.29346983 2.87750947 0.29346983 2.87750947 -2.1875 1.6875 C-5.44377928 0.89152062 -8.67195993 0.39153413 -12 0 C-12 -0.33 -12 -0.66 -12 -1 C-7.54187984 -2.14637376 -4.15590845 -2.07795422 0 0 Z " fill="#13878C" transform="translate(180,124)"/>
<path d="M0 0 C1.98 0.99 3.96 1.98 6 3 C6 3.66 6 4.32 6 5 C6.5775 5.2475 7.155 5.495 7.75 5.75 C10.3002997 7.16683317 12.01785701 8.87627537 14 11 C12.35 11.66 10.7 12.32 9 13 C8.34 10.69 7.68 8.38 7 6 C6.360625 5.896875 5.72125 5.79375 5.0625 5.6875 C4.381875 5.460625 3.70125 5.23375 3 5 C2.67 4.01 2.34 3.02 2 2 C1.34 2 0.68 2 0 2 C0 1.34 0 0.68 0 0 Z " fill="#14B1AB" transform="translate(197,34)"/>
<path d="M0 0 C0.99 0 1.98 0 3 0 C3 0.99 3 1.98 3 3 C3.99 3.33 4.98 3.66 6 4 C6.6875 6.0625 6.6875 6.0625 7 8 C5.125 8.625 5.125 8.625 3 9 C2.34 8.34 1.68 7.68 1 7 C1 5.68 1 4.36 1 3 C-0.32 3.33 -1.64 3.66 -3 4 C-3 3.34 -3 2.68 -3 2 C-2.01 2 -1.02 2 0 2 C0 1.34 0 0.68 0 0 Z " fill="#07899D" transform="translate(80,200)"/>
<path d="M0 0 C1.34660856 2.69321712 1.02693401 5.11117753 0.9375 8.0625 C-0.64285332 11.32856352 -3.74632105 11.81684402 -7 13 C-5.35821735 8.22390502 -2.73453298 4.20617096 0 0 Z " fill="#109598" transform="translate(69,57)"/>
<path d="M0 0 C1.4391134 0.28359887 2.87625518 0.57721399 4.3125 0.875 C5.11300781 1.03742188 5.91351563 1.19984375 6.73828125 1.3671875 C9 2 9 2 12 4 C10.02 4.66 8.04 5.32 6 6 C6 6.66 6 7.32 6 8 C4.68 7.67 3.36 7.34 2 7 C1.7834375 5.824375 1.7834375 5.824375 1.5625 4.625 C1.12201075 2.03578982 1.12201075 2.03578982 0 0 Z " fill="#0A798C" transform="translate(110,187)"/>
<path d="M0 0 C2.64752004 2.57784846 4.94432065 4.91648098 7 8 C5.35 8.33 3.7 8.66 2 9 C2 8.34 2 7.68 2 7 C1.01 6.67 0.02 6.34 -1 6 C-1.33 4.35 -1.66 2.7 -2 1 C-1.34 0.67 -0.68 0.34 0 0 Z " fill="#09CFC8" transform="translate(184,31)"/>
<path d="M0 0 C0.99 0.33 1.98 0.66 3 1 C1.88121617 2.17262904 0.75476949 3.33795138 -0.375 4.5 C-1.00148437 5.1496875 -1.62796875 5.799375 -2.2734375 6.46875 C-4 8 -4 8 -6 8 C-6 8.66 -6 9.32 -6 10 C-7.65 9.67 -9.3 9.34 -11 9 C-9 7 -9 7 -7.1875 6.1875 C-4.26428634 4.60061258 -2.27459118 2.40095736 0 0 Z " fill="#128792" transform="translate(215,194)"/>
<path d="M0 0 C0.99 0.66 1.98 1.32 3 2 C4.32 2.33 5.64 2.66 7 3 C2.05 5.475 2.05 5.475 -3 8 C-3.33 6.02 -3.66 4.04 -4 2 C-2.68 1.34 -1.36 0.68 0 0 Z " fill="#0E9F9C" transform="translate(102,37)"/>
<path d="M0 0 C0.33 0 0.66 0 1 0 C1.53181175 2.24743045 2.05007126 4.49807102 2.5625 6.75 C2.85253906 8.00296875 3.14257812 9.2559375 3.44140625 10.546875 C3.93444283 13.59473748 4.07666879 15.17641828 3 18 C0.20931322 15.20931322 0.3405589 12.87507882 -0.1875 9 C-0.36667969 7.741875 -0.54585937 6.48375 -0.73046875 5.1875 C-1 2 -1 2 0 0 Z " fill="#159091" transform="translate(234,82)"/>
<path d="M0 0 C0.33 1.32 0.66 2.64 1 4 C0.01 4.495 0.01 4.495 -1 5 C-1.61993321 7.1128393 -1.61993321 7.1128393 -2 9.625 C-2.76597705 13.85611131 -3.74869562 17.88857133 -5 22 C-5.33 22 -5.66 22 -6 22 C-5.49685535 5.49685535 -5.49685535 5.49685535 0 0 Z " fill="#148C8D" transform="translate(103,69)"/>
<path d="M0 0 C0.99 0.33 1.98 0.66 3 1 C1.33248852 4.94139078 -1.22710649 7.7892812 -4 11 C-4.66 9.68 -5.32 8.36 -6 7 C-5.01 7 -4.02 7 -3 7 C-3.33 5.68 -3.66 4.36 -4 3 C-2.1875 1.4375 -2.1875 1.4375 0 0 Z " fill="#0D9997" transform="translate(83,54)"/>
<path d="M0 0 C1.00206597 2.70557813 1.05573121 3.83280636 0.125 6.625 C-0.56903771 8.09019073 -1.27495211 9.54990422 -2 11 C-3.65 10.67 -5.3 10.34 -7 10 C-4.93992341 6.39486597 -2.6486859 3.19668988 0 0 Z " fill="#119C9D" transform="translate(77,47)"/>
<path d="M0 0 C4.16138263 -0.08159574 7.9472484 0.01751476 12 1 C9.44931155 3.35448165 8.28982642 3.98327924 4.75 4.1875 C3.8425 4.125625 2.935 4.06375 2 4 C1.34 2.68 0.68 1.36 0 0 Z " fill="#0D7487" transform="translate(61,215)"/>
<path d="M0 0 C-0.61875 0.0825 -1.2375 0.165 -1.875 0.25 C-4.18437567 0.81258459 -4.18437567 0.81258459 -5.25 3.0625 C-5.4975 3.701875 -5.745 4.34125 -6 5 C-6.99 5 -7.98 5 -9 5 C-9.33 5.99 -9.66 6.98 -10 8 C-10.66 7.34 -11.32 6.68 -12 6 C-12.99 5.67 -13.98 5.34 -15 5 C-13.44424022 4.15415002 -11.8800388 3.32381601 -10.3125 2.5 C-9.44238281 2.0359375 -8.57226562 1.571875 -7.67578125 1.09375 C-4.88211171 -0.04818792 -2.98370887 -0.21504208 0 0 Z " fill="#0B6477" transform="translate(110,186)"/>
<path d="M0 0 C-5.946072 3.03910346 -11.36906706 3.65226572 -18 4 C-15.07089056 2.04726038 -12.91867709 1.24603637 -9.5625 0.3125 C-8.61503906 0.04050781 -7.66757813 -0.23148438 -6.69140625 -0.51171875 C-4.01081763 -0.99803744 -2.53712417 -0.89369149 0 0 Z " fill="#178C8A" transform="translate(131,21)"/>
<path d="M0 0 C0.66 0 1.32 0 2 0 C1.21824485 4.84688192 -0.39844278 9.3766367 -2 14 C-2.66 13.67 -3.32 13.34 -4 13 C-3.52511102 11.01980257 -3.04497141 9.04086365 -2.5625 7.0625 C-2.29566406 5.96035156 -2.02882812 4.85820313 -1.75390625 3.72265625 C-1 1 -1 1 0 0 Z " fill="#179194" transform="translate(60,73)"/>
<path d="M0 0 C0.99 0 1.98 0 3 0 C3 5.61 3 11.22 3 17 C2.67 17 2.34 17 2 17 C1.67 14.36 1.34 11.72 1 9 C0.67 9 0.34 9 0 9 C0 6.03 0 3.06 0 0 Z " fill="#089999" transform="translate(227,109)"/>
<path d="M0 0 C2.31 0.66 4.62 1.32 7 2 C7 2.33 7 2.66 7 3 C3.04 3.99 -0.92 4.98 -5 6 C-5.33 5.01 -5.66 4.02 -6 3 C-4.35 3 -2.7 3 -1 3 C-0.67 2.01 -0.34 1.02 0 0 Z " fill="#14A5A3" transform="translate(118,31)"/>
<path d="M0 0 C0.66 0.33 1.32 0.66 2 1 C2 2.65 2 4.3 2 6 C1.34 6 0.68 6 0 6 C-1.70680947 7.62553283 -3.37660195 9.29115995 -5 11 C-5.66 10.67 -6.32 10.34 -7 10 C-6.401875 9.46375 -5.80375 8.9275 -5.1875 8.375 C-2.78684406 5.76857355 -1.45981486 3.2115927 0 0 Z " fill="#117F85" transform="translate(210,182)"/>
<path d="M0 0 C-0.61488281 0.15855469 -1.22976562 0.31710938 -1.86328125 0.48046875 C-7.18349762 1.93946287 -7.18349762 1.93946287 -11.0625 5.6875 C-11.5265625 6.8321875 -11.5265625 6.8321875 -12 8 C-12.33 7.34 -12.66 6.68 -13 6 C-13.66 5.67 -14.32 5.34 -15 5 C-11.25744754 1.49135707 -5.20621976 -2.60310988 0 0 Z " fill="#0E787A" transform="translate(227,149)"/>
<path d="M0 0 C0.99 0.33 1.98 0.66 3 1 C3 3.31 3 5.62 3 8 C3.66 8 4.32 8 5 8 C4.67 8.66 4.34 9.32 4 10 C1.5 7.75 1.5 7.75 -1 5 C-1 1 -1 1 0 0 Z " fill="#0E878A" transform="translate(104,102)"/>
<path d="M0 0 C0.66 0.99 1.32 1.98 2 3 C1.01 4.485 1.01 4.485 0 6 C-0.66 6 -1.32 6 -2 6 C-2 6.66 -2 7.32 -2 8 C-2.99 8.33 -3.98 8.66 -5 9 C-5.625 7.125 -5.625 7.125 -6 5 C-5.34 4.34 -4.68 3.68 -4 3 C-2.68 3 -1.36 3 0 3 C0 2.01 0 1.02 0 0 Z " fill="#0F8F96" transform="translate(188,153)"/>
<path d="M0 0 C2.31 0 4.62 0 7 0 C7 0.33 7 0.66 7 1 C5.35 1.33 3.7 1.66 2 2 C1.67 4.97 1.34 7.94 1 11 C0.34 10.67 -0.32 10.34 -1 10 C-1.125 2.25 -1.125 2.25 0 0 Z " fill="#12686A" transform="translate(216,89)"/>
<path d="M0 0 C0 0.66 0 1.32 0 2 C-0.99 2 -1.98 2 -3 2 C-3.103125 2.639375 -3.20625 3.27875 -3.3125 3.9375 C-3.539375 4.618125 -3.76625 5.29875 -4 6 C-4.99 6.33 -5.98 6.66 -7 7 C-7.66 6.67 -8.32 6.34 -9 6 C-9 5.01 -9 4.02 -9 3 C-2.25 0 -2.25 0 0 0 Z " fill="#19ACAC" transform="translate(106,28)"/>
<path d="M0 0 C2.97 1.98 2.97 1.98 6 4 C5.67 5.65 5.34 7.3 5 9 C4.01 9.33 3.02 9.66 2 10 C2 8.02 2 6.04 2 4 C1.34 4 0.68 4 0 4 C0 2.68 0 1.36 0 0 Z " fill="#0A8F99" transform="translate(113,150)"/>
<path d="M0 0 C0.66 0.99 1.32 1.98 2 3 C-4.93 2.505 -4.93 2.505 -12 2 C-7.23779696 -0.38110152 -5.21211352 -0.42033174 0 0 Z " fill="#148E92" transform="translate(132,116)"/>
<path d="M0 0 C3.465 1.485 3.465 1.485 7 3 C4.33333333 4.33333333 1.66666667 5.66666667 -1 7 C-0.67 4.69 -0.34 2.38 0 0 Z " fill="#129D9F" transform="translate(116,66)"/>
<path d="M0 0 C-0.66 1.32 -1.32 2.64 -2 4 C-2.66 4 -3.32 4 -4 4 C-4 4.66 -4 5.32 -4 6 C-4.99 5.67 -5.98 5.34 -7 5 C-7.6875 2.9375 -7.6875 2.9375 -8 1 C-5.07175348 0.02391783 -3.04386724 -0.08226668 0 0 Z " fill="#04CFC7" transform="translate(178,26)"/>
<path d="M0 0 C0.33 1.32 0.66 2.64 1 4 C2.32 3.67 3.64 3.34 5 3 C5 3.66 5 4.32 5 5 C4.01 5 3.02 5 2 5 C2 5.99 2 6.98 2 8 C-0.475 7.01 -0.475 7.01 -3 6 C-3 3 -3 3 -1.5 1.3125 C-0.7575 0.6628125 -0.7575 0.6628125 0 0 Z " fill="#096575" transform="translate(75,197)"/>
<path d="M0 0 C0.33 0.99 0.66 1.98 1 3 C1.66 3 2.32 3 3 3 C2.71872579 4.48117801 2.42466268 5.95993249 2.125 7.4375 C1.96257812 8.26121094 1.80015625 9.08492187 1.6328125 9.93359375 C1.42398438 10.61550781 1.21515625 11.29742187 1 12 C0.01 12.495 0.01 12.495 -1 13 C-1.02708567 11.39592672 -1.04643483 9.7917215 -1.0625 8.1875 C-1.07410156 7.29417969 -1.08570312 6.40085938 -1.09765625 5.48046875 C-1 3 -1 3 0 0 Z " fill="#0C7E90" transform="translate(76,182)"/>
<path d="M0 0 C2.475 0.99 2.475 0.99 5 2 C4.01 2.495 4.01 2.495 3 3 C2.34786708 5.02463255 2.34786708 5.02463255 2 7 C1.01 6.67 0.02 6.34 -1 6 C-0.67 5.67 -0.34 5.34 0 5 C-0.66 4.34 -1.32 3.68 -2 3 C-1.34 2.01 -0.68 1.02 0 0 Z " fill="#08CDC9" transform="translate(206,48)"/>
<path d="M0 0 C2.04119788 1.61594832 4.04072937 3.2856382 6 5 C6 5.66 6 6.32 6 7 C3.03 6.505 3.03 6.505 0 6 C0 4 0 2 0 0 Z " fill="#159F9B" transform="translate(211,45)"/>
<path d="M0 0 C2.64 0 5.28 0 8 0 C8 1.98 8 3.96 8 6 C7.34 6 6.68 6 6 6 C6 5.34 6 4.68 6 4 C5.38125 3.71125 4.7625 3.4225 4.125 3.125 C2 2 2 2 0 0 Z " fill="#0FA19B" transform="translate(193,45)"/>
<path d="M0 0 C1.32 0.66 2.64 1.32 4 2 C2.71086513 2.67154933 1.41859796 3.33708859 0.125 4 C-0.59429687 4.37125 -1.31359375 4.7425 -2.0546875 5.125 C-4 6 -4 6 -6 6 C-5.67 4.35 -5.34 2.7 -5 1 C-3.35 1.33 -1.7 1.66 0 2 C0 1.34 0 0.68 0 0 Z " fill="#0A6B80" transform="translate(86,206)"/>
<path d="M0 0 C3.63 0.66 7.26 1.32 11 2 C11.33 2.99 11.66 3.98 12 5 C11.13375 4.67 10.2675 4.34 9.375 4 C6.04281725 3.01268659 3.44840462 2.83579026 0 3 C0 2.01 0 1.02 0 0 Z " fill="#0F7382" transform="translate(105,196)"/>
<path d="M0 0 C0.66 0 1.32 0 2 0 C2.33 3.63 2.66 7.26 3 11 C2.34 11 1.68 11 1 11 C0.67 7.37 0.34 3.74 0 0 Z " fill="#137F87" transform="translate(62,117)"/>
<path d="M0 0 C2.97 0.495 2.97 0.495 6 1 C6 2.66666667 6 4.33333333 6 6 C6.99 6.33 7.98 6.66 9 7 C9 7.66 9 8.32 9 9 C8.34 9 7.68 9 7 9 C7 8.34 7 7.68 7 7 C6.34 7 5.68 7 5 7 C5 6.34 5 5.68 5 5 C4.34 5 3.68 5 3 5 C3 4.34 3 3.68 3 3 C2.34 3 1.68 3 1 3 C0.67 2.01 0.34 1.02 0 0 Z " fill="#108482" transform="translate(201,51)"/>
<path d="M0 0 C0.66 0.33 1.32 0.66 2 1 C1.67 3.97 1.34 6.94 1 10 C0.01 10 -0.98 10 -2 10 C-2.17942163 6.05272412 -2.09350689 3.4019487 0 0 Z " fill="#018DA8" transform="translate(75,181)"/>
<path d="M0 0 C1.31223496 3.93670488 0.24296256 6.12488144 -1 10 C-1.66 10 -2.32 10 -3 10 C-3 7.36 -3 4.72 -3 2 C-2.01 2 -1.02 2 0 2 C0 1.34 0 0.68 0 0 Z " fill="#0E6878" transform="translate(81,175)"/>
<path d="M0 0 C1.64826111 2.96687001 2.44271087 5.65626525 3 9 C1.0625 8.6875 1.0625 8.6875 -1 8 C-2.2077558 4.37673261 -1.54311128 3.35853631 0 0 Z " fill="#0C7B85" transform="translate(66,132)"/>
<path d="M0 0 C1.65 0 3.3 0 5 0 C3.68 2.64 2.36 5.28 1 8 C0.67 8 0.34 8 0 8 C0 5.36 0 2.72 0 0 Z " fill="#149C9B" transform="translate(110,73)"/>
<path d="M0 0 C0.81210938 0.29003906 1.62421875 0.58007812 2.4609375 0.87890625 C3.27820313 1.16636719 4.09546875 1.45382813 4.9375 1.75 C5.56398438 1.97816406 6.19046875 2.20632812 6.8359375 2.44140625 C5.8459375 3.10140625 4.8559375 3.76140625 3.8359375 4.44140625 C0.40410432 3.60095731 -1.64934384 2.95612491 -4.1640625 0.44140625 C-2.1640625 -0.55859375 -2.1640625 -0.55859375 0 0 Z " fill="#0E7684" transform="translate(113.1640625,161.55859375)"/>
<path d="M0 0 C1.65 0 3.3 0 5 0 C4.6875 1.9375 4.6875 1.9375 4 4 C3.01 4.33 2.02 4.66 1 5 C0.67 3.35 0.34 1.7 0 0 Z " fill="#04CEC5" transform="translate(179,66)"/>
<path d="M0 0 C2 0 2 0 3.75 1.6875 C5 4 5 4 4.1875 6.75 C3.5996875 7.86375 3.5996875 7.86375 3 9 C2.34 8.67 1.68 8.34 1 8 C0.40644386 5.35139573 0.25790731 2.70802678 0 0 Z " fill="#17A19F" transform="translate(222,82)"/>
<path d="M0 0 C0.66 0.33 1.32 0.66 2 1 C1.25 7.75 1.25 7.75 -1 10 C-2.15837626 5.94568308 -1.83691257 3.78187881 0 0 Z " fill="#12C7C6" transform="translate(223,72)"/>
<path d="M0 0 C1.65 0 3.3 0 5 0 C5.33 1.98 5.66 3.96 6 6 C5.34 6 4.68 6 4 6 C2.61061923 4.03852126 1.2739589 2.03833424 0 0 Z " fill="#128F91" transform="translate(174,71)"/>
<path d="M0 0 C0.66 0.33 1.32 0.66 2 1 C2.625 3.0625 2.625 3.0625 3 5 C2.01 5.33 1.02 5.66 0 6 C-0.33 6.66 -0.66 7.32 -1 8 C-1.125 2.25 -1.125 2.25 0 0 Z " fill="#0FA19F" transform="translate(88,47)"/>
<path d="M0 0 C1.98 0.99 3.96 1.98 6 3 C6 3.66 6 4.32 6 5 C6.99 5.33 7.98 5.66 9 6 C8.34 6.66 7.68 7.32 7 8 C7 7.34 7 6.68 7 6 C6.360625 5.896875 5.72125 5.79375 5.0625 5.6875 C4.381875 5.460625 3.70125 5.23375 3 5 C2.67 4.01 2.34 3.02 2 2 C1.34 2 0.68 2 0 2 C0 1.34 0 0.68 0 0 Z " fill="#189B98" transform="translate(197,34)"/>
<path d="M0 0 C1.74627478 2.61941217 2.38722388 4.03824877 3 7 C2.34 7 1.68 7 1 7 C0.67 7.99 0.34 8.98 0 10 C-0.74926071 6.33694766 -1.2380014 3.57644848 0 0 Z " fill="#0A6E82" transform="translate(64,196)"/>
<path d="M0 0 C0.66 0 1.32 0 2 0 C1.25 7.75 1.25 7.75 -1 10 C-0.67 6.7 -0.34 3.4 0 0 Z " fill="#0E868F" transform="translate(219,183)"/>
<path d="M0 0 C-0.33 0.66 -0.66 1.32 -1 2 C-5.29 1.67 -9.58 1.34 -14 1 C-14 0.67 -14 0.34 -14 0 C-12.2300132 -0.19532961 -10.45895721 -0.38098882 -8.6875 -0.5625 C-7.70136719 -0.66691406 -6.71523437 -0.77132812 -5.69921875 -0.87890625 C-3 -1 -3 -1 0 0 Z " fill="#0E7378" transform="translate(171,156)"/>
<path d="M0 0 C0.33 0 0.66 0 1 0 C1.185625 1.5778125 1.185625 1.5778125 1.375 3.1875 C1.91140782 6.45958771 2.63880035 9.00536076 4 12 C3.01 12.495 3.01 12.495 2 13 C2 11.68 2 10.36 2 9 C1.01 8.67 0.02 8.34 -1 8 C-0.67 5.36 -0.34 2.72 0 0 Z " fill="#0C6370" transform="translate(109,138)"/>
<path d="M0 0 C0.66 1.32 1.32 2.64 2 4 C1.01 5.485 1.01 5.485 0 7 C-0.66 7 -1.32 7 -2 7 C-1.67 5.68 -1.34 4.36 -1 3 C-1.66 2.67 -2.32 2.34 -3 2 C-2.01 1.34 -1.02 0.68 0 0 Z " fill="#0BA5A2" transform="translate(111,61)"/>
<path d="M0 0 C-1.3125 1.5 -1.3125 1.5 -3 3 C-3.99 3 -4.98 3 -6 3 C-6 2.01 -6 1.02 -6 0 C-6.99 -0.33 -7.98 -0.66 -9 -1 C-5.79937313 -2.60031344 -3.27728194 -1.03173691 0 0 Z " fill="#0B6B7F" transform="translate(105,199)"/>
<path d="M0 0 C2.0245738 1.93254772 3.42105792 3.63158688 5 6 C4.67 6.99 4.34 7.98 4 9 C4 8.34 4 7.68 4 7 C2.68 6.67 1.36 6.34 0 6 C0 4.02 0 2.04 0 0 Z " fill="#127C86" transform="translate(189,118)"/>
<path d="M0 0 C2.15377564 2.62198774 3.40072174 4.64404172 4 8 C3.01 8 2.02 8 1 8 C0.26919734 6.02253397 -0.39421747 4.01927511 -1 2 C-0.67 1.34 -0.34 0.68 0 0 Z " fill="#139592" transform="translate(226,64)"/>
<path d="M0 0 C0.66 0 1.32 0 2 0 C2.33 1.65 2.66 3.3 3 5 C2.01 5.33 1.02 5.66 0 6 C0 5.34 0 4.68 0 4 C-0.66 3.67 -1.32 3.34 -2 3 C-1.34 2.01 -0.68 1.02 0 0 Z " fill="#16B8B3" transform="translate(223,61)"/>
<path d="M0 0 C5.41538462 -0.36923077 5.41538462 -0.36923077 8.375 1.5 C8.91125 1.995 9.4475 2.49 10 3 C7.69 3 5.38 3 3 3 C3 2.34 3 1.68 3 1 C2.01 0.67 1.02 0.34 0 0 Z " fill="#0B6D86" transform="translate(137,204)"/>
<path d="M0 0 C2.475 0.99 2.475 0.99 5 2 C5 2.99 5 3.98 5 5 C4.01 5 3.02 5 2 5 C2 4.34 2 3.68 2 3 C1.34 3 0.68 3 0 3 C0 2.01 0 1.02 0 0 Z " fill="#0AAFB6" transform="translate(178,157)"/>
<path d="M0 0 C0.66 0 1.32 0 2 0 C2 0.66 2 1.32 2 2 C2.66 2 3.32 2 4 2 C4.33 3.98 4.66 5.96 5 8 C2.20127563 5.47211993 0.54226981 3.79588866 0 0 Z " fill="#0E6B77" transform="translate(65,157)"/>
</svg>
