<?xml version="1.0" encoding="UTF-8"?>
<svg version="1.1" xmlns="http://www.w3.org/2000/svg" width="136" height="62">
<path d="M0 0 C0.88374802 -0.00671722 1.76749603 -0.01343445 2.67802429 -0.02035522 C5.58903686 -0.03929624 8.49981837 -0.04325752 11.41088867 -0.04541016 C13.44341627 -0.05184099 15.47594295 -0.05856957 17.50846863 -0.06558228 C21.76608424 -0.07754545 26.02361877 -0.0812641 30.28125 -0.08007812 C35.72175446 -0.07987504 41.16173595 -0.1071708 46.60211658 -0.14162254 C50.79988466 -0.16392245 54.99752751 -0.16791471 59.19534874 -0.16685867 C61.20030201 -0.16921021 63.20525896 -0.17800842 65.21015358 -0.19352341 C68.02197923 -0.21324505 70.83268537 -0.20732111 73.64453125 -0.1953125 C74.46301544 -0.20655151 75.28149963 -0.21779053 76.12478638 -0.22937012 C83.1797018 -0.1532795 89.13759501 1.87324593 94.57495117 6.43896484 C95.50500977 7.54111328 95.50500977 7.54111328 96.45385742 8.66552734 C97.09194336 9.39513672 97.7300293 10.12474609 98.38745117 10.87646484 C102.27936427 16.64433606 102.38130784 22.37483476 102.39135742 29.10302734 C102.41584961 29.95445313 102.4403418 30.80587891 102.46557617 31.68310547 C102.49971898 39.15468999 100.71310785 45.07894274 95.86791992 50.84912109 C95.1331543 51.46916016 94.39838867 52.08919922 93.64135742 52.72802734 C92.91174805 53.36611328 92.18213867 54.00419922 91.43041992 54.66162109 C85.8974837 58.3950101 80.47281392 58.58813379 74.03271484 58.58105469 C73.14896683 58.58777191 72.26521881 58.59448914 71.35469055 58.60140991 C68.44367798 58.62035092 65.53289647 58.6243122 62.62182617 58.62646484 C60.58929857 58.63289568 58.55677189 58.63962426 56.52424622 58.64663696 C52.2666306 58.65860014 48.00909607 58.66231879 43.75146484 58.66113281 C38.31096038 58.66092973 32.87097889 58.68822549 27.43059826 58.72267723 C23.23283019 58.74497713 19.03518733 58.74896939 14.8373661 58.74791336 C12.83241283 58.7502649 10.82745588 58.7590631 8.82256126 58.77457809 C6.01073562 58.79429974 3.20002947 58.7883758 0.38818359 58.77636719 C-0.83954269 58.79322571 -0.83954269 58.79322571 -2.09207153 58.8104248 C-9.14698695 58.73433419 -15.10488017 56.70780876 -20.54223633 52.14208984 C-21.47229492 51.03994141 -21.47229492 51.03994141 -22.42114258 49.91552734 C-23.05922852 49.18591797 -23.69731445 48.45630859 -24.35473633 47.70458984 C-28.24664943 41.93671863 -28.348593 36.20621993 -28.35864258 29.47802734 C-28.39538086 28.20088867 -28.39538086 28.20088867 -28.43286133 26.89794922 C-28.46700414 19.4263647 -26.68039301 13.50211195 -21.83520508 7.73193359 C-21.10043945 7.11189453 -20.36567383 6.49185547 -19.60864258 5.85302734 C-18.8790332 5.21494141 -18.14942383 4.57685547 -17.39770508 3.91943359 C-11.86476886 0.18604459 -6.44009908 -0.00707911 0 0 Z " fill="#098068" transform="translate(30.983642578125,1.70947265625)"/>
<path d="M0 0 C1.65 0 3.3 0 5 0 C7.19406593 5.21806114 8.55093929 10.53308913 10 16 C11.65 10.72 13.3 5.44 15 0 C16.65 0 18.3 0 20 0 C22.24480642 5.61201606 23.83348574 11.07136283 25 17 C26.96529009 13.54792524 27.7746477 10.11523774 28.625 6.25 C28.88539062 5.07953125 29.14578125 3.9090625 29.4140625 2.703125 C29.60742188 1.81109375 29.80078125 0.9190625 30 0 C31.65 0 33.3 0 35 0 C34.3113884 5.7749473 33.00217432 11.26115998 31.5 16.875 C31.27441406 17.74125 31.04882812 18.6075 30.81640625 19.5 C29.12871469 25.87128531 29.12871469 25.87128531 28 27 C26.02 27 24.04 27 22 27 C20.68 21.72 19.36 16.44 18 11 C16.20394692 16.30652047 14.49339638 21.6007977 13 27 C11.02 27 9.04 27 7 27 C5.82677153 23.06442471 4.66254629 19.12624273 3.5 15.1875 C3.16613281 14.06794922 2.83226563 12.94839844 2.48828125 11.79492188 C2.17246094 10.72177734 1.85664062 9.64863281 1.53125 8.54296875 C1.23798828 7.55321045 0.94472656 6.56345215 0.64257812 5.54370117 C0 3 0 3 0 0 Z " fill="#EFF5F3" transform="translate(71,17)"/>
<path d="M0 0 C2.31 0 4.62 0 7 0 C8.31582063 2.26896632 9.62775236 4.54003187 10.9375 6.8125 C11.31068359 7.45509766 11.68386719 8.09769531 12.06835938 8.75976562 C13.63466635 11.48316424 15.00369374 14.01108122 16 17 C16.33 11.39 16.66 5.78 17 0 C18.32 0 19.64 0 21 0 C21 8.91 21 17.82 21 27 C19.35 27 17.7 27 16 27 C14.59375 25.56640625 14.59375 25.56640625 13.5 23.5625 C13.09394531 22.84191406 12.68789063 22.12132813 12.26953125 21.37890625 C11.85058594 20.59386719 11.43164062 19.80882813 11 19 C10.06262193 17.33326475 9.1251254 15.66659613 8.1875 14 C7.465625 12.68 6.74375 11.36 6 10 C5.67 15.61 5.34 21.22 5 27 C3.35 27 1.7 27 0 27 C0 18.09 0 9.18 0 0 Z " fill="#F0F6F4" transform="translate(29,17)"/>
<path d="M0 0 C5.28 0 10.56 0 16 0 C16 0.99 16 1.98 16 3 C12.37 3 8.74 3 5 3 C5 5.64 5 8.28 5 11 C7.97 11 10.94 11 14 11 C14 11.99 14 12.98 14 14 C11.03 14 8.06 14 5 14 C5 16.97 5 19.94 5 23 C8.63 23 12.26 23 16 23 C16 24.32 16 25.64 16 27 C13.52076199 27.02685095 11.0418116 27.04676547 8.5625 27.0625 C7.85544922 27.07087891 7.14839844 27.07925781 6.41992188 27.08789062 C4.61306441 27.09653588 2.80612397 27.05220011 1 27 C0 26 0 26 -0.11352539 23.49975586 C-0.10828857 22.41573486 -0.10305176 21.33171387 -0.09765625 20.21484375 C-0.09443359 19.04501953 -0.09121094 17.87519531 -0.08789062 16.66992188 C-0.07951172 15.43822266 -0.07113281 14.20652344 -0.0625 12.9375 C-0.05798828 11.70193359 -0.05347656 10.46636719 -0.04882812 9.19335938 C-0.03699618 6.12888587 -0.01906008 3.06443707 0 0 Z " fill="#EDF3F2" transform="translate(54,17)"/>
</svg>
